<?xml version="1.0" encoding="UTF-8" standalone="no"?>
<svg
   xmlns:dc="http://purl.org/dc/elements/1.1/"
   xmlns:cc="http://creativecommons.org/ns#"
   xmlns:rdf="http://www.w3.org/1999/02/22-rdf-syntax-ns#"
   xmlns:svg="http://www.w3.org/2000/svg"
   xmlns="http://www.w3.org/2000/svg"
   xmlns:sodipodi="http://sodipodi.sourceforge.net/DTD/sodipodi-0.dtd"
   xmlns:inkscape="http://www.inkscape.org/namespaces/inkscape"
   width="1920"
   height="1080"
   viewBox="0 0 507.99999 285.75001"
   version="1.1"
   id="svg8"
   inkscape:version="1.0.2-2 (e86c870879, 2021-01-15)"
   sodipodi:docname="BubbleGum Splatter.svg">
  <defs
     id="defs2" />
  <sodipodi:namedview
     id="base"
     pagecolor="#ffffff"
     bordercolor="#666666"
     borderopacity="1.0"
     inkscape:pageopacity="0.0"
     inkscape:pageshadow="2"
     inkscape:zoom="1.4"
     inkscape:cx="520.8386"
     inkscape:cy="412.45248"
     inkscape:document-units="mm"
     inkscape:current-layer="layer7"
     inkscape:document-rotation="0"
     showgrid="false"
     units="px"
     inkscape:pagecheckerboard="true"
     inkscape:window-width="1920"
     inkscape:window-height="1001"
     inkscape:window-x="-9"
     inkscape:window-y="-9"
     inkscape:window-maximized="1" />
  <metadata
     id="metadata5">
    <rdf:RDF>
      <cc:Work
         rdf:about="">
        <dc:format>image/svg+xml</dc:format>
        <dc:type
           rdf:resource="http://purl.org/dc/dcmitype/StillImage" />
        <dc:title></dc:title>
      </cc:Work>
    </rdf:RDF>
  </metadata>
  <g
     inkscape:label="Layer 1"
     inkscape:groupmode="layer"
     id="layer1" />
  <g
     inkscape:groupmode="layer"
     id="layer4"
     inkscape:label="Bubble Gum">
    <rect
       style="fill:#ff8080;fill-opacity:1;stroke:#ff8080;stroke-width:0.376999;stroke-miterlimit:4;stroke-dasharray:none;stroke-opacity:1"
       id="rect991"
       width="75.914413"
       height="12.770386"
       x="111.255"
       y="91.854927" />
  </g>
  <g
     inkscape:groupmode="layer"
     id="layer5"
     inkscape:label="Bubble Gum 1"
     style="display:inline">
    <ellipse
       style="fill:#ff8080;fill-opacity:1;stroke:#ff8080;stroke-width:0.376999;stroke-miterlimit:4;stroke-dasharray:none;stroke-opacity:1"
       id="path994"
       cx="119.57187"
       cy="109.04843"
       rx="1.3727143"
       ry="3.3062339" />
    <ellipse
       style="fill:#ff8080;fill-opacity:1;stroke:#ff8080;stroke-width:0.376999;stroke-miterlimit:4;stroke-dasharray:none;stroke-opacity:1"
       id="path996"
       cx="128.41016"
       cy="113.05761"
       rx="1.8927593"
       ry="3.731056" />
    <ellipse
       style="fill:#ff8080;fill-opacity:1;stroke:#ff8080;stroke-width:0.376999;stroke-miterlimit:4;stroke-dasharray:none;stroke-opacity:1"
       id="path998"
       cx="134.40831"
       cy="110.17091"
       rx="1.1835804"
       ry="3.1173916" />
    <ellipse
       style="fill:#ff8080;fill-opacity:1;stroke:#ff8080;stroke-width:0.376999;stroke-miterlimit:4;stroke-dasharray:none;stroke-opacity:1"
       id="path1000"
       cx="141.54916"
       cy="118.66987"
       rx="1.5163504"
       ry="5.7629685" />
    <ellipse
       style="fill:#ff8080;fill-opacity:1;stroke:#ff8080;stroke-width:0.376999;stroke-miterlimit:4;stroke-dasharray:none;stroke-opacity:1"
       id="path1002"
       cx="148.16054"
       cy="114.50703"
       rx="1.6094595"
       ry="3.9675097" />
    <ellipse
       style="fill:#ff8080;fill-opacity:1;stroke:#ff8080;stroke-width:0.376999;stroke-miterlimit:4;stroke-dasharray:none;stroke-opacity:1"
       id="path1004"
       cx="156.4743"
       cy="112.28001"
       rx="1.4205809"
       ry="4.1093965" />
    <ellipse
       style="fill:#ff8080;fill-opacity:1;stroke:#ff8080;stroke-width:0.376999;stroke-miterlimit:4;stroke-dasharray:none;stroke-opacity:1"
       id="path1006"
       cx="164.17268"
       cy="108.54156"
       rx="1.2780745"
       ry="3.1173186" />
    <ellipse
       style="fill:#ff8080;fill-opacity:1;stroke:#ff8080;stroke-width:0.376999;stroke-miterlimit:4;stroke-dasharray:none;stroke-opacity:1"
       id="path1008"
       cx="174.66319"
       cy="110.70683"
       rx="1.5630143"
       ry="5.0069804" />
    <ellipse
       style="fill:#ff8080;fill-opacity:1;stroke:#ff8080;stroke-width:0.376999;stroke-miterlimit:4;stroke-dasharray:none;stroke-opacity:1"
       id="path1010"
       cx="182.93047"
       cy="109.47202"
       rx="1.2313377"
       ry="3.7788134" />
    <ellipse
       style="fill:#ff8080;fill-opacity:1;stroke:#ff8080;stroke-width:0.376999;stroke-miterlimit:4;stroke-dasharray:none;stroke-opacity:1"
       id="path1012"
       cx="168.90427"
       cy="117.4676"
       rx="1.3713658"
       ry="1.5580945" />
    <ellipse
       style="fill:#ff8080;fill-opacity:1;stroke:#ff8080;stroke-width:0.376999;stroke-miterlimit:4;stroke-dasharray:none;stroke-opacity:1"
       id="path1309"
       cx="152.36116"
       cy="109.29597"
       rx="0.86988837"
       ry="1.6363554" />
    <ellipse
       style="fill:#ff8080;fill-opacity:1;stroke:#ff8080;stroke-width:0.376999;stroke-miterlimit:4;stroke-dasharray:none;stroke-opacity:1"
       id="path1333"
       cx="144.42583"
       cy="108.88068"
       rx="0.66940123"
       ry="1.4752325" />
  </g>
  <g
     inkscape:groupmode="layer"
     id="layer6"
     inkscape:label="Bubble Gum 2"
     style="display:inline">
    <path
       style="display:inline;fill:none;stroke:#ff8080;stroke-width:0.264583px;stroke-linecap:butt;stroke-linejoin:miter;stroke-opacity:1"
       d="m 111.255,104.62531 c 3.37412,0.73204 5.17506,2.40965 6.79506,4.196"
       id="path1016-8"
       sodipodi:nodetypes="cc" />
    <path
       style="display:inline;fill:none;stroke:#ff8080;stroke-width:0.244636px;stroke-linecap:butt;stroke-linejoin:miter;stroke-opacity:1"
       d="m 126.50938,114.29258 c -2.698,-0.78266 -4.13806,-2.57627 -5.43342,-4.48613"
       id="path1016-8-6"
       sodipodi:nodetypes="cc" />
    <path
       style="display:inline;fill:none;stroke:#ff8080;stroke-width:0.184681px;stroke-linecap:butt;stroke-linejoin:miter;stroke-opacity:1"
       d="m 130.16586,114.66543 c 1.50864,-0.79768 2.31388,-2.62572 3.03822,-4.57223"
       id="path1016-8-6-0"
       sodipodi:nodetypes="cc" />
    <path
       style="display:inline;fill:none;stroke:#ff8080;stroke-width:0.283558px;stroke-linecap:butt;stroke-linejoin:miter;stroke-opacity:1"
       d="m 141.4724,119.6952 c 1.48212,-1.91414 2.2732,-6.30073 2.9848,-10.97163"
       id="path1016-8-6-0-3"
       sodipodi:nodetypes="cc" />
    <path
       style="display:inline;fill:none;stroke:#ff8080;stroke-width:0.33867px;stroke-linecap:butt;stroke-linejoin:miter;stroke-opacity:1"
       d="m 139.97445,120.33026 c -2.2181,-1.82453 -3.402,-6.00572 -4.46698,-10.45792"
       id="path1016-8-6-0-36"
       sodipodi:nodetypes="cc" />
    <path
       style="display:inline;fill:none;stroke:#ff8080;stroke-width:0.213506px;stroke-linecap:butt;stroke-linejoin:miter;stroke-opacity:1"
       d="m 149.438,115.06358 c 1.48364,-1.08409 2.27551,-3.56852 2.98784,-6.21396"
       id="path1016-8-6-0-3-7"
       sodipodi:nodetypes="cc" />
    <path
       style="display:inline;fill:none;stroke:#ff8080;stroke-width:0.254196px;stroke-linecap:butt;stroke-linejoin:miter;stroke-opacity:1"
       d="m 157.63199,114.28328 c 2.94475,-0.77421 4.51651,-2.54846 5.93037,-4.4377"
       id="path1016-8-6-0-3-7-0"
       sodipodi:nodetypes="cc" />
    <path
       style="display:inline;fill:none;stroke:#ff8080;stroke-width:0.274441px;stroke-linecap:butt;stroke-linejoin:miter;stroke-opacity:1"
       d="m 168.22154,118.01283 c -2.2277,-5.37738 -2.89491,-9.085 -3.38266,-12.60058"
       id="path1016-8-6-0-3-7-0-6"
       sodipodi:nodetypes="cc" />
    <path
       style="display:inline;fill:none;stroke:#ff8080;stroke-width:0.442423px;stroke-linecap:butt;stroke-linejoin:miter;stroke-opacity:1"
       d="m 168.23204,118.01322 c 3.74535,-2.80083 4.86711,-6.88125 5.68715,-11.10877"
       id="path1016-8-6-0-3-7-0-6-9"
       sodipodi:nodetypes="cc" />
    <path
       style="display:inline;fill:none;stroke:#ff8080;stroke-width:0.274441px;stroke-linecap:butt;stroke-linejoin:miter;stroke-opacity:1"
       d="m 175.63427,111.5259 c 2.2277,-1.81195 2.89491,-4.45171 3.38266,-7.18664"
       id="path1016-8-6-0-3-7-0-6-9-5"
       sodipodi:nodetypes="cc" />
    <path
       style="display:inline;fill:none;stroke:#ff8080;stroke-width:0.234471px;stroke-linecap:butt;stroke-linejoin:miter;stroke-opacity:1"
       d="m 183.35486,108.85176 c -1.62607,-1.81195 -2.11309,-4.45171 -2.46911,-7.18664"
       id="path1016-8-6-0-3-7-0-6-9-5-7"
       sodipodi:nodetypes="cc" />
    <path
       style="display:inline;fill:none;stroke:#ff8080;stroke-width:0.231474px;stroke-linecap:butt;stroke-linejoin:miter;stroke-opacity:1"
       d="m 183.35486,108.85176 c 1.58437,-1.8124 2.0589,-4.45281 2.40579,-7.18841"
       id="path1016-8-6-0-3-7-0-6-9-5-7-5"
       sodipodi:nodetypes="cc" />
    <path
       style="display:inline;fill:none;stroke:#ff8080;stroke-width:0.260537px;stroke-linecap:butt;stroke-linejoin:miter;stroke-opacity:1"
       d="m 157.09655,114.76879 c -2.31929,-1.03266 -3.55717,-3.39923 -4.67071,-5.91917"
       id="path1016-8-6-0-3-7-8"
       sodipodi:nodetypes="cc" />
    <path
       style="display:inline;fill:none;stroke:#ff8080;stroke-width:0.274728px;stroke-linecap:butt;stroke-linejoin:miter;stroke-opacity:1"
       d="m 148.2036,117.01786 c -1.87587,-1.41963 -2.87712,-4.67298 -3.77777,-8.13718"
       id="path1016-8-6-0-3-8"
       sodipodi:nodetypes="cc" />
  </g>
  <g
     inkscape:groupmode="layer"
     id="layer7"
     inkscape:label="Bubble Gum 3">
    <path
       style="fill:#ff8080;fill-opacity:1;stroke:#ff8080;stroke-width:0.508886;stroke-miterlimit:4;stroke-dasharray:none;stroke-opacity:1"
       d="m 527.07341,451.58534 c -4.51786,-5.1454 -8.44961,-14.432 -12.05697,-28.47794 -0.88266,-3.43682 -1.70416,-7.56807 -1.82556,-9.18055 -0.58978,-7.834 -3.93032,-12.03584 -7.30658,-9.19045 -1.42283,1.1991 -2.43886,4.02348 -2.91611,8.10627 -0.54014,4.62064 -0.84453,5.63654 -3.02555,10.09778 -1.8611,3.80685 -4.03124,6.88384 -5.87112,8.32453 l -0.89232,0.69872 -0.0149,-4.68758 c -0.0155,-4.89813 -0.4872,-7.30834 -2.03315,-10.38955 -2.65032,-5.2823 -7.43069,-5.99521 -10.621,-1.58395 -2.13274,2.94893 -3.44137,8.3811 -3.16815,13.15106 0.08,1.39689 0.009,2.53992 -0.15746,2.54005 -0.62564,4.8e-4 -5.62738,-2.46932 -7.28557,-3.59752 -2.79104,-1.89898 -6.46667,-5.60569 -9.28311,-9.36162 l -2.62873,-3.5056 -0.005,-2.38523 c -0.01,-5.11867 -1.3463,-9.87637 -3.37909,-12.02843 -0.97267,-1.02975 -1.43128,-1.24595 -2.64086,-1.24502 -1.19172,9.2e-4 -1.69186,0.22956 -2.69086,1.2301 -1.30868,1.3107 -2.47908,4.00444 -2.88125,6.63135 -0.48911,3.19477 -0.38344,3.17987 -3.17891,0.44812 -4.74921,-4.64096 -8.67902,-7.37865 -13.78549,-9.60363 l -2.703,-1.17775 124.37496,-0.10029 c 83.35813,-0.0672 124.37505,0.0185 124.37524,0.25978 7.6e-4,0.99375 -1.86029,8.0497 -2.83267,10.73966 -1.03623,2.86663 -3.40161,7.27887 -4.94504,9.22419 l -0.6777,0.85417 -0.25722,-3.25578 c -0.55872,-7.07192 -2.19372,-12.42843 -4.37813,-14.34339 -3.9941,-3.50142 -7.63716,1.94793 -8.6966,13.00854 -0.72478,7.56666 -4.6497,17.10456 -9.79431,23.80105 l -1.62306,2.11266 -1.14979,-0.69984 c -1.98564,-1.2086 -4.70317,-0.8859 -6.52936,0.77536 l -0.73735,0.67075 -2.20754,-6.51668 c -3.50227,-10.33874 -5.11352,-17.04749 -5.46733,-22.76417 -0.28917,-4.67218 -0.63623,-6.42178 -2.01954,-10.18085 -0.47034,-1.27811 -0.82575,-1.75667 -1.24449,-1.6757 -0.32238,0.0623 -0.6911,-0.0562 -0.81938,-0.26339 -0.12828,-0.2072 -0.84791,-0.37626 -1.59917,-0.37568 -1.13674,8.8e-4 -1.5789,0.23714 -2.63509,1.40803 -2.444,2.70942 -3.65222,9.48085 -2.73658,15.33711 0.45068,2.88244 0.44805,2.90554 -0.4669,4.10703 -3.71061,4.87265 -9.62121,9.30818 -15.49679,11.62935 l -1.69527,0.66973 -0.035,-6.47743 c -0.0296,-5.47325 -0.15535,-6.91549 -0.81111,-9.30319 -1.30213,-4.74124 -3.00072,-6.99275 -5.27416,-6.991 -3.2609,0.003 -5.53921,5.28647 -6.13304,14.22398 l -0.25035,3.76797 -1.64018,-2.47439 c -0.9021,-1.36091 -2.15118,-3.38095 -2.77573,-4.48897 -1.0852,-1.92526 -1.11798,-2.09679 -0.73938,-3.86878 1.07134,-5.01439 -1.81265,-10.27398 -4.92368,-8.9794 -2.30825,0.96053 -3.68936,5.06142 -2.98405,8.86043 0.20684,1.11404 0.61611,2.39129 0.90951,2.83831 0.48769,0.74307 0.43907,1.0824 -0.56689,3.95675 -1.20544,3.44431 -3.06358,7.20838 -4.35554,8.82313 l -0.82765,1.03443 -0.39588,-3.19499 c -1.10121,-8.88735 -4.78243,-13.3725 -8.90752,-10.85283 -1.75837,1.07404 -3.56061,5.11015 -4.28488,9.59595 l -0.59369,3.67712 -0.84523,-2.06886 c -0.46488,-1.13788 -1.56923,-4.30915 -2.45411,-7.04727 -1.60582,-4.96896 -1.60775,-4.98114 -1.01591,-6.42779 1.40115,-3.42483 0.30743,-9.51629 -1.80345,-10.04436 -1.61772,-0.4047 -2.58733,0.0956 -3.38497,1.74655 -1.04552,2.16401 -1.03503,6.39694 0.0219,8.84872 0.71085,1.64891 0.73344,1.9601 0.32876,4.53024 -0.53266,3.38302 -2.85312,14.83657 -3.04472,15.02847 -0.0764,0.0765 -0.24208,-0.32178 -0.36824,-0.88504 -1.2365,-5.52044 -3.17751,-8.70041 -5.3096,-8.69876 -3.67462,0.003 -6.10495,7.76558 -6.58984,21.04874 l -0.21411,5.86523 z"
       id="path1335"
       transform="scale(0.26458333)" />
    <path
       style="fill:#ff8080;fill-opacity:1;stroke:#ff8080;stroke-width:0.508886;stroke-miterlimit:4;stroke-dasharray:none;stroke-opacity:1"
       d="m 695.83315,404.48578 c -0.006,-0.97878 -1.61774,-4.18968 -2.52749,-5.03593 -1.29475,-1.20438 -2.89477,-1.01313 -4.22571,0.5051 -0.726,0.82815 -1.17041,1.1074 -1.28043,0.80456 -0.82536,-2.27206 -1.2543,-3.66673 -1.25462,-4.07933 -3e-4,-0.39814 1.21339,-0.49174 6.42819,-0.49577 3.53572,-0.003 6.42861,0.0462 6.42866,0.10879 3.2e-4,0.41209 -1.26717,4.39553 -2.03822,6.40569 -0.89683,2.33808 -1.52224,3.06831 -1.53038,1.78689 z"
       id="path1337"
       transform="scale(0.26458333)" />
    <path
       style="fill:#ff8080;fill-opacity:1;stroke:#ff8080;stroke-width:0.508886;stroke-miterlimit:4;stroke-dasharray:none;stroke-opacity:1"
       d="m 533.60405,470.20217 c -1.84999,-1.45289 -3.43455,-5.82287 -4.18849,-11.55125 -0.46009,-3.4957 -0.47657,-3.53581 -2.04511,-4.9794 -4.82521,-4.44085 -9.31272,-14.12212 -13.13418,-28.33546 l -1.36914,-5.09232 -0.65344,2.58141 c -1.76692,6.98023 -5.80435,7.83873 -7.97689,1.69617 -0.75212,-2.12648 -1.35682,-5.89051 -1.31579,-8.19031 l 0.035,-1.96431 -0.48512,2.14323 c -0.97572,4.3107 -4.45024,10.79957 -7.4032,13.82594 -1.8305,1.876 -1.85228,1.88631 -2.11966,1.00284 -0.2354,-0.7778 -0.2653,-0.73183 -0.23237,0.35732 0.0208,0.68749 -0.17251,1.73228 -0.42953,2.32176 -0.25703,0.58949 -0.81743,1.87563 -1.24534,2.85811 -1.08515,2.49152 -2.4286,3.95537 -4.28066,4.66432 -1.55123,0.59379 -1.61981,0.5888 -3.29361,-0.23966 -2.10411,-1.04145 -3.74402,-3.35447 -4.77265,-6.73164 -0.69733,-2.28947 -0.79938,-2.42308 -2.16156,-2.83006 -2.20298,-0.65817 -6.42435,-2.94854 -8.80406,-4.77676 -2.62289,-2.01505 -5.74531,-5.37538 -8.13138,-8.75096 -0.98308,-1.39077 -1.90796,-2.53554 -2.05529,-2.54394 -0.14732,-0.008 -0.26757,0.3722 -0.2672,0.84577 10e-4,1.35313 -1.28004,5.13391 -2.19684,6.48342 -0.45811,0.67433 -1.35506,1.4758 -1.99322,1.78105 -1.04847,0.50151 -1.27217,0.50169 -2.32142,0.002 -2.3368,-1.11333 -4.02193,-5.06654 -4.43666,-10.40813 l -0.23355,-3.00808 -3.61452,-3.47344 c -4.15419,-3.99206 -7.26786,-6.30409 -11.19939,-8.31601 -2.98019,-1.52509 -8.82716,-3.53764 -10.27448,-3.53652 l -0.88858,6.8e-4 -0.019,-24.64285 -0.019,-24.64285 143.92853,-0.11101 143.92853,-0.11102 0.019,24.63077 0.019,24.63077 -3.79022,0.10429 -3.79021,0.10429 -0.86631,3.03638 c -0.47646,1.67001 -1.36342,4.08141 -1.971,5.35867 -1.09937,2.31109 -1.10495,2.35325 -1.15696,8.75089 -0.0714,8.78807 -1.14403,12.94221 -3.86318,14.96208 -0.91883,0.68254 -1.07388,0.69874 -1.95609,0.20447 -2.06795,-1.15861 -3.32236,-4.11835 -4.05609,-9.57023 -0.48943,-3.63667 -0.21766,-9.98289 0.56053,-13.08913 0.5303,-2.11675 0.5226,-2.19078 -0.6222,-5.98167 l -1.15914,-3.83839 -4.32996,0.003 -4.32997,0.003 -0.61527,3.12547 c -1.40782,7.15159 -4.36405,14.20583 -7.69567,18.36367 -1.64143,2.04851 -1.66878,2.1256 -1.91099,5.38788 -0.86164,11.60525 -4.91069,18.00514 -8.65512,13.68021 -1.88431,-2.17643 -2.8975,-5.60132 -3.91032,-13.21822 l -0.23743,-1.78553 -0.61602,1.78619 c -1.63283,4.7345 -4.49882,10.01596 -7.85234,14.47035 -1.93751,2.57352 -1.99953,2.72273 -1.5593,3.7512 1.41543,3.3068 -0.57773,7.88553 -3.81303,8.75938 -1.88358,0.50876 -3.43636,0.0738 -4.97828,-1.3946 -1.76521,-1.681 -2.40456,-3.74009 -1.91155,-6.15629 0.3478,-1.70454 0.25398,-2.10329 -2.20559,-9.37428 -1.41286,-4.1767 -3.11912,-9.87035 -3.79169,-12.65255 -1.13571,-4.69814 -1.75451,-6.19353 -1.76142,-4.25671 -0.004,1.17479 -1.5379,4.24125 -2.62087,5.24012 -1.78959,1.6506 -4.45084,0.62943 -5.60493,-2.15074 -0.23497,-0.56602 -0.49594,-1.02908 -0.57995,-1.02902 -0.084,7e-5 -1.52269,1.44193 -3.19707,3.20414 -4.64675,4.89048 -9.43869,8.10314 -14.6288,9.80756 l -1.82483,0.59928 -0.61982,2.29682 c -0.3409,1.26326 -1.06358,2.99776 -1.60594,3.85444 -2.69435,4.25581 -6.11925,2.27218 -7.87207,-4.55934 -0.39424,-1.53651 -0.71718,-3.29105 -0.71765,-3.89899 -6.1e-4,-0.78781 -0.57694,-1.86988 -2.00636,-3.76694 -1.10303,-1.46388 -2.72122,-3.8912 -3.59598,-5.39404 l -1.59048,-2.73244 -1.02277,1.02435 c -1.0536,1.05523 -1.93252,1.26387 -2.8595,0.67879 -0.39016,-0.24626 -0.65519,-0.12572 -0.99524,0.45266 -0.44162,0.75114 -0.45496,0.73778 -0.28285,-0.28326 0.11474,-0.68069 -0.071,-1.52734 -0.50908,-2.32104 -0.82997,-1.50354 -0.91879,-1.27735 -0.1858,0.47314 0.34374,0.82093 0.4056,1.35328 0.1739,1.49673 -0.19779,0.12245 -0.27382,0.3612 -0.16898,0.53055 0.40462,0.65356 -3.05665,8.44565 -4.76058,10.71715 l -0.93782,1.25019 -0.22984,-1.07072 c -0.20207,-0.94133 -0.2348,-0.88061 -0.27089,0.50253 -0.0405,1.55142 -0.0312,1.56427 0.67275,0.92627 0.39258,-0.35584 0.71391,-0.48626 0.71406,-0.28983 1.6e-4,0.19643 -0.29827,0.62775 -0.66316,0.95848 -0.47254,0.4283 -0.73145,1.33923 -0.89978,3.16561 -0.46388,5.03331 -1.96812,9.11371 -4.11107,11.15171 -3.6198,3.44251 -7.80385,-1.72505 -8.79973,-10.86822 -0.14087,-1.29335 -0.63762,-3.08212 -1.12179,-4.03953 -1.25518,-2.48202 -2.73276,-6.42405 -4.06543,-10.84619 -0.63969,-2.12266 -1.20231,-3.90735 -1.25024,-3.96598 -0.048,-0.0586 -0.49159,-0.005 -0.98589,0.1197 -0.74909,0.18862 -0.9385,0.50384 -1.13765,1.89326 -0.44225,3.0856 -2.3623,12.71169 -3.21804,16.13354 -0.78915,3.15556 -0.83376,3.84429 -0.63633,9.82193 0.38777,11.73987 -1.32599,21.3375 -4.35302,24.37836 -1.35389,1.36009 -1.86543,1.4274 -3.15441,0.4151 z m -4.87521,-20.20058 c -0.002,-2.09523 -0.0965,-3.71584 -0.21079,-3.60134 -0.11432,0.11449 -0.19521,1.7083 -0.17975,3.5418 l 0.0281,3.33363 -0.89879,-1.07073 c -3.46343,-4.12599 -6.75561,-10.53891 -9.27285,-18.06286 -1.86336,-5.56949 -4.40464,-15.23802 -4.64486,-17.67179 -0.19644,-1.99014 -0.56412,-2.53666 -0.55946,-0.83158 0.004,1.48241 2.66505,11.8323 4.49183,17.4709 2.7511,8.4916 6.07727,15.17112 9.47241,19.02222 0.81437,0.92372 1.54736,1.67945 1.62889,1.67939 0.0815,-6e-5 0.14689,-1.7144 0.14527,-3.80964 z m 0.35085,-8.15503 c -3.7e-4,-0.49107 -0.0623,-0.89281 -0.13762,-0.89275 -0.0753,5e-5 -0.21343,0.40195 -0.30693,0.89309 -0.0935,0.49114 -0.0316,0.89288 0.13763,0.89275 0.16918,-1.3e-4 0.3073,-0.40202 0.30692,-0.89309 z m 105.36696,-2.58128 c 0.48414,-0.66109 0.47655,-0.67789 -0.10123,-0.22405 -0.49442,0.38837 -0.6247,0.39468 -0.62498,0.0302 -1.9e-4,-0.25322 -0.0844,-0.3762 -0.18719,-0.27328 -0.10275,0.10292 -0.0826,0.45805 0.0447,0.78918 0.12736,0.33113 0.25715,0.55493 0.28843,0.49732 0.0313,-0.0576 0.29238,-0.42634 0.58024,-0.81942 z m -105.01243,-0.81185 c -3e-4,-0.39286 -0.0622,-0.71424 -0.13747,-0.71418 -0.0753,5e-5 -0.22072,0.32159 -0.32315,0.71453 -0.10244,0.39294 -0.0406,0.71432 0.13746,0.71418 0.17804,-1.4e-4 0.32346,-0.32168 0.32316,-0.71453 z m 115.36939,-2.41115 c 3.70249,-4.92103 8.95296,-16.88877 8.86916,-20.21604 -0.0254,-1.00655 -0.11957,-0.84564 -0.54137,0.92463 -1.75159,7.35136 -5.46569,15.20559 -9.67419,20.45807 -0.67115,0.83764 -1.3936,1.41605 -1.60544,1.28535 -0.23489,-0.14492 -0.28107,-0.0695 -0.11836,0.19333 0.42872,0.69248 0.7988,0.37361 3.0702,-2.64534 z m -13.38751,-3.58481 c -1.0647,-3.1286 -1.94808,-5.52779 -1.96307,-5.33154 -0.0397,0.52054 3.60192,11.31734 3.76287,11.15614 0.0748,-0.0749 -0.73509,-2.696 -1.7998,-5.8246 z m 7.57092,4.95098 c -0.34382,-0.0896 -0.90632,-0.0891 -1.25,9.6e-4 -0.34368,0.0901 -0.0624,0.16338 0.62512,0.16285 0.6875,-5.3e-4 0.9687,-0.0742 0.62488,-0.16381 z m -97.10073,-5.75035 c -0.0147,-0.29463 -0.30241,0.50917 -0.63927,1.78621 -0.61083,2.31566 -0.61358,2.31903 -1.02427,1.25079 -0.39725,-1.03329 -0.4042,-1.02068 -0.19687,0.3573 0.11821,0.78562 0.3055,1.58402 0.4162,1.77421 0.20935,0.35966 1.49125,-4.22801 1.44421,-5.16851 z m -12.21008,4.22817 c -0.11423,-0.28481 -0.19879,-0.20012 -0.21561,0.21595 -0.0152,0.37649 0.0694,0.58737 0.18794,0.4686 0.11859,-0.11877 0.13103,-0.42682 0.0276,-0.68455 z m 0.35576,-1.78599 c -0.11422,-0.28481 -0.19879,-0.20012 -0.2156,0.21595 -0.0152,0.37649 0.0694,0.58737 0.18794,0.4686 0.11858,-0.11877 0.13103,-0.42681 0.0276,-0.68455 z m 0.35604,-1.42884 c -0.11422,-0.28482 -0.19879,-0.20013 -0.2156,0.21594 -0.0152,0.3765 0.0694,0.58737 0.18794,0.4686 0.11858,-0.11877 0.13103,-0.42681 0.0276,-0.68454 z m 22.93332,-1.82573 c -0.0297,-1.22726 -0.0848,-1.34686 -0.28787,-0.62478 -0.21512,0.76511 -0.40878,0.45825 -1.35167,-2.14181 -2.27576,-6.27549 -3.71442,-11.15443 -3.5109,-11.90653 0.1815,-0.67072 0.15833,-0.68985 -0.18054,-0.149 -0.44736,0.714 -0.23165,1.67821 1.64395,7.34812 1.25852,3.80447 3.32307,8.99214 3.57856,8.99194 0.0799,-6e-5 0.12869,-0.68313 0.10847,-1.51794 z m -75.68246,-2.35234 -0.24695,-3.03552 -0.0532,2.7679 c -0.0371,1.93136 -0.18808,2.77559 -0.49958,2.79335 -0.24552,0.014 -0.12488,0.15444 0.2681,0.3121 0.39298,0.15766 0.72892,0.26664 0.74653,0.24218 0.0176,-0.0245 -0.0791,-1.41047 -0.21494,-3.08001 z m 119.71378,1.51481 c -0.0808,-0.68744 -0.20967,-1.24984 -0.28639,-1.24978 -0.0767,6e-5 -0.13906,0.56261 -0.13853,1.25011 5.3e-4,0.6875 0.1294,1.2499 0.28639,1.24978 0.15699,-1.3e-4 0.21933,-0.56267 0.13853,-1.25011 z m -124.52594,-0.8949 c -2.9726,-1.55335 -4.16614,-2.45731 -7.17229,-5.43209 -1.98345,-1.96276 -4.51997,-4.8015 -5.63672,-6.30832 -1.96695,-2.654 -2.03269,-2.81588 -2.10228,-5.17695 l -0.0718,-2.43728 -0.12331,2.42156 -0.12332,2.42157 2.24535,3.11251 c 2.6026,3.60776 6.84273,7.99726 9.39225,9.72314 1.90999,1.29296 6.21693,3.53273 6.80102,3.53681 0.19643,0.001 -1.24756,-0.83606 -3.20887,-1.86095 z m 69.33735,0.66961 c -0.0993,-0.24546 -0.18017,-0.0445 -0.17979,0.44657 3.8e-4,0.49107 0.0816,0.6919 0.18048,0.44629 0.0989,-0.24562 0.0986,-0.6474 -6.9e-4,-0.89286 z m 58.71796,0.0572 c 4.0294,-1.71834 7.412,-4.13906 11.3072,-8.09188 3.40234,-3.45267 3.65404,-3.80574 3.6033,-5.05454 -0.0492,-1.21194 -0.0695,-1.23832 -0.20845,-0.27103 -0.46497,3.23735 -7.83649,9.74334 -14.77241,13.0379 -3.51984,1.67192 -3.47883,1.8931 0.0704,0.37955 z m -58.36219,-1.84323 c -0.0993,-0.24546 -0.18017,-0.0445 -0.17979,0.44657 3.7e-4,0.49107 0.0816,0.6919 0.18048,0.44629 0.0989,-0.24561 0.0986,-0.6474 -6.9e-4,-0.89286 z m 11.08226,-0.18032 c -0.0908,-0.34742 -0.17071,-0.14952 -0.17753,0.43977 -0.007,0.58929 0.0675,0.87354 0.16513,0.63167 0.0976,-0.24188 0.10322,-0.72402 0.0124,-1.07144 z m 13.09161,0.0609 c -0.28387,-0.73804 -0.48241,-0.65089 -0.48175,0.21146 3.1e-4,0.40445 0.15419,0.64026 0.34195,0.52401 0.18776,-0.11624 0.25067,-0.4472 0.1398,-0.73547 z m -33.87909,-0.36354 c 0.33721,-0.51552 0.43668,-0.82808 0.22103,-0.69457 -0.41208,0.25512 -1.24255,1.63218 -0.9842,1.63198 0.0825,-6e-5 0.42596,-0.4219 0.76317,-0.93741 z m 10.06099,-1.30308 c -0.0993,-0.24546 -0.18018,-0.0445 -0.1798,0.44657 3.8e-4,0.49107 0.0816,0.6919 0.18048,0.44629 0.0989,-0.24561 0.0986,-0.6474 -6.8e-4,-0.89286 z m 42.58266,-1.81856 c -0.0275,-1.84826 -0.11077,-2.28258 -0.2909,-1.51763 -0.24282,1.03118 -0.10171,4.10722 0.1884,4.107 0.0776,-6e-5 0.12371,-1.16528 0.1025,-2.58937 z m -31.50406,1.47519 c -0.11422,-0.28481 -0.19879,-0.20012 -0.2156,0.21595 -0.0152,0.37649 0.0693,0.58737 0.18794,0.4686 0.11858,-0.11877 0.13103,-0.42681 0.0276,-0.68455 z m 75.26587,-0.50129 c -0.13176,-0.52329 -0.3084,-0.88252 -0.39252,-0.79827 -0.0841,0.0842 -0.0451,0.58133 0.0866,1.10463 0.13177,0.52329 0.3084,0.88251 0.39252,0.79827 0.0841,-0.0842 0.0451,-0.58133 -0.0866,-1.10463 z m -93.82068,0.72394 c -0.11877,-0.11858 -0.42682,-0.13103 -0.68455,-0.0276 -0.28481,0.11422 -0.20012,0.19879 0.21594,0.2156 0.3765,0.0152 0.58738,-0.0693 0.46861,-0.18794 z m 47.35467,-3.29241 c -1.10638,-1.71212 -2.38862,-3.92096 -2.84942,-4.90851 -0.4608,-0.98756 -0.8392,-1.54775 -0.84088,-1.24486 -0.005,0.94714 4.99903,9.26688 5.57374,9.26643 0.0705,-5e-5 -0.77706,-1.40093 -1.88344,-3.11306 z m -39.5227,1.62714 c -0.0993,-0.24546 -0.18017,-0.0445 -0.17979,0.44657 3.7e-4,0.49107 0.0816,0.6919 0.18048,0.44629 0.0989,-0.24561 0.0986,-0.6474 -6.9e-4,-0.89286 z m 22.50718,-0.35218 c -0.11423,-0.28482 -0.19879,-0.20013 -0.21561,0.21594 -0.0152,0.3765 0.0694,0.58737 0.18794,0.46861 0.11858,-0.11877 0.13103,-0.42682 0.0276,-0.68455 z m -87.8654,-1.02598 c -0.0993,-0.24546 -0.18018,-0.0445 -0.1798,0.44657 3.8e-4,0.49107 0.0816,0.6919 0.18048,0.44629 0.0989,-0.24561 0.0986,-0.6474 -6.8e-4,-0.89286 z m 15.22072,0.42053 c -0.10508,-0.40057 -0.2708,-0.64845 -0.36826,-0.55084 -0.19306,0.19336 0.14906,1.27946 0.40297,1.27926 0.086,-7e-5 0.0704,-0.32786 -0.0347,-0.72842 z m 135.41,-0.60049 c -0.13177,-0.52329 -0.3084,-0.88251 -0.39252,-0.79827 -0.0841,0.0842 -0.0451,0.58133 0.0866,1.10463 0.13177,0.52329 0.30841,0.88252 0.39252,0.79827 0.0841,-0.0842 0.0451,-0.58133 -0.0866,-1.10463 z m -84.9059,-0.39965 c -0.0908,-0.34742 -0.17071,-0.14952 -0.17753,0.43977 -0.007,0.58929 0.0675,0.87354 0.16513,0.63167 0.0976,-0.24187 0.10322,-0.72402 0.0124,-1.07144 z m -51.07617,-1.55222 c -0.11422,-0.28482 -0.19879,-0.20013 -0.2156,0.21594 -0.0152,0.3765 0.0693,0.58737 0.18794,0.4686 0.11858,-0.11877 0.13103,-0.42681 0.0276,-0.68454 z m 51.43166,-0.59091 c -0.0908,-0.34742 -0.17071,-0.14952 -0.17753,0.43977 -0.007,0.58929 0.0675,0.87354 0.16513,0.63167 0.0976,-0.24188 0.10322,-0.72402 0.0124,-1.07144 z m 20.82473,1.02754 c -1.2e-4,-0.15888 -0.24414,-0.60066 -0.54227,-0.98172 -0.50264,-0.64247 -0.51144,-0.62145 -0.12103,0.28897 0.42127,0.98235 0.66372,1.23558 0.6633,0.69275 z m 63.10071,-0.54104 c -0.11422,-0.28481 -0.19879,-0.20012 -0.2156,0.21594 -0.0152,0.3765 0.0694,0.58738 0.18794,0.46861 0.11858,-0.11877 0.13103,-0.42682 0.0276,-0.68455 z m -70.59747,-2.19745 c 0.85545,-1.03189 0.85723,-1.04461 0.0506,-0.36118 -0.45986,0.38961 -1.00136,1.03173 -1.20334,1.42694 -0.3878,0.75884 -0.26821,0.64827 1.15276,-1.06576 z m 28.56122,0.77898 c -0.005,-0.62739 -0.0779,-0.68979 -0.3338,-0.28465 -0.18024,0.2854 -0.24837,0.64706 -0.15141,0.80369 0.31017,0.50098 0.49147,0.30704 0.48521,-0.51904 z m 41.67801,-0.01 c -0.11423,-0.28482 -0.19879,-0.20013 -0.2156,0.21594 -0.0152,0.3765 0.0693,0.58737 0.18794,0.4686 0.11858,-0.11877 0.13103,-0.42681 0.0276,-0.68454 z m -30.15691,-0.44549 c -0.0942,-0.491 -0.23299,-0.89268 -0.30831,-0.89262 -0.0753,6e-5 -0.13662,0.40189 -0.13624,0.89296 3.8e-4,0.49107 0.13911,0.89275 0.3083,0.89262 0.16919,-1.3e-4 0.2305,-0.40196 0.13625,-0.89296 z m -53.33178,-2.41664 c -0.33215,-0.30513 -0.37986,-0.24512 -0.20274,0.255 0.12741,0.35971 0.25906,1.16318 0.29255,1.78549 0.0541,1.00509 0.0768,0.97661 0.20274,-0.25501 0.0827,-0.808 -0.0394,-1.55294 -0.29255,-1.78548 z m 19.67327,2.862 c -4e-5,-0.064 -0.44235,-0.5056 -0.9829,-0.98139 l -0.98281,-0.86507 0.86659,0.98148 c 0.80995,0.91734 1.09934,1.14508 1.09912,0.86498 z m 63.05317,-4.07796 c -0.29429,-1.74646 -0.59423,-3.81819 -0.66654,-4.60385 -0.10935,-1.18809 -0.14132,-1.09929 -0.19,0.5277 -0.053,1.77218 0.96042,7.68336 1.26498,7.37833 0.0696,-0.0697 -0.11416,-1.55573 -0.40844,-3.30218 z m 41.70603,0.8099 c 2.86058,-4.03898 5.82366,-11.14737 6.44079,-15.4514 l 0.20486,-1.42873 -0.36195,1.25028 c -2.28742,7.90145 -3.31334,10.39312 -5.90982,14.35322 l -1.71582,2.61695 -0.23473,-1.24982 c -0.22373,-1.19118 -0.23688,-1.17022 -0.28044,0.44664 -0.0251,0.93306 0.0265,1.69641 0.11482,1.69635 0.0883,-7e-5 0.87232,-1.00514 1.74229,-2.23349 z m -82.37427,0.80014 c -0.11422,-0.28481 -0.19879,-0.20012 -0.2156,0.21594 -0.0152,0.3765 0.0693,0.58738 0.18794,0.46861 0.11858,-0.11877 0.13103,-0.42682 0.0276,-0.68455 z m -95.19992,-0.31198 c -0.35299,-0.34983 -0.39398,-0.30877 -0.19977,0.20008 0.13439,0.35212 0.33424,0.55018 0.44412,0.44013 0.10987,-0.11004 -8e-5,-0.39814 -0.24435,-0.64021 z m 69.68825,0.51924 c -0.24561,-0.0989 -0.6474,-0.0986 -0.89286,6.9e-4 -0.24546,0.0993 -0.0445,0.18017 0.44657,0.17979 0.49107,-3.8e-4 0.6919,-0.0816 0.44629,-0.18048 z m 36.21795,-0.95212 c -0.0993,-0.24546 -0.18018,-0.0445 -0.1798,0.44657 3.8e-4,0.49107 0.0816,0.6919 0.18049,0.44628 0.0989,-0.24561 0.0986,-0.64739 -6.9e-4,-0.89285 z m -116.13376,-0.40083 c 0.33721,-0.51551 0.43668,-0.82807 0.22103,-0.69456 -0.41209,0.25512 -1.24255,1.63218 -0.9842,1.63198 0.0825,-6e-5 0.42596,-0.4219 0.76317,-0.93742 z m 9.11051,-0.85591 c -0.42006,-0.58896 -0.8441,-1.07078 -0.94232,-1.0707 -0.0982,8e-5 0.16512,0.48202 0.58518,1.07098 0.42006,0.58896 0.84411,1.07078 0.94232,1.0707 0.0982,-8e-5 -0.16511,-0.48202 -0.58518,-1.07098 z m 90.12516,0.47764 c 0.11043,-0.28844 0.047,-0.61931 -0.14092,-0.73526 -0.18794,-0.11595 -0.34146,0.12009 -0.34115,0.52454 6.7e-4,0.86235 0.19935,0.94919 0.48207,0.21072 z m -7.62504,-0.3627 c -2.3e-4,-0.29464 -0.15609,-0.5356 -0.34635,-0.53545 -0.19026,1.5e-4 -0.25324,0.24127 -0.13995,0.53582 0.1133,0.29456 0.26915,0.53551 0.34635,0.53545 0.0772,-6e-5 0.14017,-0.24118 0.13995,-0.53582 z m 24.17234,-0.26418 c -0.11423,-0.28482 -0.19879,-0.20013 -0.21561,0.21594 -0.0152,0.3765 0.0694,0.58737 0.18794,0.4686 0.11859,-0.11877 0.13104,-0.42681 0.0277,-0.68454 z m 18.93139,-0.92299 c -0.0908,-0.34742 -0.1707,-0.14952 -0.17753,0.43977 -0.007,0.58929 0.0675,0.87354 0.16513,0.63167 0.0976,-0.24187 0.10322,-0.72402 0.0124,-1.07144 z m -28.57507,-0.141 c -0.11423,-0.28482 -0.19879,-0.20013 -0.21561,0.21594 -0.0152,0.3765 0.0694,0.58737 0.18794,0.4686 0.11859,-0.11877 0.13104,-0.42681 0.0276,-0.68454 z m -37.86514,-0.7074 c -0.0993,-0.24546 -0.18017,-0.0445 -0.1798,0.44656 3.8e-4,0.49108 0.0816,0.69191 0.18049,0.44629 0.0989,-0.24561 0.0986,-0.64739 -6.9e-4,-0.89285 z m 105.09534,-0.25964 c -0.0225,-0.85739 -0.0623,-0.89138 -0.31265,-0.26761 -0.15774,0.39297 -0.21698,0.83498 -0.13164,0.98224 0.30292,0.5227 0.4698,0.25428 0.44429,-0.71463 z m 12.61759,-0.85284 c -0.26644,-1.01567 -0.45156,-0.81311 -0.44444,0.48631 0.004,0.78915 0.10481,1.00507 0.31389,0.67451 0.16914,-0.26741 0.22789,-0.78978 0.13055,-1.16082 z m -163.4203,0.45577 c -0.11422,-0.28482 -0.19879,-0.20013 -0.2156,0.21594 -0.0152,0.3765 0.0693,0.58737 0.18794,0.4686 0.11858,-0.11877 0.13103,-0.42681 0.0276,-0.68454 z m 9.63513,-0.3869 c -0.0993,-0.24546 -0.18018,-0.0445 -0.1798,0.44657 3.8e-4,0.49107 0.0816,0.6919 0.18048,0.44629 0.0989,-0.24561 0.0986,-0.6474 -6.8e-4,-0.89286 z m 76.49807,-2.64699 0.94112,-1.07086 -1.01621,0.89234 c -0.94452,0.8294 -2.39377,3.1814 -2.35722,3.82558 0.009,0.15514 0.34792,-0.36104 0.75359,-1.14706 0.40568,-0.78603 1.16111,-1.91103 1.67872,-2.5 z m 6.16627,2.78859 c -0.42157,-0.72368 -0.52306,-0.49187 -0.17773,0.40597 0.12272,0.31908 0.29831,0.50486 0.39019,0.41284 0.0919,-0.092 -0.004,-0.46049 -0.21246,-0.81881 z m -109.59006,0.44848 c -0.24187,-0.0976 -0.72402,-0.10323 -1.07144,-0.0124 -0.34742,0.0908 -0.14952,0.17071 0.43977,0.17754 0.58929,0.007 0.87354,-0.0675 0.63167,-0.16513 z m 86.21804,-1.68492 c -0.11422,-0.28482 -0.19879,-0.20013 -0.2156,0.21594 -0.0152,0.3765 0.0693,0.58737 0.18794,0.46861 0.11858,-0.11877 0.13103,-0.42682 0.0276,-0.68455 z m 7.49227,-0.38524 c -0.0993,-0.24546 -0.18018,-0.0445 -0.1798,0.44656 3.8e-4,0.49108 0.0816,0.69191 0.18049,0.44629 0.0989,-0.24561 0.0986,-0.64739 -6.9e-4,-0.89285 z m 35.37265,-0.73741 c -0.0858,-0.44419 -0.15869,-0.16476 -0.16205,0.62096 -0.003,0.78572 0.0668,1.14915 0.15594,0.80762 0.0891,-0.34153 0.0919,-0.98439 0.006,-1.42858 z m -20.20654,0.90428 c -0.18557,-0.34361 -0.7838,-1.02618 -1.32939,-1.51683 -0.82274,-0.73989 -0.78256,-0.63438 0.23554,0.61838 1.32876,1.63504 1.6215,1.87549 1.09385,0.89845 z m -91.23034,-0.44302 c -0.11422,-0.28482 -0.19879,-0.20013 -0.2156,0.21594 -0.0152,0.37649 0.0693,0.58737 0.18794,0.4686 0.11858,-0.11877 0.13103,-0.42681 0.0276,-0.68454 z m -57.17404,-2.54354 c -0.0873,-0.20955 -0.17108,-0.0289 -0.18626,0.40152 -0.0152,0.43038 -0.1903,0.88325 -0.38916,1.00637 -0.19887,0.12312 -1.84715,-1.11539 -3.66284,-2.75223 -4.45476,-4.01596 -7.32877,-6.00593 -11.7396,-8.12852 l -3.70988,-1.78528 122.14284,-0.0696 c 67.17857,-0.0383 123.13902,0.0166 124.35658,0.12195 1.64074,0.14197 2.25415,0.34304 2.36988,0.77681 0.0859,0.3219 0.17446,0.14329 0.19683,-0.39691 l 0.0407,-0.98218 -125.62496,0.10919 -125.62495,0.10918 2.54656,1.00269 c 6.13896,2.41717 11.04975,5.70413 16.03393,10.73205 l 2.85936,2.88447 0.27483,-1.32426 c 0.15115,-0.72834 0.20343,-1.4957 0.11617,-1.70524 z m 102.76749,2.38136 c -0.11655,-0.30303 -0.28845,-0.4743 -0.38199,-0.38061 -0.0935,0.0937 -0.064,0.34167 0.0656,0.55107 0.3526,0.56953 0.55835,0.45868 0.31637,-0.17046 z m 105.12052,-0.31122 c -0.11423,-0.28481 -0.19879,-0.20012 -0.21561,0.21594 -0.0152,0.3765 0.0694,0.58738 0.18794,0.46861 0.11859,-0.11877 0.13104,-0.42682 0.0276,-0.68455 z m 11.78543,-0.36623 c -0.11422,-0.28482 -0.19879,-0.20013 -0.2156,0.21594 -0.0152,0.3765 0.0694,0.58737 0.18794,0.46861 0.11858,-0.11877 0.13103,-0.42682 0.0276,-0.68455 z m -87.15904,-0.84077 c -0.29662,-0.57251 -0.81063,-1.26576 -1.14225,-1.54055 -0.33162,-0.27479 -0.1812,0.12084 0.33427,0.87916 0.51547,0.75833 0.93735,1.54386 0.9375,1.74561 1.6e-4,0.20176 0.0924,0.27455 0.20504,0.16177 0.11261,-0.11279 -0.038,-0.67348 -0.33456,-1.24599 z m -5.80642,0.068 c 0.12172,-0.31792 0.0617,-0.46123 -0.14062,-0.33595 -0.19408,0.12015 -0.35277,0.3697 -0.35262,0.55453 3.9e-4,0.51373 0.25629,0.40033 0.49324,-0.21858 z m -115.61501,-1.23156 c -0.0993,-0.24546 -0.18018,-0.0445 -0.1798,0.44657 3.8e-4,0.49107 0.0816,0.6919 0.18049,0.44629 0.0989,-0.24561 0.0986,-0.6474 -6.9e-4,-0.89286 z m 134.13914,0.82072 c -0.24561,-0.0989 -0.6474,-0.0986 -0.89285,6.9e-4 -0.24546,0.0993 -0.0445,0.18018 0.44656,0.1798 0.49107,-3.8e-4 0.6919,-0.0816 0.44629,-0.18049 z m 63.01139,-0.59332 c -0.11423,-0.28482 -0.19879,-0.20012 -0.21561,0.21594 -0.0152,0.3765 0.0694,0.58737 0.18794,0.46861 0.11859,-0.11877 0.13104,-0.42682 0.0276,-0.68455 z m 11.07142,-0.009 c -0.11422,-0.28481 -0.19879,-0.20012 -0.2156,0.21594 -0.0152,0.3765 0.0694,0.58737 0.18794,0.46861 0.11858,-0.11877 0.13103,-0.42682 0.0276,-0.68455 z M 505.8258,404.95303 c -0.0181,-0.36973 -1.76918,2.58908 -1.76614,2.98424 0.002,0.19643 0.40206,-0.3426 0.89011,-1.19785 0.48804,-0.85525 0.88226,-1.65912 0.87603,-1.78639 z m 68.27265,2.12665 c 0.4438,-0.56679 0.43116,-0.57942 -0.13495,-0.13474 -0.59455,0.46702 -0.78351,0.76045 -0.48957,0.76022 0.0742,-6e-5 0.35519,-0.28152 0.62452,-0.62548 z m -29.87152,-0.64593 c 0.33721,-0.51552 0.43667,-0.82807 0.22103,-0.69457 -0.41209,0.25513 -1.24256,1.63219 -0.98421,1.63199 0.0825,-7e-5 0.42596,-0.42191 0.76318,-0.93742 z m 71.24864,0.0783 c -0.005,-0.62739 -0.0779,-0.6898 -0.3338,-0.28465 -0.18024,0.2854 -0.24837,0.64706 -0.1514,0.80368 0.31016,0.50099 0.49146,0.30705 0.4852,-0.51903 z m 10.24917,-0.34273 c -0.11422,-0.28481 -0.19879,-0.20012 -0.2156,0.21594 -0.0152,0.3765 0.0694,0.58738 0.18794,0.46861 0.11858,-0.11877 0.13103,-0.42682 0.0276,-0.68455 z m -178.92879,-0.21913 c -0.11423,-0.28481 -0.19879,-0.20012 -0.21561,0.21594 -0.0152,0.3765 0.0694,0.58738 0.18794,0.46861 0.11859,-0.11877 0.13104,-0.42682 0.0277,-0.68455 z m 101.18507,0.56836 c -6e-5,-0.0742 -0.28152,-0.35519 -0.62548,-0.62451 -0.56679,-0.44381 -0.57941,-0.43116 -0.13474,0.13494 0.46702,0.59455 0.76045,0.78352 0.76022,0.48957 z m 149.98752,-4.34432 c 0.59316,-1.51645 1.07051,-2.96324 1.06076,-3.21511 -0.01,-0.25186 -0.49291,0.82426 -1.0737,2.39139 -1.10614,2.98465 -2.11788,4.53246 -2.11888,3.24156 -2.8e-4,-0.36947 -0.0819,-0.59023 -0.18143,-0.49058 -0.0995,0.0997 -0.075,0.70856 0.0544,1.35312 l 0.23532,1.17192 0.47252,-0.84757 c 0.25988,-0.46616 0.95783,-2.08829 1.55099,-3.60473 z m -250.00149,0.44917 c -1.5e-4,-0.19643 -0.15588,-0.11596 -0.34607,0.17883 -0.19018,0.29479 -0.34566,0.6967 -0.34551,0.89313 1.5e-4,0.19643 0.15588,0.11595 0.34606,-0.17884 0.19019,-0.29479 0.34567,-0.6967 0.34552,-0.89312 z m 247.19755,0.10397 c -0.42158,-0.72368 -0.52307,-0.49187 -0.17774,0.40597 0.12273,0.31908 0.29832,0.50486 0.3902,0.41284 0.0919,-0.092 -0.004,-0.46049 -0.21246,-0.81881 z m -38.47327,-0.7114 c 0.32418,-0.63864 0.50906,-1.16111 0.41084,-1.16103 -0.20571,1.6e-4 -1.26681,1.98091 -1.26652,2.3642 2.9e-4,0.3729 0.19375,0.10088 0.85568,-1.20317 z m -206.12806,-2.75908 c -0.14104,-0.23319 -1.8928,1.49628 -2.31951,2.28999 -0.20985,0.39034 0.24663,0.0686 1.01439,-0.71507 0.76776,-0.78362 1.35506,-1.49234 1.30512,-1.57492 z m 238.06455,1.89966 c 0.42127,-0.6757 0.39757,-0.7244 -0.25195,-0.5177 -0.6,0.19095 -0.78794,-0.008 -1.15211,-1.2202 -0.23934,-0.7966 -0.50609,-1.37732 -0.59278,-1.2905 -0.22089,0.22124 0.99293,3.77468 1.28932,3.77445 0.13339,-1e-4 0.45178,-0.33583 0.70752,-0.74605 z m -234.30724,-1.04772 c -0.9001,-0.83558 -1.65664,-1.22715 -2.32236,-1.20199 -0.92619,0.035 -0.91263,0.0549 0.21891,0.32114 0.66345,0.1561 1.6245,0.70141 2.13568,1.2118 0.51117,0.51038 1.01341,0.92356 1.11609,0.91816 0.10267,-0.005 -0.41407,-0.56749 -1.14832,-1.24911 z m 169.68707,-0.26011 c -0.22052,-0.63099 -0.46339,-1.08471 -0.53972,-1.00827 -0.0763,0.0765 0.0416,0.65527 0.26215,1.28626 0.22051,0.631 0.46339,1.08472 0.53972,1.00827 0.0763,-0.0764 -0.0416,-0.65527 -0.26215,-1.28626 z m 34.01384,0.0234 c 0.4438,-0.56679 0.43116,-0.57942 -0.13495,-0.13474 -0.34354,0.26985 -0.62458,0.55132 -0.62452,0.62548 2.3e-4,0.29394 0.29336,0.10453 0.75947,-0.49074 z m 35.20216,-0.3063 c -0.55151,-0.48444 -1.35538,-0.86603 -1.78637,-0.84798 -0.60146,0.0252 -0.52419,0.10782 0.33241,0.35546 0.61383,0.17745 1.31684,0.5642 1.56225,0.85944 0.24542,0.29524 0.54706,0.53164 0.67032,0.52534 0.12327,-0.006 -0.22711,-0.40782 -0.77861,-0.89226 z m -32.84523,-0.71487 c -0.11877,-0.11858 -0.42682,-0.13103 -0.68455,-0.0276 -0.28482,0.11423 -0.20013,0.19879 0.21594,0.21561 0.3765,0.0152 0.58737,-0.0694 0.46861,-0.18794 z m 14.98311,-0.57703 c -0.11423,-0.28481 -0.19879,-0.20012 -0.21561,0.21594 -0.0152,0.3765 0.0694,0.58737 0.18794,0.46861 0.11858,-0.11877 0.13103,-0.42682 0.0276,-0.68455 z m -52.7439,0.10765 c -0.29479,-0.19019 -0.6967,-0.34567 -0.89313,-0.34552 -0.19643,1.6e-4 -0.11595,0.15588 0.17884,0.34607 0.29479,0.19019 0.6967,0.34567 0.89312,0.34551 0.19643,-1.5e-4 0.11595,-0.15587 -0.17883,-0.34606 z m 77.11628,-1.93448 c 0.0226,-0.57421 -0.52704,-0.6246 -6.76109,-0.61979 l -6.78571,0.005 0.0234,0.98213 c 0.0213,0.89199 0.0511,0.91355 0.32487,0.23492 0.28266,-0.70055 0.58781,-0.74988 4.88747,-0.7901 2.5223,-0.0236 5.34875,0.0441 6.28101,0.15043 1.60794,0.18339 1.68569,0.24207 1.51325,1.1423 -0.15358,0.80178 -0.1295,0.83815 0.15521,0.23444 0.18533,-0.393 0.34805,-0.9958 0.36159,-1.33956 z m -78.81317,1.34212 c -0.24561,-0.0989 -0.6474,-0.0986 -0.89286,6.8e-4 -0.24546,0.0993 -0.0445,0.18018 0.44657,0.1798 0.49107,-3.8e-4 0.6919,-0.0816 0.44629,-0.18048 z"
       id="path1339"
       transform="scale(0.26458333)" />
    <path
       style="fill:#ff8080;fill-opacity:1;stroke:#ff8080;stroke-width:0.508886;stroke-miterlimit:4;stroke-dasharray:none;stroke-opacity:1"
       d="m 532.91601,469.54704 c -1.54581,-1.70838 -2.89782,-5.70653 -3.53266,-10.44675 -0.41956,-3.13279 -0.51589,-3.3736 -2.03079,-5.07665 -5.41288,-6.08515 -8.97232,-13.58248 -12.55828,-26.45178 -0.82083,-2.9458 -1.58283,-5.597 -1.69334,-5.89156 -0.11919,-0.31771 -0.44786,0.26362 -0.80801,1.4292 -1.10327,3.57051 -2.71512,5.71638 -4.29471,5.7176 -1.88679,0.001 -3.69884,-2.90235 -4.669,-7.48208 -0.35531,-1.67724 -0.6596,-2.80846 -0.6762,-2.5138 -0.0243,0.43084 -0.0894,0.4425 -0.33252,0.0596 -0.42186,-0.66436 -0.77406,0.29411 -0.52344,1.42447 0.1253,0.56513 0.0795,0.68934 -0.14076,0.38156 -0.24394,-0.34089 -0.4335,-0.22105 -0.74944,0.47377 -0.2326,0.51155 -0.33988,1.06419 -0.23841,1.22809 0.25514,0.41211 -0.18557,1.46923 -0.52516,1.25971 -0.15192,-0.0937 -0.89771,0.89987 -1.6573,2.208 -0.7596,1.30813 -2.13947,3.2127 -3.06638,4.23237 -0.92691,1.01967 -1.56903,1.97661 -1.42693,2.12651 0.1421,0.14991 -0.11361,0.15844 -0.56825,0.0189 -0.59605,-0.18288 -0.79861,-0.12038 -0.72621,0.22405 0.0552,0.26272 -0.365,1.65443 -0.93383,3.09269 -1.77067,4.47707 -4.62248,6.91195 -7.38694,6.307 -1.81778,-0.39778 -4.29953,-3.17082 -5.25854,-5.87575 -1.29351,-3.64843 -1.43087,-3.92747 -1.93301,-3.92708 -0.7764,5.9e-4 -6.1816,-2.72428 -8.38724,-4.2282 -2.46983,-1.68405 -6.79348,-6.11207 -9.19696,-9.41896 -0.96313,-1.32515 -1.86016,-2.40928 -1.9934,-2.40918 -0.13323,1.1e-4 -0.34575,0.78505 -0.47225,1.74431 -0.35607,2.70022 -2.26113,6.14772 -3.87313,7.00905 l -1.33873,0.71532 -1.33984,-0.71326 c -2.35682,-1.25463 -4.35739,-6.32746 -4.37736,-11.0996 l -0.008,-1.81726 -4.02088,-3.91456 c -2.34932,-2.2872 -5.41704,-4.83022 -7.37932,-6.11717 -3.57409,-2.34405 -9.1254,-4.71366 -12.79823,-5.463 -2.18784,-0.44637 -2.22053,-0.47048 -2.09468,-1.54486 0.0703,-0.60028 0.13766,-11.65839 0.14965,-24.57358 l 0.0218,-23.48217 143.92853,-0.11101 143.92853,-0.11102 0.019,24.59821 0.019,24.59821 -1.1159,0.22407 c -0.61375,0.12324 -2.29436,0.22498 -3.7347,0.2261 l -2.61881,0.002 -0.76767,2.58987 c -0.42222,1.42444 -1.31104,3.9071 -1.97515,5.51703 -1.17113,2.83901 -1.20759,3.07561 -1.21076,7.85807 -0.005,8.18069 -0.93498,12.75667 -3.0728,15.12665 -0.70191,0.77813 -1.57333,1.41502 -1.9365,1.4153 -0.36316,2.8e-4 -1.21808,-0.48847 -1.89982,-1.08612 -2.97778,-2.61046 -4.27255,-12.05054 -2.85767,-20.83512 l 0.58463,-3.62981 -1.05577,-3.56135 -1.05577,-3.56134 -4.23762,0.003 -4.23762,0.003 -0.80807,3.6232 c -1.62816,7.30033 -3.76006,12.43119 -7.1062,17.10263 -1.98002,2.76422 -2.00985,2.84323 -2.34869,6.21965 -0.70454,7.02057 -2.10401,11.53875 -4.24061,13.69072 -1.57378,1.5851 -2.39738,1.67006 -3.90565,0.40292 -2.06017,-1.7308 -3.46668,-5.54457 -4.32817,-11.73586 -0.21863,-1.57126 -0.4354,-2.89515 -0.4817,-2.94199 -0.0463,-0.0468 -0.68805,1.4124 -1.42612,3.24274 -1.5829,3.92542 -3.59568,7.48845 -6.59252,11.6701 -1.33193,1.85851 -2.0924,3.24525 -1.95936,3.57294 0.40665,1.00164 0.58661,3.52217 0.34414,4.82016 -0.13515,0.7235 -0.7937,1.90577 -1.49399,2.68211 -2.30134,2.55126 -5.15241,2.73663 -7.63584,0.49648 -1.7488,-1.57748 -2.2995,-3.18967 -2.01763,-5.90668 0.19837,-1.91219 0.0129,-2.72733 -2.12096,-9.32003 -1.28609,-3.9735 -2.91044,-9.39376 -3.60967,-12.04501 -1.19484,-4.53045 -1.91916,-6.36282 -1.91799,-4.85208 2.7e-4,0.35554 -0.51279,1.61124 -1.14013,2.79044 -1.9758,3.71388 -4.59318,4.04944 -6.64259,0.85161 -0.51474,-0.80318 -0.98231,-1.52676 -1.03903,-1.60795 -0.0567,-0.0812 -1.59426,1.3678 -3.41673,3.21998 -4.03888,4.10472 -8.33789,7.09173 -12.7783,8.87853 l -3.34121,1.34449 -0.57663,1.93176 c -2.77668,9.30215 -7.92537,8.21352 -10.04549,-2.12402 -0.76388,-3.72455 -0.91248,-4.08274 -2.62095,-6.31738 -0.64844,-0.84815 -2.01803,-2.92875 -3.04352,-4.62355 l -1.86453,-3.08146 -0.99368,0.95347 c -0.79057,0.75858 -1.26936,0.92888 -2.34245,0.83316 l -1.34879,-0.12032 -1.28253,3.39385 c -1.27493,3.37377 -3.64087,7.98946 -4.30651,8.40156 -0.49753,0.30802 -0.43114,-0.30543 0.0973,-0.89894 0.38101,-0.42795 0.35261,-0.43 -0.19484,-0.0141 -0.35248,0.26781 -0.55485,0.7106 -0.4497,0.98398 0.10515,0.27339 -0.0526,0.86976 -0.35057,1.32527 -0.29796,0.45552 -0.76917,2.33585 -1.04713,4.17853 -0.86297,5.72086 -2.65866,9.73416 -4.86744,10.87853 -1.31305,0.68029 -2.05254,0.64413 -3.38235,-0.16536 -2.10986,-1.28433 -3.71277,-4.9595 -4.6289,-10.61324 -0.31072,-1.91757 -0.98881,-4.26963 -1.64703,-5.71302 -0.61538,-1.34942 -1.97417,-5.02426 -3.01953,-8.16632 -1.5951,-4.7944 -2.00432,-5.69293 -2.54544,-5.58908 -0.35464,0.0681 -0.69658,0.17371 -0.75987,0.2348 -0.0633,0.0611 -0.90104,4.07496 -1.86167,8.91971 -0.96062,4.84476 -1.86762,8.99899 -2.01555,9.23163 -0.14794,0.23264 -0.37959,5.2445 -0.51477,11.13746 -0.25753,11.22567 -0.61653,14.38923 -2.11616,18.64755 -0.95644,2.71593 -2.8456,5.10629 -4.03633,5.10721 -0.50508,3.9e-4 -1.31421,-0.54172 -2.09272,-1.4021 z m 7.94485,-33.60243 c -1.5e-4,-0.19643 -0.17048,-0.35701 -0.3785,-0.35685 -0.20802,1.6e-4 -0.27877,0.16093 -0.15721,0.35726 0.12155,0.19634 0.29187,0.35692 0.37849,0.35686 0.0866,-7e-5 0.15737,-0.16084 0.15722,-0.35727 z m 12.38291,-5.07652 c -0.11422,-0.28481 -0.19879,-0.20012 -0.2156,0.21595 -0.0152,0.37649 0.0693,0.58737 0.18794,0.4686 0.11858,-0.11877 0.13103,-0.42681 0.0276,-0.68455 z m -75.71454,-0.29874 c -0.11422,-0.28481 -0.19879,-0.20012 -0.2156,0.21594 -0.0152,0.3765 0.0693,0.58738 0.18794,0.46861 0.11858,-0.11877 0.13103,-0.42682 0.0276,-0.68455 z m 91.89782,-1.43249 c 0.20994,-0.39302 0.30136,-0.71452 0.20315,-0.71444 -0.0982,7e-5 -0.35035,0.3217 -0.5603,0.71472 -0.20994,0.39302 -0.30136,0.71451 -0.20315,0.71444 0.0982,-8e-5 0.35035,-0.3217 0.5603,-0.71472 z m 2.12847,-4.46593 c -1.5e-4,-0.19643 -0.15588,-0.11595 -0.34607,0.17884 -0.19018,0.29479 -0.34566,0.6967 -0.34551,0.89312 1.5e-4,0.19643 0.15588,0.11596 0.34607,-0.17883 0.19018,-0.29479 0.34566,-0.6967 0.34551,-0.89313 z m -69.03649,-7.33514 c -0.11422,-0.28482 -0.19879,-0.20013 -0.2156,0.21594 -0.0152,0.3765 0.0693,0.58737 0.18794,0.4686 0.11858,-0.11877 0.13103,-0.42681 0.0276,-0.68454 z m -56.32125,-7.56817 c -2.2e-4,-0.29464 -0.18865,-0.53557 -0.41872,-0.53539 -0.23007,1.8e-4 -0.74557,-0.28068 -1.14556,-0.62412 -0.55897,-0.47994 -0.52406,-0.36056 0.15084,0.51584 0.96802,1.25702 1.41407,1.46016 1.41344,0.64367 z m 250.17533,-4.30011 c 0.12125,-0.19652 0.0503,-0.35718 -0.15777,-0.35702 -0.20802,1.6e-4 -0.37809,0.161 -0.37794,0.35743 1.5e-4,0.19643 0.0711,0.35709 0.15777,0.35702 0.0866,-6e-5 0.25669,-0.16091 0.37794,-0.35743 z m -7.86044,-4.27965 c 0.12125,-0.19653 -0.0301,-0.35712 -0.33634,-0.35689 -0.30624,2.4e-4 -0.55667,0.16115 -0.55652,0.35757 1.5e-4,0.19643 0.1515,0.35703 0.33634,0.35689 0.18484,-1.4e-4 0.43527,-0.16105 0.55652,-0.35757 z m -261.61093,-4.79822 c -1.5e-4,-0.19643 -0.25083,-0.35695 -0.55706,-0.35671 -0.30624,2.4e-4 -0.45734,0.16107 -0.33579,0.3574 0.12155,0.19634 0.37223,0.35686 0.55706,0.35671 0.18484,-1.4e-4 0.33595,-0.16097 0.33579,-0.3574 z m 248.74993,-0.19187 c -0.12342,-0.19936 -1.51257,-0.32947 -3.14631,-0.29467 l -2.9253,0.0623 2.14304,0.23541 c 3.4692,0.3811 4.16605,0.38056 3.92857,-0.003 z m 11.42857,-0.009 c 0.12125,-0.19652 0.0597,-0.35719 -0.13669,-0.35704 -0.19643,1.5e-4 -0.45635,0.16107 -0.5776,0.35759 -0.12124,0.19652 -0.0597,0.35719 0.1367,0.35704 0.19643,-1.5e-4 0.45634,-0.16107 0.57759,-0.35759 z m 12.22481,0.13194 c -0.11877,-0.11859 -0.42682,-0.13103 -0.68455,-0.0276 -0.28481,0.11422 -0.20012,0.19879 0.21594,0.2156 0.3765,0.0152 0.58737,-0.0693 0.46861,-0.18794 z"
       id="path1341"
       transform="scale(0.26458333)" />
    <path
       style="fill:#ff8080;fill-opacity:1;stroke:#ff8080;stroke-width:1.01777;stroke-miterlimit:4;stroke-dasharray:none;stroke-opacity:1"
       d="m 532.82867,469.40623 c -1.53097,-1.68908 -2.42111,-4.18453 -3.38976,-9.50294 -0.63258,-3.47321 -1.42968,-5.19571 -3.5858,-7.74874 -3.54706,-4.20003 -7.91887,-13.54171 -10.3884,-22.19792 -1.06451,-3.73132 -2.08414,-7.03831 -2.26586,-7.34887 -0.18172,-0.31057 -1.02546,0.81508 -1.87498,2.50144 -2.61458,5.19014 -6.07646,4.12659 -7.63435,-2.3454 -0.94657,-3.93237 -1.86427,-4.4801 -2.59043,-1.54609 -0.46263,1.86925 -4.55345,7.95733 -6.97957,10.38719 -0.6241,0.62506 -1.7414,2.55481 -2.48289,4.28833 -1.47204,3.44144 -4.44947,6.22807 -6.65634,6.22978 -1.90041,10e-4 -5.07131,-3.5271 -6.18898,-6.88708 -0.78926,-2.37269 -1.4707,-2.98754 -4.96312,-4.47818 -2.9923,-1.27718 -5.66172,-3.3568 -10.2339,-7.97277 l -6.18566,-6.24489 -0.44325,2.37282 c -0.60164,3.22076 -2.98026,6.09114 -5.0489,6.09274 -2.42624,0.002 -4.40974,-3.21354 -5.45,-8.83488 -0.85136,-4.60057 -1.09205,-4.99539 -5.67936,-9.31615 -5.09423,-4.79821 -13.21659,-9.39166 -17.93409,-10.14229 l -2.74123,-0.43617 -0.0192,-24.9087 -0.0192,-24.9087 143.92853,-0.11102 143.92853,-0.11102 0.0193,25 0.0193,24.99999 -3.74999,0.0182 -3.74998,0.0181 -1.67025,4.80746 c -1.13636,3.27077 -1.84344,7.43324 -2.21207,13.02216 -0.73788,11.18718 -2.92809,15.93377 -6.36894,13.80271 -3.10619,-1.92379 -4.8233,-11.01595 -3.67579,-19.46337 0.56237,-4.13984 0.51606,-6.15516 -0.198,-8.61716 l -0.93203,-3.21357 -4.31519,-0.2062 -4.31518,-0.20619 -0.91794,4.1388 c -1.29296,5.82976 -3.25772,10.59924 -6.41464,15.57162 -2.10078,3.30887 -2.81564,5.26792 -3.13113,8.58071 -0.4675,4.90889 -2.10627,10.04541 -3.80455,11.9249 -3.29752,3.64938 -6.99784,-0.95487 -8.41558,-10.47137 l -0.52866,-3.54864 -2.42506,5.24616 c -1.33379,2.88539 -3.5818,6.85888 -4.9956,8.82998 -2.03321,2.8347 -2.48286,4.02036 -2.15116,5.67226 0.558,2.77883 -1.19152,6.79893 -3.39706,7.80589 -3.95768,1.80693 -7.94876,-1.48439 -7.7849,-6.41996 0.0473,-1.42546 -1.16673,-6.60862 -2.69789,-11.51816 -1.53117,-4.90953 -3.13449,-10.30192 -3.56295,-11.98309 -0.69758,-2.73711 -2.14135,-3.62052 -2.13957,-1.30915 3.8e-4,0.49762 -0.77497,1.63459 -1.72299,2.5266 -2.0486,1.92752 -4.04214,1.55719 -5.41657,-1.0062 l -0.94225,-1.75733 -5.09349,4.84579 c -3.48895,3.31929 -6.56066,5.48632 -9.7509,6.87906 -4.37168,1.90853 -4.73358,2.24829 -5.89922,5.53826 -1.51891,4.28708 -3.93657,5.80518 -6.11305,3.83854 -1.38631,-1.25264 -3.6221,-6.76671 -3.62377,-8.93718 -4.9e-4,-0.6294 -1.44674,-3.38352 -3.21389,-6.12028 -1.76716,-2.73676 -3.3361,-5.29725 -3.48654,-5.68999 -0.16672,-0.43526 -0.64279,-0.36517 -1.21926,0.17951 -0.52015,0.49147 -1.60466,0.90429 -2.41001,0.91738 -1.1484,0.0187 -2.25822,1.6759 -5.14482,7.68254 -2.02431,4.21231 -3.89427,8.94463 -4.15548,10.51626 -1.19676,7.20065 -4.60933,11.38369 -7.86718,9.64337 -2.03013,-1.08448 -2.96433,-3.07496 -5.0242,-10.70486 -2.32227,-8.60184 -6.28368,-19.27923 -7.15286,-19.27945 -1.46193,-3e-4 -4.69952,19.9633 -4.99645,30.80924 -0.46956,17.15133 -3.90656,25.71213 -8.35329,20.80616 z"
       id="path1343"
       transform="scale(0.26458333)" />
  </g>
</svg>
