<?xml version="1.0" encoding="UTF-8" standalone="no"?>
<svg
   xmlns:dc="http://purl.org/dc/elements/1.1/"
   xmlns:cc="http://creativecommons.org/ns#"
   xmlns:rdf="http://www.w3.org/1999/02/22-rdf-syntax-ns#"
   xmlns:svg="http://www.w3.org/2000/svg"
   xmlns="http://www.w3.org/2000/svg"
   xmlns:xlink="http://www.w3.org/1999/xlink"
   xmlns:sodipodi="http://sodipodi.sourceforge.net/DTD/sodipodi-0.dtd"
   xmlns:inkscape="http://www.inkscape.org/namespaces/inkscape"
   width="210mm"
   height="297mm"
   viewBox="0 0 210 297"
   version="1.1"
   id="svg3683"
   inkscape:version="1.0.1 (3bc2e813f5, 2020-09-07)"
   sodipodi:docname="houses.svg">
  <defs
     id="defs3677">
    <radialGradient
       inkscape:collect="always"
       xlink:href="#linearGradient3123"
       id="radialGradient3125"
       cx="502.34091"
       cy="-14.867304"
       fx="502.34091"
       fy="-14.867304"
       r="18.521778"
       gradientTransform="matrix(0.17015458,0,0,0.17015456,382.00483,116.50226)"
       gradientUnits="userSpaceOnUse" />
    <linearGradient
       inkscape:collect="always"
       id="linearGradient3123">
      <stop
         style="stop-color:#f50000;stop-opacity:1;"
         offset="0"
         id="stop3119" />
      <stop
         style="stop-color:#f50000;stop-opacity:0;"
         offset="1"
         id="stop3121" />
    </linearGradient>
    <radialGradient
       inkscape:collect="always"
       xlink:href="#linearGradient3123"
       id="radialGradient3141"
       gradientUnits="userSpaceOnUse"
       gradientTransform="matrix(0.17015458,0,0,0.17015456,485.46486,116.12808)"
       cx="502.34091"
       cy="-14.867304"
       fx="502.34091"
       fy="-14.867304"
       r="18.521778" />
    <radialGradient
       inkscape:collect="always"
       xlink:href="#linearGradient3123"
       id="radialGradient3145"
       gradientUnits="userSpaceOnUse"
       gradientTransform="matrix(0.17015458,0,0,0.17015456,384.0628,144.19138)"
       cx="502.34091"
       cy="-14.867304"
       fx="502.34091"
       fy="-14.867304"
       r="18.521778" />
    <radialGradient
       inkscape:collect="always"
       xlink:href="#linearGradient3123"
       id="radialGradient3149"
       gradientUnits="userSpaceOnUse"
       gradientTransform="matrix(0.17015458,0,0,0.17015456,484.52942,145.31391)"
       cx="502.34091"
       cy="-14.867304"
       fx="502.34091"
       fy="-14.867304"
       r="18.521778" />
    <radialGradient
       inkscape:collect="always"
       xlink:href="#linearGradient3123"
       id="radialGradient3153"
       gradientUnits="userSpaceOnUse"
       gradientTransform="matrix(0.17015458,0,0,0.17015456,480.03929,22.209569)"
       cx="502.34091"
       cy="-14.867304"
       fx="502.34091"
       fy="-14.867304"
       r="18.521778" />
    <radialGradient
       inkscape:collect="always"
       xlink:href="#linearGradient3426"
       id="radialGradient3428"
       cx="83.607559"
       cy="49.160294"
       fx="83.607559"
       fy="49.160294"
       r="3.6861086"
       gradientTransform="matrix(1.7607818,-0.04077605,0.05071466,2.1899482,-66.100254,-55.089011)"
       gradientUnits="userSpaceOnUse" />
    <linearGradient
       inkscape:collect="always"
       id="linearGradient3426">
      <stop
         style="stop-color:#b59e0a;stop-opacity:1;"
         offset="0"
         id="stop3422" />
      <stop
         style="stop-color:#b59e0a;stop-opacity:0;"
         offset="1"
         id="stop3424" />
    </linearGradient>
    <radialGradient
       inkscape:collect="always"
       xlink:href="#linearGradient3426"
       id="radialGradient3432"
       cx="135.99834"
       cy="49.403545"
       fx="135.99834"
       fy="49.403545"
       r="3.2469869"
       gradientTransform="matrix(1.3973406,0.21018052,-0.2743226,1.8237757,-40.485155,-69.281639)"
       gradientUnits="userSpaceOnUse" />
    <radialGradient
       inkscape:collect="always"
       xlink:href="#linearGradient3426"
       id="radialGradient3434"
       cx="162.53297"
       cy="49.048454"
       fx="162.53297"
       fy="49.048454"
       r="3.3671486"
       gradientTransform="matrix(1.5801055,0.33124707,-0.4211161,2.0087961,-73.631176,-103.31847)"
       gradientUnits="userSpaceOnUse" />
    <radialGradient
       inkscape:collect="always"
       xlink:href="#linearGradient3426"
       id="radialGradient3430"
       cx="109.62562"
       cy="49.027592"
       fx="109.62562"
       fy="49.027592"
       r="4.2478623"
       gradientTransform="matrix(1.9854762,0.92352534,-0.75051961,1.6135332,-71.237263,-131.3221)"
       gradientUnits="userSpaceOnUse" />
  </defs>
  <sodipodi:namedview
     id="base"
     pagecolor="#ffffff"
     bordercolor="#666666"
     borderopacity="1.0"
     inkscape:pageopacity="0.0"
     inkscape:pageshadow="2"
     inkscape:zoom="0.35"
     inkscape:cx="400"
     inkscape:cy="560"
     inkscape:document-units="mm"
     inkscape:current-layer="layer1"
     inkscape:document-rotation="0"
     showgrid="false"
     inkscape:window-width="1267"
     inkscape:window-height="1040"
     inkscape:window-x="130"
     inkscape:window-y="0"
     inkscape:window-maximized="0" />
  <metadata
     id="metadata3680">
    <rdf:RDF>
      <cc:Work
         rdf:about="">
        <dc:format>image/svg+xml</dc:format>
        <dc:type
           rdf:resource="http://purl.org/dc/dcmitype/StillImage" />
        <dc:title></dc:title>
      </cc:Work>
    </rdf:RDF>
  </metadata>
  <g
     inkscape:label="Layer 1"
     inkscape:groupmode="layer"
     id="layer1">
    <g
       id="g3229"
       transform="matrix(0.99772605,0,0,0.99772605,-488.57628,21.611384)"
       style="display:inline">
      <path
         style="fill:#22272d;fill-opacity:1;stroke:none;stroke-width:0.527814px;stroke-linecap:butt;stroke-linejoin:miter;stroke-opacity:1"
         d="m 461.64745,66.167126 109.33297,-0.377014 -1.131,3.016093 2.26204,0.754028 -3.58158,34.307927 h 1.88503 l -1.50806,9.04824 -0.18852,33.74244 -96.51462,1.13102 4.33557,-35.06196 -0.18851,-26.390727 -9.04828,-13.949364 -5.6551,-0.565531 z"
         id="path1804" />
      <path
         style="fill:#22272d;fill-opacity:1;stroke:none;stroke-width:0.527814px;stroke-linecap:butt;stroke-linejoin:miter;stroke-opacity:1"
         d="m 548.92532,112.16239 1.69655,-23.940146 -1.48242,-43.01185 -2.05208,-25.462671 19.08618,-0.235622 c 0,0 -1.64943,23.657401 -2.02638,24.599927 -0.37702,0.942525 -2.21491,44.110216 -2.21491,44.110216 l -1.31954,26.767726 -11.68734,0.75403 z"
         id="path1810"
         sodipodi:nodetypes="cccccscccc" />
      <path
         style="fill:#666666;stroke:none;stroke-width:0.527814px;stroke-linecap:butt;stroke-linejoin:miter;stroke-opacity:1"
         d="m 467.03078,113.72313 104.6352,-0.93305 -0.93301,30.39087 -102.10271,-0.93305 z"
         id="path1808" />
      <path
         style="fill:none;stroke:#000000;stroke-width:3.98978;stroke-linecap:round;stroke-linejoin:miter;stroke-miterlimit:4;stroke-dasharray:none;stroke-opacity:1"
         d="m 474.46579,123.4727 c -0.087,-0.54393 -0.46093,-1.72434 0,-2.26207 1.5941,-1.85979 4.50568,-0.56734 6.40915,-0.37701 0.31261,0.0313 0.63449,-0.0616 0.94252,0 1.05985,0.21198 1.63358,0.61582 2.8276,0.37701 1.12324,-0.22464 3.89839,-2.63906 4.33563,-2.63906"
         id="path1812" />
      <path
         style="fill:none;stroke:#000000;stroke-width:3.98978;stroke-linecap:round;stroke-linejoin:miter;stroke-miterlimit:4;stroke-dasharray:none;stroke-opacity:1"
         d="m 480.49792,120.64512 c 0,2.7413 -0.0275,-3.34106 0.37702,4.14712 0.21714,4.01667 0.0285,2.45886 -0.18852,5.27814 -0.0199,0.25059 0.0882,0.51869 0,0.75402 -0.22064,0.58834 -0.72881,1.02534 -1.13106,1.50804 -0.66051,0.79261 -1.45893,0.93439 -2.26205,1.50804 -0.30719,0.21941 -1.31954,1.51861 -1.31954,0.56553"
         id="path1814" />
      <path
         style="fill:none;stroke:#000000;stroke-width:3.98978;stroke-linecap:round;stroke-linejoin:miter;stroke-miterlimit:4;stroke-dasharray:none;stroke-opacity:1"
         d="m 480.49792,127.99683 c 2.81335,0.83833 5.15601,2.7618 7.72874,4.14711 0.91506,0.49274 2.62386,0.92733 3.39311,1.69654"
         id="path1816" />
      <path
         style="fill:none;stroke:#000000;stroke-width:3.98978;stroke-linecap:round;stroke-linejoin:miter;stroke-miterlimit:4;stroke-dasharray:none;stroke-opacity:1"
         d="m 494.07029,125.16925 c 7.58144,-4.26453 0.0291,-0.21884 4.52417,-2.26206 0.20621,-0.0938 0.35058,-0.30538 0.56549,-0.37702 1.15508,-0.38501 3.12546,2.1648 3.58161,2.07357 3.8779,-0.77559 6.89653,-3.73104 10.3678,-5.46666"
         id="path1818" />
      <path
         style="fill:none;stroke:#000000;stroke-width:3.98978;stroke-linecap:round;stroke-linejoin:miter;stroke-miterlimit:4;stroke-dasharray:none;stroke-opacity:1"
         d="m 504.06108,124.41522 c 4.03689,5.38249 1.10957,1.56787 7.35172,9.23676 0.50798,0.62408 0.99846,1.26227 1.50802,1.88505 0.0562,0.0688 0.26797,0.14882 0.18852,0.18852 -0.16857,0.0844 -0.37702,0 -0.56556,0"
         id="path1820" />
      <path
         style="fill:none;stroke:#800000;stroke-width:3.98978;stroke-linecap:round;stroke-linejoin:miter;stroke-miterlimit:4;stroke-dasharray:none;stroke-opacity:1"
         d="m 515.74844,126.86581 c 2.54859,0.16098 5.02273,-0.0622 7.5402,-0.37702 0.18712,-0.0233 0.3969,0.0844 0.56549,0 0.8664,-0.43323 -0.24258,-0.37701 0.37701,-0.37701"
         id="path1824" />
      <path
         style="fill:none;stroke:#800000;stroke-width:3.98978;stroke-linecap:round;stroke-linejoin:miter;stroke-miterlimit:4;stroke-dasharray:none;stroke-opacity:1"
         d="m 521.02657,120.26811 c -0.22638,0.94434 -0.56555,1.85086 -0.56555,2.82757"
         id="path1826" />
      <path
         style="fill:none;stroke:#000000;stroke-width:3.98978;stroke-linecap:round;stroke-linejoin:miter;stroke-miterlimit:4;stroke-dasharray:none;stroke-opacity:1"
         d="m 519.33002,131.38992 c 2.82323,1.0587 0.70659,0.3571 5.27814,1.31953 3.71107,0.78128 2.21329,0.75403 3.77008,0.75403"
         id="path1828" />
      <path
         style="fill:none;stroke:#000000;stroke-width:3.98978;stroke-linecap:round;stroke-linejoin:miter;stroke-miterlimit:4;stroke-dasharray:none;stroke-opacity:1"
         d="m 539.31157,122.90719 c -2.18215,1.74568 -1.18832,0.85465 -4.33563,4.71262 -0.85005,1.04199 -1.61052,2.15454 -2.45058,3.20459 -0.65179,0.81474 -1.73209,1.91885 -1.31954,2.07357 2.51689,0.94382 5.46567,1.23739 8.10575,1.69654 0.49557,0.0862 2.33865,0.48888 2.82756,0"
         id="path1832" />
      <path
         style="fill:none;stroke:#000000;stroke-width:3.98978;stroke-linecap:round;stroke-linejoin:miter;stroke-miterlimit:4;stroke-dasharray:none;stroke-opacity:1"
         d="m 551.75288,127.80831 c -0.008,-2.29903 8.82806,-4.32336 9.23673,-5.08962 0.45039,-0.8445 0.75405,-1.75939 1.13107,-2.63908"
         id="path1834" />
      <path
         style="fill:none;stroke:#000000;stroke-width:3.98978;stroke-linecap:round;stroke-linejoin:miter;stroke-miterlimit:4;stroke-dasharray:none;stroke-opacity:1"
         d="m 557.40803,130.63589 c 1.93121,0.3987 6.0338,0.5688 7.16323,2.82757"
         id="path1836" />
      <path
         style="fill:none;stroke:#000000;stroke-width:1.59591;stroke-linecap:butt;stroke-linejoin:miter;stroke-miterlimit:4;stroke-dasharray:none;stroke-opacity:1"
         d="m 549.13945,45.210394 c 2.66583,0 15.19541,-0.799771 15.19541,-0.799771"
         id="path1838" />
      <path
         style="fill:none;stroke:#000000;stroke-width:1.59591;stroke-linecap:butt;stroke-linejoin:miter;stroke-miterlimit:4;stroke-dasharray:none;stroke-opacity:1"
         d="m 551.27213,75.867834 10.93004,-0.266577"
         id="path1840" />
      <path
         style="fill:none;stroke:#000000;stroke-width:1.59591;stroke-linecap:butt;stroke-linejoin:miter;stroke-miterlimit:4;stroke-dasharray:none;stroke-opacity:1"
         d="m 552.60507,97.461355 9.3305,-1.332925"
         id="path1842" />
      <path
         style="fill:none;stroke:#000000;stroke-width:0.527814px;stroke-linecap:butt;stroke-linejoin:miter;stroke-opacity:1"
         d="m 547.08737,19.747723 2.05208,25.462671 2.13264,30.65744 1.33298,21.593521 0.46735,15.455045"
         id="path1844"
         sodipodi:nodetypes="ccccc" />
      <path
         style="fill:none;stroke:#000000;stroke-width:0.527814px;stroke-linecap:butt;stroke-linejoin:miter;stroke-opacity:1"
         d="m 566.17355,19.512101 -1.83867,24.898522 -2.13269,31.190634 -0.2666,20.527173 -0.9459,16.88223"
         id="path1846"
         sodipodi:nodetypes="ccccc" />
      <path
         style="fill:none;stroke:#000000;stroke-width:1.99489;stroke-linecap:butt;stroke-linejoin:miter;stroke-miterlimit:4;stroke-dasharray:none;stroke-opacity:1"
         d="m 547.08737,19.747723 19.08618,-0.235622"
         id="path1848"
         sodipodi:nodetypes="cc" />
      <path
         style="fill:none;stroke:#000000;stroke-width:0.527814px;stroke-linecap:butt;stroke-linejoin:miter;stroke-opacity:1"
         d="m 570.73287,143.18109 c -0.0425,-0.0212 -0.64852,-0.11531 -0.66647,-0.13326 -0.0315,-0.0313 0.0397,-0.11331 0,-0.13326 -0.3199,-0.15999 -0.87973,0.15999 -1.19963,0 -0.14323,-0.0716 -0.25666,-0.1949 -0.39989,-0.2666 -0.0794,-0.0397 -0.18712,0.0397 -0.26658,0 -0.11231,-0.0562 -0.14722,-0.22688 -0.26658,-0.26657 -0.11989,-0.0399 -0.28,0.0399 -0.39989,0 -0.6884,-0.22942 -1.93975,-0.27849 -2.66585,-0.13326 -0.1949,0.0389 -0.34466,0.20376 -0.53318,0.26659 -0.23994,0.08 -0.55984,-0.08 -0.79977,0 -0.0596,0.02 -0.0736,0.11331 -0.13326,0.13326 -0.47618,0.1588 -1.21764,0 -1.7328,0 -2.08813,0 -6.48993,0.32485 -8.26418,-0.26657 -0.38336,-0.12788 -1.05307,0 -1.46623,0 -1.1249,0 -3.54695,-0.1969 -4.53197,0 -0.42838,0.0856 -0.7329,0.13326 -1.19964,0.13326 -1.73281,0 -3.46563,0 -5.19845,0 -0.67664,0 -1.47735,0.13106 -2.13267,0 -0.31067,-0.062 -0.45815,-0.13326 -0.79977,-0.13326 -1.9361,0 -4.11133,0.24411 -5.9982,-0.13326 -0.20164,-0.0403 -0.75131,-0.0607 -0.93305,0 -0.0597,0.0199 -0.0722,0.1173 -0.13326,0.13326 -0.62069,0.1552 -2.2922,0.26133 -2.93244,0.13326 -0.72365,-0.14483 -1.39942,-0.32368 -2.1327,-0.53318 -0.30316,-0.0866 -1.11429,-0.083 -1.46622,-0.13326 -1.18473,-0.16916 -1.78974,0.34266 -2.93245,0.53318 -0.48707,0.0812 -1.10551,0 -1.59952,0 -1.01115,0 -1.99056,0.0473 -2.93245,-0.2666 -0.20771,-0.0692 -4.652,-0.10334 -5.06517,0 -0.0608,0.016 -0.0712,0.12328 -0.13325,0.13326 -0.21914,0.0365 -0.44433,0 -0.66648,0 -0.17774,0.0443 -0.35343,0.0974 -0.53317,0.13326 -0.97169,0.1943 -2.81724,0 -3.8655,0 -0.53786,0 -1.34144,-0.13127 -1.86612,0 -0.72241,0.18053 -2.24656,0.29704 -3.06574,0.13326 -1.0069,-0.20139 -2.0717,-0.46759 -3.06575,-0.66648 -0.9767,-0.1953 -2.90318,0 -3.99879,0 -0.4477,0 -2.10026,-0.14941 -2.39928,0 -0.26165,0.13087 -0.6067,0.34542 -0.93305,0.39988 -0.93012,0.155 -2.12729,0 -3.06574,0 -0.32134,0 -0.46753,0.0778 -0.79978,0.13326 -1.00093,0.16677 -2.13205,-0.0331 -3.06574,-0.2666 -0.73083,-0.18273 -4.27405,0 -5.06515,0 -0.57225,0 -1.05986,-0.0253 -1.59952,-0.13326 -0.36488,-0.073 -0.84589,0.1179 -1.19962,0 -0.22565,-0.0752 -0.43627,-0.20894 -0.66648,-0.2666 -0.50289,-0.12567 -1.45744,-0.071 -1.8661,0.13326 -0.53291,0.26632 -3.41243,-0.16258 -4.39869,0.13326 -0.35102,0.10533 -0.71108,0.17775 -1.0666,0.2665 -0.0842,-0.25263 -0.12588,-0.51139 -0.19993,-0.73312 -0.0533,-0.15999 0.0533,-0.37319 0,-0.53318 -0.0199,-0.0596 -0.10533,-0.077 -0.13326,-0.13326 -0.12528,-0.25039 0.10294,-1.15741 0,-1.46622 -0.14503,-0.43534 -0.12708,-1.18337 -0.0666,-1.66617 0.0431,-0.34422 0.1576,-0.87267 0.2666,-1.19965 0.0427,-0.12847 -0.0247,-0.34304 0,-0.46652 0.006,-0.0307 0.0566,-0.0369 0.0666,-0.0666 0.0991,-0.29758 0,-0.8199 0,-1.133 0,-0.1554 0.0491,-0.3189 0,-0.46652 -0.0253,-0.076 -0.10374,-0.12548 -0.13326,-0.19993 -0.0888,-0.22217 0.0475,-0.56344 0,-0.79977 -0.13346,-0.66783 -0.008,0.5229 -0.13326,-0.59981 -0.0311,-0.28209 0.0555,-0.58913 0,-0.86642 -0.0287,-0.14363 -0.25894,-0.29197 -0.13326,-0.46652 -0.0291,-0.26089 0.0433,-0.54104 0,-0.79975 -0.0202,-0.12149 -0.10852,-0.27562 -0.13326,-0.3999 -0.0385,-0.1939 0.0836,-0.8742 0,-0.99968 -0.0347,-0.0523 -0.0983,-0.081 -0.13326,-0.13326 -0.0718,-0.10752 0,-0.67349 0,-0.79977 0,-0.64608 0.10074,-1.59515 0,-2.19932 -0.0265,-0.15959 -0.10692,-0.30694 -0.13326,-0.46653 -0.0217,-0.12927 0.0259,-0.27162 0,-0.39989 -0.1921,-0.96076 0.0934,0.57353 -0.19998,-0.59983 -0.0455,-0.18253 0,-0.47773 0,-0.66645 0,-0.53445 0.0876,-1.14116 0,-1.66617 -0.0377,-0.22634 -0.14743,-0.55719 -0.0666,-0.79975 0.11331,-0.34195 0.25714,-1.02819 0.13326,-1.39958 -0.0531,-0.15919 -0.13246,-0.19829 -0.19993,-0.33324 -0.0405,-0.081 -0.2287,-0.78084 -0.2666,-0.93305 -0.0836,-0.33455 0.0836,-0.73181 0,-1.06635 -0.0459,-0.18413 -0.154,-0.34905 -0.19995,-0.53317 -0.16996,-0.6797 0.39477,-0.97926 0.53322,-1.53288 0.0995,-0.3987 -0.28936,-0.53469 -0.39988,-0.8664 -0.11191,-0.33528 0.0443,-0.8051 -0.0666,-1.133 1.13705,-0.10154 2.3901,0.22523 3.46564,-0.13325 0.16857,-0.0563 0.36457,0.0563 0.53318,0 0.0421,-0.014 -0.0369,-0.10873 0,-0.13326 0.48302,-0.32204 0.26009,-0.0317 0.66647,-0.13326 0.64365,-0.16099 -0.006,-0.0632 0.39988,-0.2666 0.17136,-0.0856 1.84926,-0.13326 2.13269,-0.13326 0.74055,0 1.69418,0.19849 2.39928,0.39988 0.2881,0.0824 0.64103,-0.073 0.93305,0 0.2017,0.0505 0.46476,0.21616 0.66647,0.26658 0.74,0.18492 2.53217,-0.13326 3.33232,-0.13326 0.55566,0 2.71379,-0.16179 3.19905,0 0.84734,0.28243 1.65522,0.49098 2.53257,0.66645 0.92525,0.18513 1.78313,-0.25275 2.66587,-0.39988 1.22574,-0.20429 2.89534,0 4.13209,0 0.66646,0 1.33462,-0.0475 1.9994,0 1.19392,0.0854 2.36185,0.6748 3.59892,0.39988 0.64341,-0.14303 1.24555,-0.51133 1.8661,-0.66645 0.81148,-0.20288 3.2857,0 4.26539,0 0.70843,0 3.14241,0.19649 3.7322,0 0.18852,-0.0628 0.33921,-0.22349 0.53318,-0.2666 0.20954,-0.0465 0.94021,0.0866 1.19964,0 0.15201,-0.0507 0.24585,-0.22257 0.39988,-0.26658 0.62496,-0.17854 2.18181,0 2.93244,0 1.9994,0 3.9988,0 5.9982,0 1.50075,0 4.06307,-0.20028 5.46504,0 0.48907,0.0698 0.98071,0.0638 1.46622,0.13326 0.57291,-0.27817 0.14742,0.22686 0.26658,0.2666 0.38288,0.12767 1.20092,0 1.59952,0 1.5551,0 3.11017,0 4.66527,0 0.44474,0 1.40961,-0.18253 1.8661,0 0.18453,0.0738 0.34869,0.19271 0.53317,0.26658 0.45967,0.18392 1.44574,-0.0281 1.86612,-0.13326 0.33022,-0.0826 0.74463,0.10732 1.06635,0 0.72804,-0.24268 1.49323,-0.43658 2.26598,-0.53318 0.17774,-0.0221 0.79977,0.0295 0.93304,0 0.23359,-0.0519 0.4329,-0.21469 0.66648,-0.26659 0.26023,-0.0579 0.55224,0.0989 0.79975,0 0.14882,-0.0594 0.2479,-0.21593 0.39989,-0.26658 0.25844,-0.0862 1.0626,-0.0451 1.33293,0 0.92607,0.1544 1.85329,0.41494 2.79915,0.53317 1.60568,0.20071 4.26064,0 5.86491,0 1.24446,0 6.03839,0.20875 6.66467,0 0.37843,-0.12607 0.79704,-0.19949 1.19965,-0.26659 0.32383,-0.0541 2.16978,-0.11471 2.39927,0 0.014,0.008 0.16079,0.21371 0.26658,0.26659 0.27473,0.13745 1.94743,0 2.26599,0 1.40482,0 3.03215,0.20835 4.39863,-0.13326 0.37161,0.61132 0.33544,1.13933 0.53322,1.73265 0.20715,0.62142 -0.49498,3.31285 -0.66648,3.99879 -0.0886,0.35405 0,0.83865 0,1.19963 0,1.41515 0.27825,4.77526 -0.26657,5.86491 -0.10653,0.2129 0.15879,0.77428 0,0.93305 -0.2758,0.2758 0.01,-0.42144 -0.2666,0.13326 -0.13007,0.26019 0,1.78746 0,2.1327 0,1.40195 -0.13565,2.92014 0.13326,4.26537 0.12069,0.60296 0,1.39174 0,1.9994 0,1.05172 0.17276,2.2954 0,3.33234 -0.14184,0.85042 -0.26658,1.54704 -0.26658,2.39927 0,0.35571 0.16697,1.3988 0,1.73283 -0.0946,0.18891 -0.13326,-0.26927 -0.13346,0.66659 z"
         id="path1852" />
      <path
         style="fill:#22272d;fill-opacity:1;stroke:#000000;stroke-width:0.527814px;stroke-linecap:butt;stroke-linejoin:miter;stroke-opacity:1"
         d="m 461.64745,66.167126 c -0.22354,0.519768 0.0884,0.820997 0.18493,1.303241 0.1957,0.978214 0,2.656435 0,3.732219 0,0.106926 -0.0321,1.152866 -0.18493,0.619692 0.2838,0.01596 0.57006,0.006 0.85138,0.04668 0.13905,0.01995 0.26127,0.110118 0.39988,0.133258 0.83446,0.139044 2.27583,-0.263305 3.06574,0 0.1201,0.0401 0.71529,0.224345 0.79976,0.266597 0.0563,0.02813 0.0888,0.08877 0.13325,0.133259 0.0445,0.04449 0.077,0.105131 0.13326,0.133258 0.63647,0.318245 3.66822,-0.4212 4.53197,-0.133258 0.49477,0.164977 0.93999,0.382819 1.46623,0.533174 0.34475,0.09855 0.82957,0 1.19964,0 1.13996,0 2.33035,-0.103136 3.46562,0 1.55606,0.141438 3.09974,0.133259 4.66527,0.133259 0.59434,0 1.28401,0.09695 1.8661,0 0.64154,-0.106927 1.25555,-0.380526 1.8661,-0.533175 0.79698,-0.199289 3.23579,0 4.1321,0 0.90699,0 1.90236,0.128072 2.79916,0 0.44856,-0.06404 0.88206,-0.221492 1.33293,-0.266577 1.1857,-0.118496 2.41703,0.147622 3.59892,0 0.23741,-0.02972 0.43046,-0.227257 0.66647,-0.266597 1.52332,-0.253889 3.06192,0.189914 4.53197,0.399876 0.84416,0.120691 2.9839,0.110118 3.8655,0 0.42489,-0.05306 0.80376,-0.18732 1.19965,-0.266577 1.16758,-0.233522 2.40272,-0.266597 3.59892,-0.266597 2.39456,0 4.69471,0.236953 7.06454,0.533174 0.22043,0.02753 0.44863,-0.04349 0.66647,0 0.37225,0.07441 0.69805,0.307811 1.06633,0.399895 0.16737,0.04189 0.3659,-0.04189 0.53317,0 0.0964,0.02414 0.17775,0.08877 0.2666,0.133259 0.17774,0.04449 0.35248,0.103136 0.53317,0.133259 0.7733,0.12887 2.17637,0.107923 2.93245,0 0.82547,-0.117898 1.3436,-0.322753 2.1327,-0.533174 3.33334,-0.888883 0.32979,-0.09117 1.7328,-0.266577 0.42409,0.277888 0.61285,-0.220855 0.93307,-0.266597 0.30789,-0.04409 0.64427,0.115504 0.93305,0 0.14882,-0.05945 0.2479,-0.215927 0.39987,-0.266578 0.65566,-0.21856 1.58055,0.08578 2.266,0 0.88342,-0.110516 0.1953,-0.119094 0.93305,-0.266597 0.4694,-0.09396 0.99212,0.06783 1.46622,0 0.55073,-0.0786 1.05286,-0.33155 1.59952,-0.399875 0.73895,-0.09236 1.53174,0.122287 2.26598,0 1.42712,-0.237851 2.93594,-0.133259 4.39869,-0.133259 2.22155,0 4.4431,0 6.66467,0"
         id="path1854" />
      <path
         style="fill:none;stroke:#000000;stroke-width:0.527814px;stroke-linecap:butt;stroke-linejoin:miter;stroke-opacity:1"
         d="m 562.86864,70.935989 c 1.29648,-0.843799 2.71159,-1.523916 4.13211,-2.132697 0.43888,-0.188118 2.28818,-0.006 2.84867,0.004"
         id="path1856" />
      <path
         style="fill:none;stroke:#000000;stroke-width:0.527814px;stroke-linecap:butt;stroke-linejoin:miter;stroke-opacity:1"
         d="m 461.64745,66.167126 c 0.10593,-0.232046 0.13506,-0.518572 0.31817,-0.696157 0.0443,-0.04289 1.98198,0 2.26601,0 1.29921,0 3.4375,-0.204635 4.66525,0 0.2666,0.04449 0.54337,0.04788 0.79979,0.133259 0.0597,0.01995 0.0888,0.08877 0.13326,0.133258 0.13326,0.04449 0.26211,0.10573 0.39986,0.133259 0.29907,0.05985 0.63401,-0.05985 0.93307,0 0.0616,0.01197 0.0722,0.118098 0.13326,0.133259 0.7934,0.198292 2.6673,0 3.46564,0 17.28944,0 34.55348,-0.133259 51.85106,-0.133259 5.4206,0 10.84121,0 16.2618,0 1.5551,0 3.11015,0 4.66525,0 0.45609,0 1.59859,0.200427 1.99942,0 0.18413,-0.09216 0.31014,-0.266577 0.53319,-0.266577"
         id="path1860" />
      <path
         style="fill:none;stroke:#000000;stroke-width:0.527814px;stroke-linecap:butt;stroke-linejoin:miter;stroke-opacity:1"
         d="m 563.13524,65.337671 c 2.17714,0 4.35426,0 6.53138,0 0.12209,0 1.06087,-0.346772 1.19963,-0.133259 0.10832,0.166773 0.076,0.3905 0.11411,0.58574"
         id="path1862" />
      <path
         style="fill:none;stroke:#000000;stroke-width:0.527814px;stroke-linecap:butt;stroke-linejoin:miter;stroke-opacity:1"
         d="m 570.98042,65.790112 c 0.12727,0.984039 -0.54169,2.114423 -1.131,3.016093"
         id="path1864" />
      <path
         style="fill:none;stroke:#000000;stroke-width:0.527814px;stroke-linecap:butt;stroke-linejoin:miter;stroke-opacity:1"
         d="m 467.30245,72.387809 c 0.13166,0.360257 0.18911,0.757021 0.3948,1.080752 0.20217,0.318244 0.5493,0.517973 0.79976,0.799771 0.98441,1.107483 -0.82804,-0.561482 0.79973,1.066328 0.0317,0.03132 0.10194,-0.03132 0.13326,0 0.32919,0.329217 0.69152,1.197013 0.93301,1.599522 0.22259,0.37089 0.59996,0.666732 0.79979,1.066348 0.18772,0.375359 -0.22431,0.0774 0.26661,0.666473 0.50982,0.611793 0.38344,0.708505 0.79973,1.332925 0.14344,0.215109 0.41989,0.439853 0.53316,0.666473 0.10693,0.213912 0.11131,0.47235 0.2666,0.666473 1.24004,1.550009 2.69417,2.750812 3.33236,4.665248 0.0766,0.23019 -0.0397,0.561601 0,0.799771 -0.12428,0.2965 0.2041,0.549951 0.26654,0.799751 0.072,0.288142 -0.0936,0.652229 0,0.93307 0.60233,1.806931 0.39991,3.912177 0.39991,5.864895 0,0.594796 0.11471,1.29191 0,1.866099 -0.1957,0.977835 -0.36871,1.945735 -0.53319,2.932468 -0.28068,1.684084 0.18871,3.500054 0,5.198424 -0.0395,0.35603 -0.063,0.71509 -0.13326,1.06635 -0.0385,0.1929 -0.22802,0.47348 -0.26662,0.66647 -0.0924,0.46164 -0.097,5.51266 0,5.73162 0.13186,0.29801 0.29638,0.58057 0.44454,0.87086"
         id="path1866" />
      <path
         style="fill:none;stroke:#000000;stroke-width:0.527814px;stroke-linecap:butt;stroke-linejoin:miter;stroke-opacity:1"
         d="m 572.11146,69.560233 c -0.7401,3.791068 -0.0179,7.68593 -0.31214,11.506043 -0.0449,0.582688 -0.2181,1.150433 -0.2666,1.732821 -0.0369,0.442766 0.0443,0.890818 0,1.332926 -0.12847,1.28393 -0.48491,2.594493 -0.66647,3.865497 -0.0417,0.290954 -0.225,0.642115 -0.2666,0.933069 -0.19609,1.373182 0.22295,2.130403 -0.26659,3.59892 -0.0788,0.236574 0.0491,0.553921 0,0.799752 -0.16757,0.837793 -0.11092,-0.0786 -0.39988,0.933049 -0.20168,0.705872 -0.12348,1.575265 -0.39987,2.265995 -0.16338,0.408633 -0.58899,0.868016 -0.66648,1.332925 -0.0491,0.295324 0.0592,0.637048 0,0.93305 -0.1175,0.587296 -0.14901,1.145466 -0.26653,1.73282 -0.0321,0.16059 -0.11471,2.703 0,2.93245 0.0858,0.17176 0.0497,-0.25158 0.26653,0.39987 0.0199,0.0597 0.1961,0.13167 0.13326,0.13326 -0.16218,0.004 -0.31351,-0.083 -0.47027,-0.12448 0.30085,0.70585 0.87164,0.0983 1.2701,0.25782 0.54345,0.21738 0.70059,0.61427 0.61499,-0.25786 0.12069,1.45051 0.15301,2.17148 -0.61499,3.32361 -0.066,0.0989 -0.22676,0.97338 -0.26659,1.06635 -0.12548,0.29288 -0.43493,0.63832 -0.53318,0.93304 -0.10094,0.30283 -10e-4,0.26904 -0.13326,0.53318 -0.20264,0.40526 0,1.40654 0,1.8661 0,0.50726 -0.13864,1.05821 0.0399,1.32596"
         id="path1868" />
      <path
         style="fill:none;stroke:#000000;stroke-width:0.527814px;stroke-linecap:butt;stroke-linejoin:miter;stroke-opacity:1"
         d="m 473.16225,142.51448 c -0.76893,0.64923 -0.56271,1.79196 -0.93303,2.53259 -0.16378,0.32752 0.1171,0.84856 0,1.19962 -0.012,0.0367 -0.12148,0.78801 -0.13325,0.79978 -0.0311,0.0313 -0.13965,-0.0439 -0.13326,0 0.0375,0.25779 0.16079,0.49559 0.24106,0.74339"
         id="path1870" />
      <path
         style="fill:none;stroke:#000000;stroke-width:0.527814px;stroke-linecap:butt;stroke-linejoin:miter;stroke-opacity:1"
         d="m 568.71831,146.65884 c 0.13845,0.0848 0.33036,0.39269 0.41512,0.25433 0.0848,-0.13845 -0.37576,-0.097 -0.41512,-0.25433 -0.0686,-0.27434 0.28908,-2.30001 0.41512,-2.67814 0.0221,-0.0666 -0.0263,-0.79756 0,-0.79975 0.53124,-0.0443 1.06625,6e-5 1.59934,1e-4"
         id="path1874" />
      <path
         style="fill:#22272d;fill-opacity:1;stroke:none;stroke-width:0.520769px;stroke-linecap:butt;stroke-linejoin:miter;stroke-opacity:1"
         d="m 459.46356,182.24415 -0.30235,66.4198 h 116.15907 l 0.85336,-64.53475 z"
         id="path2661"
         sodipodi:nodetypes="ccccc" />
      <path
         style="fill:#3d4550;fill-opacity:1;stroke:none;stroke-width:0.520769px;stroke-linecap:butt;stroke-linejoin:miter;stroke-opacity:1"
         d="m 491.21015,190.91537 0.73405,57.68259 23.12181,0.18852 1.10101,-58.4366 z"
         id="path2663" />
      <path
         style="fill:none;stroke:#000000;stroke-width:0.520769px;stroke-linecap:butt;stroke-linejoin:miter;stroke-opacity:1"
         d="m 575.32028,248.66395 c 0.0854,-0.77523 0.24884,-2.56146 0.30283,-2.89357 0.12487,-0.76976 0,-1.66742 0,-2.45056 v -5.84365 -10.93331 c 0,-1.51601 -0.24302,-3.21482 0,-4.71263 0.23069,-1.42249 0.36702,-2.47683 0.36702,-3.95861 v -7.7287 c 0,-0.84628 -0.008,-2.52348 0.27527,-3.39309 0.0274,-0.0844 -0.0612,-0.12568 0,-0.18852 v -0.75401 c 0.0291,-0.17954 -0.0437,-0.83023 0,-0.94254 0.0643,-0.16498 -0.0959,-0.22918 0,-0.377 0.19746,-0.30426 -0.11671,-0.96002 0,-1.31954 0.61274,-1.88824 0.41668,-3.89203 0,-6.03216 -0.19905,-1.01827 0.20605,-2.14594 0,-3.20459 -0.0416,-0.21372 0.0796,-0.69724 0,-0.94253 -0.19948,-0.6147 0.27384,-1.13395 0,-1.69655 -0.0821,-0.16857 0.0821,-0.39694 0,-0.56551 -0.22628,-0.46489 0.17265,-0.78769 0,-1.31954 -0.11302,-0.34815 -0.87201,-3.41521 -0.82579,-3.58159 0.16546,-0.59503 0.48936,-1.13102 0.73403,-1.69653 -0.85597,0.87927 -2.24876,0.1548 -3.30312,0 -1.1432,-0.16777 0.86614,0.43129 -1.10105,-0.37702 -0.70044,-0.28782 -4.37096,0 -5.32168,0 h -11.37741 -18.90115 -7.70727 c -0.70927,0 -2.89546,0.2429 -3.48663,0 -0.20474,-0.0842 -0.35324,-0.27567 -0.55049,-0.37701 -0.23302,-0.11969 -0.67368,0.0836 -0.91753,0 -0.54485,-0.18652 -1.24016,-0.23617 -1.65157,-0.37701 -0.0581,-0.0199 0.0594,-0.17256 0,-0.18852 -1.13907,-0.29253 -3.9007,0 -5.13817,0 h -9.90935 -21.47028 c -1.27577,0 -7.3399,0.56571 -8.07425,0.18852 -0.50123,-0.25742 -1.14385,-0.30474 -1.65156,-0.56551 -0.39147,-0.20107 -1.0766,0.20108 -1.46809,0 -0.89413,-0.45929 -2.61372,-0.18852 -3.67009,-0.18852 h -11.01039 c -0.32348,0.64465 0.20389,1.40897 0.0194,2.07355 -0.0606,0.21784 0.082,0.35517 0,0.56553 -0.0909,0.23336 0.0909,0.52064 0,0.75401 -0.082,0.21036 0.082,0.35517 0,0.56551 -0.17381,0.44625 -0.14973,4.25121 0,4.71264 0.1138,0.35049 -0.16857,0.78459 0,1.13103 0.17342,0.35638 -0.0639,1.11428 0,1.50803 0.0934,0.57607 -0.004,0.98949 0.16448,1.50804 0.24512,0.75536 0,6.91586 0,8.10573 0,1.18487 -0.1907,2.5944 0,3.77011 0.0785,0.48344 0.23757,0.9206 0.36702,1.31954 0.15361,0.4734 0,1.18699 0,1.69653 0,1.84005 0.17594,3.98178 -0.36702,5.65517 -0.1037,0.31976 0.14546,0.83209 0,1.13102 -0.0987,0.20264 -0.29726,0.35059 -0.36701,0.56551 -0.15672,0.48313 -0.0821,1.36409 -0.18352,1.88506 -0.27355,1.405 0,3.60739 0,5.08964 0,0.92154 0.25669,6.07031 0,6.59767 -0.0386,0.0796 -0.18352,0.0995 -0.18352,0.18852 0,0.49258 0.15614,0.79732 0.0835,1.31954 -0.1509,1.08488 0.67371,1.19299 0,1.88505 -0.23155,0.23785 0.0882,0.95759 0,1.31952 -0.17478,0.71812 0.18002,1.33398 0,2.07357 -0.39361,1.61726 -0.45822,3.11205 0,4.52413 0.54544,1.68093 -0.0536,4.68492 0.16429,6.47515 0.7952,-0.12568 1.5847,0.0784 2.38563,0 1.37111,-0.13406 2.83785,0 4.22065,0 1.00354,0 2.13782,-0.16817 3.11961,0 1.02444,0.17535 2.15595,-0.14144 3.11961,0 0.81618,0.11969 1.73755,0 2.56909,0 h 5.50519 c 0.75002,0 1.32139,-0.11929 2.01857,0 1.66042,0.28427 3.99102,0 5.6887,0 h 6.42272 c 0.63047,0 1.99229,-0.29626 2.5691,0 1.3096,0.67264 -0.0381,-0.34709 1.65155,0 0.32301,0.0664 0.59797,-0.082 0.91753,0 1.52294,0.39112 3.20603,-0.14622 4.77117,0 1.1188,0.10453 3.31845,0.22305 4.40416,0 0.20434,-0.0421 0.71318,0.0421 0.91753,0 0.29991,-0.0616 0.61763,0.0616 0.91754,0 0.54719,-0.11251 1.12505,0.0902 1.65154,0 1.14764,-0.1965 2.49734,0 3.67013,0 h 23.85584 7.34025 c 0.75897,0 2.39269,-0.29869 3.11961,0 1.08719,0.44672 0.0888,0 0.91753,0 0.67846,0 1.53338,-0.2747 2.20208,0 0.0569,0.0233 -0.0433,-0.0445 0,0 0.12856,0.13206 1.4007,0 1.65157,0 h 8.44128 5.32169 c 0.5965,0 1.60618,-0.0205 2.20208,0 0.44212,0.016 0.16313,0 0.73403,0 h 2.56908 c 0.42662,0.0355 0.80793,0.0259 1.28401,0 z"
         id="path2665"
         sodipodi:nodetypes="csscsssssccssscsssssscsssccssssscscssssscsssssssssssssssssssssssscsssssssssssssssssscsssssscssscc" />
      <path
         style="fill:none;stroke:#000000;stroke-width:0.520769px;stroke-linecap:butt;stroke-linejoin:miter;stroke-opacity:1"
         d="m 515.06591,248.78648 c -0.0612,0.0628 -0.0971,0.18851 -0.18352,0.18851 v -0.56551 -2.63908 c 0,-0.65711 0.0282,-1.05842 0.18352,-1.69653 0.38772,-1.59308 -0.26343,-3.46598 0,-5.08964 0.45615,-2.81102 -0.0693,0.92156 0.36701,-1.31954 0.0705,-0.36251 -0.0705,-0.76853 0,-1.13104 0.0175,-0.0872 0.15614,-0.10414 0.18352,-0.18852 0.12837,-0.39587 -0.12836,-0.92367 0,-1.31954 0.5135,-1.58243 0.18352,-7.42254 0.18352,-9.42525 v -11.49883 c 0,-1.85087 -0.17924,-3.81428 0,-5.65515 0.13477,-1.38465 0.18352,-2.7402 0.18352,-4.14711 v -8.48273 c 0,-1.35357 -0.1307,-2.80318 0,-4.14712 0.0431,-0.44211 0.12234,-0.87968 0.18352,-1.31954 -5.07704,-2e-4 -10.15402,-2e-5 -15.231,-2e-5 -1.42426,0 -2.83484,-0.0487 -4.22067,0.18852 -0.6104,0.10453 -1.65356,-0.28174 -2.20206,0 -0.0773,0.0397 -0.0996,0.16697 -0.18351,0.18852 -0.39071,0.10034 -1.10467,-0.18672 -1.46803,0 -0.56023,0.28744 0.33561,0.14941 -0.55052,0.37701 -0.36018,0.0926 -0.79524,0.006 -1.1011,-0.18852 -0.45251,1.21549 0.0802,2.26171 0.0963,3.39311 0.006,0.43979 0,0.87969 0,1.31954 0,0.25134 0,0.50267 0,0.75401 0,0.43985 0,0.87969 0,1.31954 0,0.12568 0,0.25133 0,0.37701 0,0.18852 0,0.37702 0,0.56551 0,1.4452 0,2.89042 0,4.33562 0,0.31417 0,0.62835 0,0.94252 0,0.87969 -0.006,1.75942 0,2.63908 0.0136,2.19939 0.0872,5.11659 0.0872,6.59768 0,1.26211 0.28511,3.8106 0.55052,4.90114 0.39211,1.61112 -0.31952,3.25999 0,4.90113 0.15691,0.80545 0.0856,7.38951 0,7.91721 -0.31614,1.94853 0.30602,-0.12647 0,2.07357 -0.28586,2.0555 0.18352,4.32931 0.18352,6.40918 0,1.04914 0.0136,2.00511 -0.18352,3.01608 -0.28235,1.45026 4e-5,4.57958 0,6.22066"
         id="path2669"
         sodipodi:nodetypes="cccsssscscsssssscsssscscaaaaaaaaasssssscc" />
      <path
         style="fill:none;stroke:#000000;stroke-width:1.96826;stroke-linecap:round;stroke-linejoin:miter;stroke-miterlimit:4;stroke-dasharray:none;stroke-opacity:1"
         d="m 509.0103,220.69919 c 1.46999,-0.25574 2.85981,0 4.40414,0"
         id="path2671" />
      <path
         style="fill:#aeaeae;fill-opacity:1;stroke:none;stroke-width:3.98978;stroke-linecap:round;stroke-linejoin:miter;stroke-miterlimit:4;stroke-dasharray:none;stroke-opacity:1"
         d="m 472.20369,147.78986 c -1.06634,0 -17.59474,6.93127 -17.59474,6.93127 l 0.53319,27.72499 125.82887,4.26539 1.86608,-30.12428 -15.19541,-9.33054 z"
         id="path1878" />
      <path
         style="fill:none;fill-opacity:1;stroke:#851919;stroke-width:3.98978;stroke-linecap:round;stroke-linejoin:miter;stroke-miterlimit:4;stroke-dasharray:none;stroke-opacity:1"
         d="m 462.05199,157.10968 c 0.68463,2.12378 0.27177,4.35289 0.39986,6.53137 0.36568,6.21597 0.0449,0.0467 0.53321,3.46562 0.12408,0.86859 0,1.93115 0,2.79917 0,1.46622 0,2.93245 0,4.39867 0,0.72799 0.10234,1.55007 0,2.26599 -0.0459,0.32022 -0.20876,0.61481 -0.26662,0.93305 -0.0179,0.10194 0.0569,2.20912 0,2.266 -0.0311,0.0313 -0.10193,-0.0313 -0.13325,0 -0.0944,0.0942 0,0.78499 0,0.93305"
         id="path1884" />
      <path
         style="fill:none;fill-opacity:1;stroke:#851919;stroke-width:3.98978;stroke-linecap:round;stroke-linejoin:miter;stroke-miterlimit:4;stroke-dasharray:none;stroke-opacity:1"
         d="m 472.84875,157.24298 c 0.29034,1.51296 0.0796,3.02034 0,4.53197 -0.11869,2.25359 0,4.53947 0,6.79794 0,0.79977 0.13146,1.61042 0,2.3993 -0.0391,0.23601 -0.21467,0.43289 -0.2666,0.66647 -0.0912,0.41015 0,1.04518 0,1.46622 0,0.76965 -0.10154,1.63715 0,2.39928 0.12389,0.92954 0.5332,1.73132 0.5332,2.66587 0,0.66645 0,1.33292 0,1.99939 0,0.26658 0,0.53318 0,0.79976 0,0.0888 0,0.35545 0,0.26659 0,-0.13326 0,-0.26659 0,-0.39989"
         id="path1886" />
      <path
         style="fill:none;fill-opacity:1;stroke:#851919;stroke-width:3.98978;stroke-linecap:round;stroke-linejoin:miter;stroke-miterlimit:4;stroke-dasharray:none;stroke-opacity:1"
         d="m 482.31257,158.2407 c 0.23625,1.65666 0.13326,2.25022 0.13326,3.93412 v 0.93305 0.2666 -4.33402 0.66648 1.73282 0.26657 c -0.0443,0.0888 -0.12429,0.16758 -0.13326,0.2666 -0.15022,1.65239 0,2.27785 0,3.93412 v 4.66527 c 0,0.82471 -0.49787,1.71644 -0.59981,2.53257 -0.0279,0.22481 0.0445,0.4443 0,0.66646 -0.089,0.22217 0.0393,0.43045 0,0.66647 -0.0513,0.30679 0.0311,0.62358 0,0.93305 0.27991,0.37498 0.0389,0.33833 0,0.53317 -0.0523,0.26141 0.099,0.55225 0,0.79977 -0.0594,0.14882 0.0507,0.24791 0,0.39988 -0.10253,0.30739 0.14324,0.77984 0,1.06635 -0.0716,0.14323 0,0 0,0.39987 0,0.61032 0,1.61718 0,2.1327"
         id="path1888"
         sodipodi:nodetypes="cscccccccssscscsssssc" />
      <path
         style="fill:none;fill-opacity:1;stroke:#851919;stroke-width:3.98978;stroke-linecap:round;stroke-linejoin:miter;stroke-miterlimit:4;stroke-dasharray:none;stroke-opacity:1"
         d="m 492.30958,158.04273 c -0.68748,0.79175 -0.16658,1.68642 -0.19995,2.53257 -0.01,0.26638 0,0.53318 0,0.79977 0,1.11078 0,2.22155 0,3.33233 0,0.31102 0,0.62202 0,0.93305 0,0.31102 0,0.62202 0,0.93305 0,0.88862 0,1.77724 0,2.66587 0,2.17712 -0.11291,4.35717 0,6.53136 0.0557,1.07068 0.50822,2.14802 0.33326,3.19905 -0.0628,0.37685 -0.21772,0.67551 -0.26659,1.06635 -0.0599,0.47839 0.0792,0.77471 -0.13326,1.19964"
         id="path1892"
         sodipodi:nodetypes="caaaaaaassc" />
      <path
         style="fill:none;fill-opacity:1;stroke:#851919;stroke-width:3.98978;stroke-linecap:round;stroke-linejoin:miter;stroke-miterlimit:4;stroke-dasharray:none;stroke-opacity:1"
         d="m 502.15711,158.53018 c 0.0748,1.78365 0.24325,2.80005 0.14942,4.57769 -0.0922,1.75329 0.1943,3.58392 0,5.33174 -0.10893,0.98109 -0.32968,1.94967 -0.39988,2.93245 -0.0285,0.39886 0.0529,0.80326 0,1.19965 -0.0369,0.27855 -0.20563,0.52543 -0.26654,0.79975 -0.15959,0.71812 0.0411,1.56717 -0.13326,2.26599 -0.18412,0.7362 -0.13325,1.48001 -0.13325,2.26598 0,0.5713 0.0311,3.8969 0.26659,4.13209"
         id="path1894"
         sodipodi:nodetypes="ccsssscsc" />
      <path
         style="fill:none;fill-opacity:1;stroke:#851919;stroke-width:3.98978;stroke-linecap:round;stroke-linejoin:miter;stroke-miterlimit:4;stroke-dasharray:none;stroke-opacity:1"
         d="m 513.5908,157.69805 c 0.22215,0.79977 -0.20839,1.38958 -0.0876,2.2108 0.10354,0.70332 0,1.4218 0,2.1327 v 2.93244 c 0,2.009 0.0481,4.00329 -0.13326,5.9982 -0.084,0.92295 0.11491,1.88016 0,2.79915 -0.0616,0.49349 -0.21112,0.9673 -0.26659,1.46622 -0.0726,0.65297 0.0433,1.23631 0.13325,1.86612 0.12329,0.86361 -0.24648,3.25945 0,3.99879 0.0962,0.28829 0.13326,0.3702 0.13326,0.66648"
         id="path1896"
         sodipodi:nodetypes="cssssssssc" />
      <path
         style="fill:none;fill-opacity:1;stroke:#851919;stroke-width:3.96726;stroke-linecap:round;stroke-linejoin:miter;stroke-miterlimit:4;stroke-dasharray:none;stroke-opacity:1"
         d="m 523.77812,158.56471 c 0,1.71657 0.014,-0.42515 -0.27248,3.73958 -0.20807,3.02025 -0.27247,6.00163 -0.27247,9.02652 0,1.61532 0.20833,3.4516 0,5.02905 -0.0453,0.34388 -0.0568,0.69333 -0.13625,1.03162 -0.0529,0.22596 -0.21937,0.41879 -0.27246,0.64475 -0.1957,0.83392 0,2.61767 0,3.61061"
         id="path1898" />
      <path
         style="fill:none;fill-opacity:1;stroke:#851919;stroke-width:3.95996;stroke-linecap:round;stroke-linejoin:miter;stroke-miterlimit:4;stroke-dasharray:none;stroke-opacity:1"
         d="m 534.43969,157.76145 c 0.27719,2.16593 0.13764,4.41383 0.13764,6.60927 0,2.076 0,4.15198 0,6.22798 0,0.92639 0.0714,1.87328 0,2.79624 -0.0776,1.00319 -0.41312,1.91643 -0.41312,2.92333 0,1.18219 0.18094,2.51729 0,3.68596 -0.0565,0.36508 -0.27541,0.63723 -0.27541,1.01681 0,0.0971 0.0902,0.76261 -0.13765,0.76261 -0.13765,0 0,-0.25421 0,-0.3813"
         id="path1900" />
      <path
         style="fill:none;fill-opacity:1;stroke:#851919;stroke-width:3.91627;stroke-linecap:round;stroke-linejoin:miter;stroke-miterlimit:4;stroke-dasharray:none;stroke-opacity:1"
         d="m 545.12854,158.13964 c -0.13066,2.22057 0.18553,4.47125 0,6.68815 -0.0628,0.75127 -0.33855,1.47911 -0.41462,2.22939 -0.14742,1.45321 0.0884,1.70425 0,2.97252 -0.0449,0.6413 -0.19929,0.98701 -0.27643,1.61012 -0.095,0.7648 0.22622,1.73371 0,2.47707 -0.0708,0.23227 -0.33749,0.3887 -0.41464,0.61929 -0.21329,0.63705 0.0349,1.94787 -0.13824,2.7248 -0.15859,0.71126 -0.5329,1.39694 -0.69107,2.10553 -0.14244,0.63896 0,1.44903 0,2.10553"
         id="path1902" />
      <path
         style="fill:none;fill-opacity:1;stroke:#851919;stroke-width:3.98978;stroke-linecap:round;stroke-linejoin:miter;stroke-miterlimit:4;stroke-dasharray:none;stroke-opacity:1"
         d="m 555.89049,159.37568 c 0.008,2.49911 -0.47536,4.97958 -0.66647,7.46441 -0.15979,2.07652 0.14842,4.18734 0,6.26479 -0.0979,1.37031 -0.0199,2.76554 -0.13326,4.13208 -0.0227,0.26935 -0.0888,0.53319 -0.13326,0.79977 -0.0443,0.5776 -0.0971,1.15462 -0.13326,1.73282 -0.0684,1.09525 0.20558,1.69583 -0.26659,2.64022 -0.14144,0.28271 0.26173,-0.26177 0,0"
         id="path1904"
         sodipodi:nodetypes="cssccssc" />
      <path
         style="fill:none;fill-opacity:1;stroke:#851919;stroke-width:3.98978;stroke-linecap:round;stroke-linejoin:miter;stroke-miterlimit:4;stroke-dasharray:none;stroke-opacity:1"
         d="m 566.02078,159.50895 v 4.2654 c 0,2.94824 -0.1576,5.85352 -0.2666,8.79736 -0.0369,1.00169 0.10015,2.06441 0,3.06574 -0.0972,0.97162 -0.3415,1.97393 -0.53321,2.93245 -0.29283,1.46433 0.0553,1.43175 0.0553,2.92968 v 1.19964 c 0,0.17775 0.17774,0.53318 0,0.53318 -0.16478,0 -0.13326,-0.18692 -0.13326,-0.2666"
         id="path1906"
         sodipodi:nodetypes="csssssssc" />
      <path
         style="fill:none;fill-opacity:1;stroke:#851919;stroke-width:3.98978;stroke-linecap:round;stroke-linejoin:miter;stroke-miterlimit:4;stroke-dasharray:none;stroke-opacity:1"
         d="m 575.92347,159.47941 c 0.0938,2.41888 0.62747,3.96408 0.62747,6.42763 0,0.78 0.014,-0.56058 -0.13326,1.06635 -0.0596,0.65682 0.0932,1.34703 0,1.9994 -0.18951,1.32646 -0.0694,-0.69815 -0.13325,0.93305 l -0.12389,3.16 c -0.016,0.39956 0.0868,0.80929 0,1.19965 -0.0517,0.23356 0.0469,0.43183 0,0.66645 -0.0608,0.30498 0.0983,0.63801 0,0.93305 -0.0628,0.18852 0.0547,0.34213 0,0.53318 -0.0732,0.25634 0.0375,0.53586 0,0.79977 -0.0698,0.48904 0.0698,0.84388 0,1.33292 -0.21203,1.48424 0.29331,2.93219 0,4.39867 -0.0491,0.24446 0.0684,0.46122 0,0.66648 -0.0578,0.17355 0.0816,0.50329 0,0.66647 -0.0279,0.0562 0,-0.0704 0,-0.13326"
         id="path1908"
         sodipodi:nodetypes="cssssssssscssssc" />
      <path
         style="fill:none;fill-opacity:1;stroke:#851919;stroke-width:1.99489;stroke-linecap:round;stroke-linejoin:miter;stroke-miterlimit:4;stroke-dasharray:none;stroke-opacity:1"
         d="m 474.31496,148.84549 c -2.65748,1.9913 -4.36985,2.72733 -6.90324,4.13876 -0.0523,0.0349 -0.0772,0.10513 -0.13326,0.13326 -0.0794,0.0397 -0.26656,-0.089 -0.26656,0 0,0.0628 0.0888,0.0888 0.13326,0.13326"
         id="path1910"
         sodipodi:nodetypes="ccssc" />
      <path
         style="fill:none;fill-opacity:1;stroke:#851919;stroke-width:2.39387;stroke-linecap:round;stroke-linejoin:miter;stroke-miterlimit:4;stroke-dasharray:none;stroke-opacity:1"
         d="m 481.64609,149.37867 c -0.35543,0.13325 -0.71852,0.24772 -1.06634,0.39989 -1.53711,0.67248 -0.62979,0.23514 -1.59949,1.06633 -0.62968,0.53972 -0.17674,-0.008 -0.93307,0.53317 -0.1534,0.10952 -0.23619,0.30636 -0.39987,0.3999 -0.94384,0.23595 -0.20559,-0.0457 -0.79975,0.39987 -0.2182,0.16359 -1.3674,0.66646 -1.06635,0.66646"
         id="path1912" />
      <path
         style="fill:none;fill-opacity:1;stroke:#851919;stroke-width:2.59336;stroke-linecap:round;stroke-linejoin:miter;stroke-miterlimit:4;stroke-dasharray:none;stroke-opacity:1"
         d="m 488.57736,149.24537 c -0.65092,0.79839 -1.33572,1.1918 -2.33263,1.76615 -0.40271,0.23981 -0.73785,0.63907 -0.99968,0.96637 -0.0539,0.0672 -1.41475,0.90219 -1.46622,0.93307 -0.24312,0.14582 -0.60772,0.66645 -0.79979,0.66645"
         id="path1914"
         sodipodi:nodetypes="ccssc" />
      <path
         style="fill:none;fill-opacity:1;stroke:#851919;stroke-width:2.59336;stroke-linecap:round;stroke-linejoin:miter;stroke-miterlimit:4;stroke-dasharray:none;stroke-opacity:1"
         d="m 495.82515,150.07845 c -0.0888,0.2666 -0.77737,0.55558 -1.16625,0.83309 -0.56077,0.40015 -1.19315,0.71513 -1.68287,1.19965 -0.45286,0.44805 -1.0623,1.48066 -1.12596,1.5443 -0.0317,0.0313 -0.0888,0 -0.13326,0"
         id="path1916"
         sodipodi:nodetypes="caasc" />
      <path
         style="fill:none;fill-opacity:1;stroke:#851919;stroke-width:2.39387;stroke-linecap:round;stroke-linejoin:miter;stroke-miterlimit:4;stroke-dasharray:none;stroke-opacity:1"
         d="m 504.83916,149.24537 c -0.47092,1.04169 -0.25966,0.64568 -0.83006,1.64387 -0.11031,0.1929 -0.46542,0.94713 -0.56481,1.14582 -0.19869,0.66751 -0.8046,1.77577 -0.87113,1.87558"
         id="path1918"
         sodipodi:nodetypes="cscc" />
      <path
         style="fill:none;fill-opacity:1;stroke:#851919;stroke-width:2.99233;stroke-linecap:round;stroke-linejoin:miter;stroke-miterlimit:4;stroke-dasharray:none;stroke-opacity:1"
         d="m 513.38658,150.04514 c 0,0.26658 -0.0768,0.27685 -0.15002,0.53317 -0.10912,0.38212 0.13586,0.69287 0,1.06635 -0.0981,1.27047 -0.15001,0.91809 -0.15001,2.0161"
         id="path1920"
         sodipodi:nodetypes="cscc" />
      <path
         style="fill:none;fill-opacity:1;stroke:#851919;stroke-width:2.99233;stroke-linecap:round;stroke-linejoin:miter;stroke-miterlimit:4;stroke-dasharray:none;stroke-opacity:1"
         d="m 523.63347,148.84549 c 0,1.82167 0,3.64337 0,5.46504"
         id="path1922" />
      <path
         style="fill:none;fill-opacity:1;stroke:#851919;stroke-width:2.99233;stroke-linecap:round;stroke-linejoin:miter;stroke-miterlimit:4;stroke-dasharray:none;stroke-opacity:1"
         d="m 532.40795,149.49718 c 0.17774,0.17775 0.35846,0.80366 0.50965,1.00443 0.7896,2.32947 1.02009,2.06046 1.39746,3.36123"
         id="path1924"
         sodipodi:nodetypes="ccc" />
      <path
         style="fill:none;fill-opacity:1;stroke:#851919;stroke-width:2.99233;stroke-linecap:round;stroke-linejoin:miter;stroke-miterlimit:4;stroke-dasharray:none;stroke-opacity:1"
         d="m 539.49541,149.11209 c 0.20715,0.39365 0.69993,0.56006 0.93301,0.93305 0.27536,0.44053 0.39322,1.01081 0.66648,1.46622 0.2648,0.44133 0.61733,0.80494 0.93307,1.19965 0.24357,0.30446 0.25841,0.51685 0.39987,0.79975 0.17236,0.34474 0.51552,0.6488 0.79973,0.93305"
         id="path1926" />
      <path
         style="fill:none;fill-opacity:1;stroke:#851919;stroke-width:2.59336;stroke-linecap:round;stroke-linejoin:miter;stroke-miterlimit:4;stroke-dasharray:none;stroke-opacity:1"
         d="m 547.89288,149.37867 c 1.29885,1.17959 2.42832,2.48246 3.46562,3.86551 0.44269,0.59021 1.09101,0.95769 1.5995,1.46623"
         id="path1928" />
      <path
         style="fill:none;fill-opacity:1;stroke:#851919;stroke-width:2.39387;stroke-linecap:round;stroke-linejoin:miter;stroke-miterlimit:4;stroke-dasharray:none;stroke-opacity:1"
         d="m 556.95682,149.51196 c 1.15913,1.34378 2.39987,2.62185 3.86552,3.59892 0.44272,0.29519 0.74928,0.8826 1.06633,1.19965 0.18313,0.18313 0.46417,0.23803 0.66647,0.39988 0.19669,0.15739 0.60846,0.66647 0.79975,0.66647"
         id="path1930" />
      <path
         style="fill:none;fill-opacity:1;stroke:#851919;stroke-width:2.39387;stroke-linecap:round;stroke-linejoin:miter;stroke-miterlimit:4;stroke-dasharray:none;stroke-opacity:1"
         d="m 564.28796,149.64526 c 1.39481,0.4525 2.61247,1.38089 3.8655,2.1327 0.10772,0.0646 0.1542,0.21038 0.26659,0.26658 0.32826,0.16418 -0.12029,-0.38691 0.39988,0.13325 0.11331,0.11331 0.15321,0.28661 0.26656,0.39988 0.26679,0.2668 0.63152,0.33215 0.93307,0.53317 0.18233,0.12149 0.0575,0.33018 0.26659,0.39988 0.0842,0.0281 0.18712,-0.0397 0.2666,0 0.0395,0.0199 -0.0317,0.10194 0,0.13326 0.17635,0.17655 1.32175,0.93305 1.59948,0.93305"
         id="path1932" />
      <path
         style="fill:none;stroke:#000000;stroke-width:0.527814px;stroke-linecap:butt;stroke-linejoin:miter;stroke-opacity:1"
         d="m 472.20369,147.78986 c -0.0443,0 -0.13325,-0.0445 -0.13325,0 0,0.0445 0.0888,0 0.13325,0 h 1.73283 6.66466 c 0.67765,0 1.47407,-0.13166 2.13268,0 0.48637,0.0974 0.98681,0.0375 1.46622,0.13326 0.0616,0.012 0.0772,0.10513 0.13326,0.13326 0.17775,0.0888 0.48877,-0.0888 0.66647,0 0.14324,0.0716 0.25663,0.1949 0.39988,0.26658 0.31242,0.1562 1.40889,0.0359 1.73282,0 0.22516,-0.0249 0.44131,-0.10832 0.66647,-0.13326 0.17655,-0.0199 0.3682,0.066 0.5332,0 0.0922,-0.0369 0.0443,-0.22217 0.13325,-0.2666 0.11112,-0.0555 0.51838,0.0371 0.66648,0 0.0523,-0.014 0.48089,-0.25351 0.53319,-0.26657 0.56623,-0.14164 3.07844,-0.0946 3.5989,0 0.27647,0.0503 0.52422,0.21147 0.79975,0.26657 1.28132,0.25627 4.93285,0.26648 6.13151,0.13326 0.40457,-0.0449 0.81288,-0.33542 1.19961,-0.39987 0.48418,-0.0806 1.11977,-0.20664 1.59954,-0.2666 0.93499,-0.1169 1.99637,0 2.93245,0 1.27645,0 2.62212,-0.11531 3.8655,0.13326 0.98579,0.19709 3.49285,0 4.66529,0 h 12.39626 c 0.91069,0 4.62978,-0.20057 5.33172,0 0.23007,0.0656 0.43048,0.22725 0.66647,0.26657 0.60007,0.1 4.65701,0.10833 5.19845,0 0.3883,-0.0776 0.79434,-0.20868 1.19966,-0.26657 1.19745,-0.17097 3.17247,0.27322 4.26537,0 0.52807,-0.13206 1.06392,-0.0261 1.59949,-0.13326 0.30803,-0.0616 0.51278,-0.1949 0.79981,-0.26658 0.80406,-0.20102 1.95706,0 2.79915,0 h 6.39807 6.93126 c 1.04147,0 2.16862,-0.12887 3.19902,0 0.36355,0.0455 0.70496,0.20635 1.06635,0.26658 0.0624,0.01 0.74294,0.0568 0.79973,0 0.12349,-0.12349 -0.13206,-0.43291 0.5332,-0.26658 0.70379,0.17595 1.5295,0.9308 2.13269,1.33293 0.13386,0.0894 0.34719,0.01 0.53316,0.13326 0.25756,0.17176 0.5162,0.39137 0.79979,0.53317 0.0794,0.0397 0.19271,-0.0493 0.26654,0 0.10453,0.0696 0.1542,0.21038 0.26659,0.26658 0.2276,0.1137 1.40859,0.38994 1.59955,0.53317 0.0796,0.0597 0.0539,0.20697 0.13325,0.2666 0.11252,0.0844 0.27943,0.061 0.39988,0.13326 0.30614,0.18373 0.80107,0.53445 1.06635,0.79977 0.0702,0.0702 0.063,0.19629 0.13326,0.26657 0.41739,0.41741 1.23583,0.60174 1.73282,0.93305 0.14702,0.0979 0.24236,0.32116 0.39987,0.3999 1.04993,0.52495 1.53134,1.25113 2.26596,2.1327 0.0756,0.0908 1.99419,1.59776 1.99942,1.5995 0.30655,0.10214 1.02848,0.32417 1.1996,0.66647 0.0202,0.0397 -0.10194,-0.0313 -0.13326,0 -0.0311,0.0313 0,0.089 0,0.13326 0,0.46016 -0.16956,2.0601 0,2.39927 0.24015,0.48025 0.34127,1.60535 0.39986,2.1327 0.20511,1.84601 0.0417,-0.68171 0.2666,0.66647 0.0656,0.39335 -0.018,3.63379 -0.13326,3.8655 -0.0563,0.11231 -0.21994,0.14982 -0.2666,0.26658 -0.16857,0.15041 0.0563,0.36458 0,0.53317 -0.0269,0.0814 -0.23949,0.31854 -0.2666,0.3999 -0.08,0.23992 0.08,0.55982 0,0.79975 -0.25261,0.7578 -0.41386,1.50817 -0.66647,2.26599 -0.19689,0.59073 0,1.67463 0,2.26598 0,0.51787 0.16498,1.371 0,1.86612 -0.1961,0.58837 -0.13326,-0.48428 -0.13326,0.39987 0,1.55781 0.23819,3.31261 -0.13326,4.79855 -0.13565,0.54267 0.0922,1.17948 0,1.73282 -0.10912,0.6544 -0.20252,1.1408 -0.39985,1.73282 -0.28413,0.85248 0.243,1.91328 -0.26656,2.93245 -0.0395,0.0794 0.0628,0.20376 0,0.26657 -0.0317,0.0313 -0.10194,-0.0313 -0.13326,0 -0.0818,0.0818 -0.088,0.31063 -0.26659,0.3999 -0.37285,0.18632 -1.80017,0.42184 -2.26598,0.26658 -0.18852,-0.0628 -0.34466,-0.20376 -0.53319,-0.26658 -0.12648,-0.0423 -0.27055,0.0323 -0.39988,0 -0.79456,-0.19869 -1.45595,-0.50449 -2.26597,-0.66649 -0.50333,-0.10074 -3.58271,-0.14144 -3.86552,0 -0.32449,0.16218 -0.8029,0.32056 -1.19961,0.39989 -1.00766,0.20153 -3.72318,-0.9997 -4.86521,-0.9997 h -13.99581 -4.66525 c -0.69807,0 -1.44156,0.0768 -2.13267,0 -0.52713,-0.0587 -1.23081,-0.0784 -1.73282,-0.26659 -0.18613,-0.0698 -0.34043,-0.2184 -0.5332,-0.26658 -0.21551,-0.0539 -0.46774,0.0994 -0.66647,0 -0.14323,-0.0716 -0.24791,-0.21593 -0.39988,-0.2666 -0.25287,-0.0844 -0.54111,0.0646 -0.79973,0 -0.23214,-0.0581 -0.43293,-0.21467 -0.66647,-0.26657 -0.17356,-0.0385 -0.35834,0.0317 -0.53321,0 -0.76317,-0.13885 -2.12438,0.71367 -2.8658,0.46652 -0.27236,-0.0908 -0.64848,0.0475 -0.93301,0 -0.87813,-0.14642 -2.00566,0.065 -2.79917,-0.13326 -0.8215,-0.20537 -1.6964,-0.52709 -2.53261,-0.66645 -0.90668,-0.15101 -2.00469,0 -2.93243,0 h -5.99819 -21.32693 -6.79798 c -1.06677,0 -2.27515,0.14104 -3.33231,0 -0.87521,-0.1167 -1.3113,-0.32782 -2.13269,-0.53317 -1.21862,-0.30466 -2.52527,-0.36475 -3.73222,-0.66648 -0.40891,-0.10214 -0.78629,-0.3172 -1.19963,-0.39987 -0.21788,-0.0435 -0.44737,0.0365 -0.66647,0 -1.4273,-0.23789 -2.93702,-0.13326 -4.39869,-0.13326 h -11.99639 -3.99881 c -0.57838,0 -1.30245,-0.11271 -1.8661,0 -0.48105,0.0962 -0.98564,0.33981 -1.46621,0.39987 -0.80593,0.10075 -1.71598,0 -2.53257,0 -0.17774,0 -0.40752,0.12568 -0.53319,0 -0.14762,-0.14762 0.006,-0.93694 0.13326,-1.06634 0.0311,-0.0313 0.11331,0.0397 0.13325,0 0.13865,-0.27721 -0.0981,-0.77173 0,-1.06635 0.36479,-1.0943 -0.14842,-3.0203 0.13326,-3.8655 0.14064,-0.42158 0.49545,-1.67499 0.2666,-2.1327 -0.0872,-0.17415 -0.13306,-0.66625 -0.13326,-0.66645 -0.0317,-0.0313 -0.10872,0.0369 -0.13326,0 -0.26993,-0.40492 -0.14383,-0.94885 -0.39987,-1.33294 -0.0247,-0.0369 -0.10194,0.0313 -0.13326,0 -0.0762,-0.0762 0,-0.56496 0,-0.66648 v -4.79854 -10.53017 c 0,-0.28205 -0.0582,-2.47424 0,-2.53257 0.10194,-0.10194 0.50205,-0.0786 0.66647,-0.13326 0.96549,-0.32183 -0.21016,0.0385 0.39988,-0.26659 0.20062,-0.10035 0.79917,-0.13266 0.93301,-0.26658 0.0317,-0.0313 -0.0317,-0.10194 0,-0.13326 0.0455,-0.0455 0.575,-0.23609 0.66647,-0.26658 0.18393,-0.0612 0.6623,-0.0417 0.79981,-0.13326 0.72626,-0.48421 1.70493,-0.78584 2.53255,-1.19964 0.1193,-0.0597 0.27609,0.0495 0.39988,0 0.14882,-0.0595 0.25113,-0.20709 0.39987,-0.26658 0.26666,-0.10673 0.66398,-0.13206 0.93307,-0.2666 0.28655,-0.14323 0.50228,-0.41418 0.79973,-0.53317 0.25094,-0.10034 0.54884,-0.0329 0.79975,-0.13326 0.22232,-0.089 0.43693,-0.34248 0.66648,-0.39989 0.12927,-0.0323 0.27346,0.0421 0.39987,0 0.0423,-0.014 -0.0317,-0.10194 0,-0.13326 0.0465,-0.0467 0.78725,-0.39451 0.79979,-0.39988 0.20823,-0.0892 0.46386,-0.0319 0.66648,-0.13326 0.14323,-0.0716 0.25113,-0.20709 0.39987,-0.26659 0.2117,-0.0848 0.59522,-0.0311 0.79975,-0.13326 0.21587,-0.10793 0.44843,-0.32718 0.66648,-0.39988 0.0842,-0.0281 0.18712,0.0397 0.26659,0 0.11232,-0.0563 0.1588,-0.20192 0.2666,-0.26658 0.31046,-0.18632 0.77304,-0.11989 1.06635,-0.26659 0.0395,-0.0199 -0.0423,-0.1193 0,-0.13326 0.12647,-0.0421 0.27609,0.0495 0.39985,0 0.11671,-0.0467 0.15421,-0.2104 0.26662,-0.2666 0.0794,-0.0397 0.18034,0.0215 0.26654,0 0.77926,-0.1947 0.15321,-0.39489 1.19966,-0.13326 z"
         id="path2627"
         sodipodi:nodetypes="ssscssccssscsscsssssssssssssssssscsscssscssssssssssscssssssccssssssssssssssssssssscsssssssscsssssccssssssscsssssscsssscssscsscsccscsssssssscsssssssscsssss" />
      <path
         style="fill:none;stroke:#000000;stroke-width:0.527814px;stroke-linecap:butt;stroke-linejoin:miter;stroke-opacity:1"
         d="m 454.60895,154.72113 c 0.0443,-0.17775 0.006,-0.40365 0.13326,-0.53318 0.10573,-0.10593 1.03495,0 1.19963,0 h 6.53138 8.79735 c 1.3236,0 2.81889,-0.18752 4.13209,0 0.68151,0.0974 1.34382,0.40205 1.99942,0.53318 0.55537,0.11111 0.22217,-0.074 0.66643,0 0.1572,0.0261 1.19021,0.21902 1.33293,0.26657 0.15201,0.0507 0.24587,0.22259 0.39987,0.2666 0.44047,0.12588 1.0143,0.0688 1.46626,0.13326 0.0984,0.014 0.17775,0.0888 0.26656,0.13326 0.17775,0.0445 0.3511,0.11311 0.5332,0.13326 0.65903,0.0732 4.36545,0.14163 4.93184,0 1.08239,-0.27061 2.202,-0.4404 3.33236,-0.66648 0.6178,-0.12348 1.36942,0 1.99936,0 h 4.66531 13.86247 6.26477 c 0.86795,0 1.95054,-0.16976 2.79917,0 0.34671,0.0694 0.71862,0.20863 1.06634,0.2666 0.26295,0.0439 0.56133,-0.11929 0.7998,0 0.11231,0.0563 0.16198,0.1969 0.26655,0.26658 0.18672,0.12448 0.59647,-0.10174 0.79979,0 0.14324,0.0716 0.25657,0.1949 0.39988,0.2666 0.16937,0.0848 1.28158,0.0924 1.4662,0 0.0397,-0.02 -0.0411,-0.11691 0,-0.13326 0.80129,-0.32052 1.79014,-0.42855 2.53258,-0.79975 0.40302,-0.20153 3.77022,0 4.53196,0 0.58467,0 2.08788,0.58141 2.63258,0.39987 1.13422,-0.37807 4.32891,0.46657 5.69828,0.46657 h 3.8655 c 0.45276,0 1.02132,-0.089 1.4662,0 0.91941,0.18392 1.77655,-0.71932 2.73252,-0.59983 0.96248,0.12029 2.13663,0.41288 3.09904,0.53318 0.93375,0.1167 1.59143,-0.0483 2.49928,0.13326 0.39453,0.0788 0.80223,0.0706 1.19967,0.13325 1.2649,0.19973 2.47023,0.58945 3.73218,0.79977 0.98717,0.16458 2.26396,0.0225 3.19902,-0.13325 0.39443,-0.0656 0.80382,0.0567 1.19967,0 0.34055,-0.0487 0.72644,-0.21803 1.06635,-0.26658 0.46558,-0.0666 1.43967,0.21319 1.86608,0 0.40843,-0.20422 0.60383,-0.32279 1.06634,-0.3999 0.70216,-0.1171 1.37749,0.0445 1.99942,-0.26657 0.36547,-0.18274 1.7808,0 2.26596,0 h 5.86491 c 0.73504,0 1.57,-0.0988 2.26602,0.13326 0.41132,0.13704 1.17776,0.59433 1.46622,0.66645 0.12927,0.0323 0.2734,-0.0421 0.39988,0 0.0423,0.014 -0.0317,0.10194 0,0.13326 0.0993,0.0993 0.27419,0.0704 0.39987,0.13326 0.17775,0.0888 0.336,0.29123 0.5332,0.26657 0.22041,-0.0275 0.35542,-0.26657 0.53313,-0.39987"
         id="path2629"
         sodipodi:nodetypes="ccscsssssssccsssccsssssssscssssssssscsssssssssssscssc" />
      <path
         style="fill:#4d4d4d;fill-opacity:0.443548;stroke:none;stroke-width:0.264583px;stroke-linecap:butt;stroke-linejoin:miter;stroke-opacity:1"
         d="m 455.14214,182.44611 42.70865,-22.57258 11.59949,-9.91571 59.26803,-3.29899 14.11878,9.92839 -1.86608,30.12429 -125.82887,-4.2654"
         id="path3109" />
      <path
         style="fill:#f2f2f2;fill-opacity:0.189516;stroke:none;stroke-width:0.264583px;stroke-linecap:butt;stroke-linejoin:miter;stroke-opacity:1"
         d="m 494.67028,141.913 37.79191,-28.06329 -65.43135,-0.12655 1.59921,28.52465 z"
         id="path3111" />
      <path
         style="fill:#3d4550;fill-opacity:0.266129;stroke:none;stroke-width:0.264583px;stroke-linecap:butt;stroke-linejoin:miter;stroke-opacity:1"
         d="m 476.53928,112.7279 73.5332,-47.123747 -88.42503,0.562954 -6e-5,5.655151 5.6551,0.565547 9.04828,13.949363 z"
         id="path3113" />
      <circle
         style="fill:url(#radialGradient3125);fill-opacity:1;stroke:none;stroke-width:0.202354;stroke-linecap:round;stroke-miterlimit:4;stroke-dasharray:none;stroke-opacity:1"
         id="path3117"
         cx="467.48038"
         cy="113.97251"
         r="3.1515653" />
      <circle
         style="fill:url(#radialGradient3141);fill-opacity:1;stroke:none;stroke-width:0.202354;stroke-linecap:round;stroke-miterlimit:4;stroke-dasharray:none;stroke-opacity:1"
         id="circle3139"
         cx="570.94037"
         cy="113.59834"
         r="3.1515653" />
      <circle
         style="fill:url(#radialGradient3145);fill-opacity:1;stroke:none;stroke-width:0.202354;stroke-linecap:round;stroke-miterlimit:4;stroke-dasharray:none;stroke-opacity:1"
         id="circle3143"
         cx="469.53833"
         cy="141.66164"
         r="3.1515653" />
      <circle
         style="fill:url(#radialGradient3149);fill-opacity:1;stroke:none;stroke-width:0.202354;stroke-linecap:round;stroke-miterlimit:4;stroke-dasharray:none;stroke-opacity:1"
         id="circle3147"
         cx="570.00494"
         cy="142.78418"
         r="3.1515653" />
      <circle
         style="fill:url(#radialGradient3153);fill-opacity:1;stroke:none;stroke-width:0.202354;stroke-linecap:round;stroke-miterlimit:4;stroke-dasharray:none;stroke-opacity:1"
         id="circle3151"
         cx="565.51483"
         cy="19.679829"
         r="3.1515653" />
    </g>
    <g
       id="g3487"
       style="display:inline"
       transform="translate(61.821926,124.78394)">
      <path
         style="fill:#424242;fill-opacity:1;stroke:none;stroke-width:0.537357px;stroke-linecap:butt;stroke-linejoin:miter;stroke-opacity:1"
         d="M 60.098352,-99.392133 182.44859,-99.772084 V 65.514589 L 63.518081,65.89454 Z"
         id="path3231" />
      <path
         style="fill:#22272d;fill-opacity:1;stroke:none;stroke-width:0.537357px;stroke-linecap:butt;stroke-linejoin:miter;stroke-opacity:1"
         d="m 63.518081,65.89454 -3.039737,80.93348 H 182.44859 V 65.514589 Z"
         id="path3233" />
      <path
         style="fill:#3d4550;fill-opacity:1;stroke:none;stroke-width:0.537357px;stroke-linecap:butt;stroke-linejoin:miter;stroke-opacity:1"
         d="m 74.727145,70.074213 43.696475,1.519889 -1.51976,74.663978 -41.226632,-0.18991 z"
         id="path3235" />
      <path
         style="fill:#231b1b;fill-opacity:1;stroke:none;stroke-width:0.537357px;stroke-linecap:butt;stroke-linejoin:miter;stroke-opacity:1"
         d="m 57.818602,-95.226409 -0.09546,5.129592 127.204828,-1.730641 -0.20105,-4.231705 z"
         id="path3251" />
      <path
         style="fill:none;stroke:#000000;stroke-width:0.264583px;stroke-linecap:butt;stroke-linejoin:miter;stroke-opacity:1"
         d="m 60.098361,-99.392128 c 1.556623,-0.02302 4.614122,0.779912 6.084068,0.412432 0.270562,-0.06765 4.265434,-0.319484 4.538934,-0.374174 0.596159,-0.119247 3.949945,0.0537 4.538934,-0.09354 0.171133,-0.04278 4.381189,0.07887 4.538934,0 0.410977,-0.205474 3.829189,0 4.538934,0 0.823304,0 3.739655,-0.159864 4.538934,0 0.08649,0.0172 4.455273,-0.02789 4.538934,0 0.819759,0.273235 3.697611,0 4.538934,0 2.426203,0 2.212423,-0.290831 4.538933,0 0.89718,0.11213 3.62943,-0.129937 4.53894,0 1.13135,0.161608 3.3936,0 4.53893,0 h 4.53893 c 6.07806,0 -1.46636,0.500433 4.53894,0 2.20954,-0.184123 2.32253,0 4.53893,0 1.57755,0 2.9463,0 4.53894,0 1.43433,0 3.15673,0.276437 4.53893,0 1.29924,-0.259847 3.25847,0.32009 4.53893,0 1.12842,-0.28213 3.38503,0.166467 4.53894,0 h 4.53893 4.53894 c 0.9743,0 3.58636,-0.21169 4.53893,0 0.38502,0.0855 4.15629,-0.09567 4.53893,0 0.54209,0.135519 3.97393,0.03493 4.53894,0 l 4.53893,-0.28063 6.78999,-0.264583 c 0.74847,-0.02916 1.91299,-0.235427 2.61924,0 0.87043,0.290142 1.39541,0.197167 2.46145,0.22053"
         id="path3253"
         sodipodi:nodetypes="csssssssssssssssssscsssscssc" />
      <path
         style="fill:none;stroke:#000000;stroke-width:0.264583px;stroke-linecap:butt;stroke-linejoin:miter;stroke-opacity:1"
         d="m 57.723142,-90.096817 c 1.07442,0 2.345545,-0.164381 3.396547,-0.199301 3.783584,-0.125691 7.85123,-0.38885 11.599498,-0.38885 0.708944,0 1.498253,-0.226647 2.178194,0 0.908171,0.302724 1.163358,-0.126855 2.178195,0 0.587058,0.07338 1.600657,-0.128338 2.178195,0 1.030401,0.228978 1.137246,-0.20819 2.178195,0 0.810208,0.162041 1.419289,0.168646 2.178195,0 0.385026,-0.08556 1.790139,0.07055 2.178194,0 0.947332,-0.172243 1.243566,0.233657 2.178195,0 0.270568,-0.06764 1.913611,0.08819 2.178195,0 1.718227,-0.572742 0.946326,0.205308 2.178195,0 0.638734,-0.106456 1.581363,0.198943 2.178194,0 0.280633,-0.09355 1.804017,0.187088 2.178195,0 0.05578,-0.02789 2.134095,0.0441 2.178195,0 0.22703,-0.22703 1.815286,0.01367 2.178196,0 l 13.65747,-0.514494 h 34.98559 22.63772 6.92229 c 1.11368,0 2.47182,0.208789 3.55468,0 0.72824,-0.140414 1.423,-0.418664 2.1345,-0.627996 0.17402,-0.483902 -0.26565,-3.547855 -0.20105,-4.231714 -1.29758,-0.306731 -2.66031,-0.19169 -3.99142,-0.19169 h -5.98684 -18.89596 l -19.83139,0.529167 h -8.60608 c -0.97218,0 -2.39668,-0.242729 -3.3676,0 -1.44474,0.361182 -3.00329,-0.02863 -4.49012,0.21918 -1.28315,0.213863 -2.81014,0 -4.11596,0 H 105.90004 75.030412 64.366355 c -1.574007,0 -3.293587,-0.178329 -4.864312,0 -0.565018,0.06416 -1.122283,0.184073 -1.683438,0.276093 -0.04039,0.08038 -0.09725,0.154424 -0.121157,0.241148 -0.03808,0.138164 0,0.286632 0,0.429948 v 0.992187 c 0,0.256034 -0.04303,0.506432 -0.06615,0.760677 -0.0349,0.383856 -0.03307,0.770693 -0.03307,1.157552 0,0.263898 -0.09646,0.672488 -0.03307,0.926042 0.004,0.01596 0.02425,0.185207 0.03307,0.198438 0.131288,0.196932 0.140345,0.160189 0.124913,0.423613 z"
         id="path3255"
         sodipodi:nodetypes="cssccsssscccsccsscccssssssssssssssscssssssssc" />
      <path
         style="fill:none;stroke:#000000;stroke-width:0.264583px;stroke-linecap:butt;stroke-linejoin:miter;stroke-opacity:1"
         d="m 60.098361,-99.392128 c -0.14941,0.899954 -0.0858,1.837108 -0.0858,2.753201 0,0.0217 -0.05535,0.539962 0,0.595313 0.01561,0.01561 0.04643,-0.0098 0.06614,0 0.111602,0.0558 0.139039,0.211957 0.198438,0.330729"
         id="path3259" />
      <path
         style="fill:none;stroke:#000000;stroke-width:0.264583px;stroke-linecap:butt;stroke-linejoin:miter;stroke-opacity:1"
         d="m 182.44859,-99.772096 c -0.0111,0.118348 -0.0332,0.236193 -0.0332,0.355044 -4e-5,0.259848 0.0807,0.534512 0.0992,0.79375 0.0125,0.175313 -0.0159,0.354172 0,0.529167 0.0536,0.5901 0.0331,1.190678 0.0331,1.785937"
         id="path3261" />
      <path
         style="fill:none;stroke:#000000;stroke-width:0.264583px;stroke-linecap:butt;stroke-linejoin:miter;stroke-opacity:1"
         d="m 60.27714,-90.255854 c -0.01852,0.262731 0.02619,0.531786 0,0.79375 -0.01429,0.141764 -0.01746,0.288502 -0.03307,0.429948 0.02143,0.09869 -0.05329,0.174599 -0.06615,0.264583 -0.02461,0.172879 0.0217,0.355865 0,0.529167 -0.06056,0.484558 -0.06072,1.002506 0,1.488281 0.01217,0.09766 -0.01085,0.19984 0,0.297656 -1.85e-4,0.103611 0.05355,0.196798 0.06615,0.297657 0.01826,0.14605 0,0.31705 0,0.463021 v 1.02526 c 0,0.115623 -0.0164,0.249264 0,0.363802 0.02037,0.143087 0.07154,0.258498 0.09922,0.396875 0.01296,0.06485 -0.01085,0.133191 0,0.198438 0.01535,0.09237 0.04524,0.203596 0.06615,0.297656 0.03289,0.147981 0.110622,0.311388 0.132291,0.463021 0.02249,0.157718 0,0.337502 0,0.496093 v 0.892969 1.091406 c 0,0.145548 -0.03212,0.351552 0,0.496094 0.01297,0.05794 0.04736,0.109035 0.06615,0.165365 0.0653,0.195897 -0.04059,0.458496 0,0.661458 0.02712,0.135572 0.08382,0.258207 0.09922,0.396875 0.01852,0.165391 0.04784,0.331417 0.06615,0.496094 0.0061,0.05479 -0.01085,0.11131 0,0.165364 0.01164,0.05821 0.04985,0.108294 0.06615,0.165365 0.04665,0.163248 0,0.423598 0,0.595312 0,0.347372 0.02881,0.712682 0,1.058334 -0.01164,0.139647 -0.04863,0.289798 -0.06615,0.429948 -0.05085,0.406849 -0.01892,0.848454 0,1.25677 l 0.131297,2.832923 c -0.452004,0.562242 0.319504,1.039933 0,1.686725 -0.409749,0.82948 0,4.986862 0,6.085416 0,1.509062 -0.404792,5.400206 0,6.614584 0.413179,1.239536 -0.339912,2.873686 0,4.233333 0.31174,1.246962 -0.311455,2.458346 0,3.704167 0.38212,1.528479 -0.01637,5.106104 0,6.879166 l 1.5554,39.5004113 V 10.715767 c 0,1.951989 -0.275211,4.158936 0,6.085416 0.02789,0.195227 -0.04783,0.337846 0,0.529167 0.301143,1.204574 -0.205683,2.734661 0,3.96875 0.0917,0.550201 -0.07888,1.035315 0,1.5875 0.19767,1.383695 -0.154472,2.843092 0,4.233333 0.588542,5.296883 0.926042,10.795311 0.926042,16.139584 v 8.466666 c 0,1.195838 -0.167569,2.531183 0,3.704167 0.216113,1.512793 0.812186,8.636728 0,9.789583 -0.181403,0.257493 0.220553,0.449738 0,0.674607 11.853553,0.229121 23.858164,0.266471 35.71875,0.266471 3.50262,0 8.39092,-0.812688 11.64167,0 0.49803,0.124508 1.09362,-0.141109 1.5875,0 0.37924,0.108354 0.67569,-0.09566 1.05833,0 1.41547,0.353868 3.30901,-0.08258 4.7625,0 h 11.37708 33.3375 c 1.61199,0 9.10573,0.404341 10.31875,0 0.82311,-0.274369 0.67243,0.183013 1.5875,0 0.44809,-0.08962 0.87891,0.111002 1.32292,0 0.31085,-0.07771 1.03753,0.142692 1.32292,0 0.0789,-0.03944 -0.0624,0.06236 0,0 0.3285,-0.328502 4.34961,-0.0385 5.02718,0"
         id="path3263"
         sodipodi:nodetypes="cccssscssscssssscsssscssssssscsssssscsssssssssscssssscssssscc" />
      <path
         style="fill:none;stroke:#000000;stroke-width:0.264583px;stroke-linecap:butt;stroke-linejoin:miter;stroke-opacity:1"
         d="m 184.92797,-91.827452 c -0.96095,0.396398 -1.96907,0.693684 -2.88285,1.189249 -0.23116,0.125359 0.16982,1.597501 0.18709,1.683808 0.44862,2.243138 0.37417,4.578853 0.37417,7.109354 v 37.979006 c 0,1.247801 -0.0113,2.511689 -0.18708,3.741764 -0.0642,0.449447 -0.29954,0.8618 -0.37418,1.309634 -0.21522,1.291273 0,2.809452 0,4.115938 v 10.102797 9.354423 c 0,1.520587 0.64448,3.377644 0.37418,4.864311 -0.21485,1.181656 0.22355,2.3624649 0,3.5546774 -0.38701,2.0640675 0.22878,4.1149058 0,6.17394619 -0.0838,0.75403604 0.0582,1.48862519 0,2.24504251 -0.22188,2.8845139 0,5.9033568 0,8.7931889 v 5.612659 c 0,0.789358 -0.1114,1.652349 0,2.432156 0.26877,1.881372 -0.37129,3.756184 0,5.612659 0.0273,0.136737 -0.0624,0.249449 0,0.374174 0.0624,0.249449 -0.0423,0.494718 0,0.748347 0.29086,1.745165 -0.74836,5.000784 -0.74836,6.922294 0,0.46781 -0.11102,1.052618 0,1.496695 0.0214,0.08557 0.1592,0.103425 0.18709,0.187087 0.0935,0.280643 -0.0936,0.654817 0,0.935434 0.0279,0.08369 0.12472,0.124751 0.18709,0.187113 0.0624,0.187087 0.14841,0.367877 0.18709,0.561261 0.11161,0.558033 -0.009,1.568027 0.18709,2.057956 0.40876,1.021926 0.37417,0.223043 0.37417,0.748374 v 8.418991 c 0,1.003289 0.12477,2.057836 -0.18709,2.993419 -0.14636,0.439078 0.20441,1.087891 0,1.496709 -0.0394,0.07888 -0.1592,0.10342 -0.18709,0.187089 -0.37223,1.116712 0.2029,3.085672 0,4.303039 -0.424,2.543992 -0.42332,7.248648 0.0293,9.849446"
         id="path3265"
         sodipodi:nodetypes="cscssssscssssssssscssssscscssssssc" />
      <path
         style="fill:none;stroke:#000000;stroke-width:0.264583px;stroke-linecap:butt;stroke-linejoin:miter;stroke-opacity:1"
         d="m 182.44859,146.82803 c -1.78139,-0.22383 -3.65983,-0.0507 -5.45487,-0.0507 -0.36999,0 -1.1421,0.1182 -1.49671,0 -0.75591,-0.25199 -1.12963,-0.0388 -1.87088,-0.18709 -1.77527,-0.35506 -3.64479,0.10971 -5.42558,-0.18709 -0.44783,-0.0746 -0.85911,-0.31788 -1.30962,-0.37418 -0.89344,-0.11168 -1.90055,0 -2.80633,0 -2.12034,0 -4.24067,0 -6.36101,0 -2.1827,0 -4.3654,0 -6.54811,0 -1.09506,0 -2.28228,0.13566 -3.36759,0 -2.98803,-0.3735 -6.13254,-0.18709 -9.16735,-0.18709 -5.23848,0 -10.47696,0 -15.71544,0 -13.47039,0 -26.940773,0 -40.411157,0 -4.115951,0 -8.231901,0 -12.347852,0 -0.907997,0 -4.646428,-0.20248 -5.051394,0 -1.14516,0.57258 -3.272222,0.57784 -4.63634,0.98613 -0.245006,-3.66916 -0.04088,-7.41246 -0.04088,-11.08893 0,-0.75202 -0.287681,-4.05857 0,-4.49014 0.09784,-0.14676 0.295304,-0.2164 0.374174,-0.37417 0.289587,-0.57915 -0.158856,-1.60959 0,-2.24504 0.119407,-0.47757 0.161766,-1.25897 0.3742,-1.68381 0.03942,-0.0789 0.169887,-0.10059 0.187087,-0.18709 0.135784,-0.67892 -0.21971,-1.58596 0,-2.24507 0.368353,-1.10511 0.385895,-2.1401 0.561261,-3.36759 0.2794,-1.9558 0.04628,-4.35128 -0.561261,-6.17392 -0.07493,-0.22473 0.04683,-0.51413 0,-0.74837 -0.06784,-0.33906 -0.30636,-0.78346 -0.3742,-1.12252 -0.14642,-0.73221 0,-1.68712 0,-2.43216 0,-0.4305 -0.106177,-1.07198 0,-1.49672 0.281834,-1.12726 0.547714,-2.16363 0.748374,-3.36759 0.04101,-0.24606 -0.0789,-0.5117 0,-0.74835 0.299194,-0.89757 0.07498,0.5234 0.374174,-0.37417 0.09424,-0.28279 -0.161528,-0.88027 0,-1.12255 0.761788,-1.14268 0.09652,-0.76022 0.374174,-1.87087 0.06765,-0.27056 0.738108,-0.22857 0.374173,-0.74837 0.204788,-1.228619 0,-2.699147 0,-3.928851 0,-2.931054 0,-5.862108 0,-8.793162 0,-1.943947 0.345573,-7.569385 -0.187087,-9.167336 -0.433466,-1.300454 0.555837,-2.399586 0.748348,-3.554704 0.283395,-1.700371 -0.294984,-3.079591 -0.561261,-4.677198 -0.134117,-0.804677 0,-1.809194 0,-2.619243 0,-0.396875 -0.184891,-1.327176 0,-1.683808 0.12401,-0.239157 0.34425,-0.414496 0.516361,-0.621744 0.576234,-0.166927 1.145098,-0.3618 1.728703,-0.50078 0.917392,-0.218468 2.233376,0 3.180507,0 2.182701,0 4.365403,0 6.548104,0 6.672829,0 13.345658,0 20.018487,0 2.432153,0 4.864306,0 7.296455,0 1.11349,0 2.45899,-0.182617 3.55469,0 1.02808,0.171348 2.17863,0.605229 3.18051,0.748355 1.00594,0.143706 2.15645,0 3.1805,0 1.88664,0 3.79234,-0.07079 5.61266,-0.374178 0.90508,-0.150846 1.73746,0.106839 2.61924,-0.187088 0.88742,-0.295806 2.27216,0.08258 3.18051,0 3.704,-0.336728 7.49091,-0.187089 11.22532,-0.187089 4.73958,0 9.47916,0 14.21874,0 0.82473,0 6.6005,0.254435 7.10937,0 0.0558,-0.02789 -0.0592,-0.167368 0,-0.187089 0.86702,-0.289005 5.64243,0 6.92228,0 3.18051,0 6.36102,0 9.54152,0 1.01118,0 4.12627,-0.246011 4.86431,0 1.14514,0.381714 3.81606,0.415667 5.08069,0.307924 -0.13449,0.458625 -0.28401,0.913107 -0.40347,1.375874 -0.32571,1.261689 0.0303,7.200406 0.37417,8.231902 0.26639,0.799158 0,2.125964 0,2.993419 0,2.182701 0,4.365402 0,6.548103 0,5.17612 0,10.35224 0,15.528363 0,1.74616 0,3.49232 0,5.23848 0,0.62811 -0.14699,1.47 0,2.05797 0.61826,2.47302 -0.2301,5.16747 0.18709,7.67064 0.30463,1.82777 0.18709,3.73741 0.18709,5.61266 0,2.6816 0,5.36321 0,8.04481 0,1.3786 -0.0606,2.48742 -0.37418,3.74178 -0.10127,0.40509 0.0816,0.90186 0,1.30962 -0.0755,0.3773 -0.25134,0.75403 -0.37417,1.12253 -0.27156,0.81466 0,5.49953 0,6.73519 0,1.63243 -0.33905,3.63159 0.40347,5.1021 z"
         id="path3269" />
      <path
         style="fill:none;stroke:#000000;stroke-width:0.264583px;stroke-linecap:butt;stroke-linejoin:miter;stroke-opacity:1"
         d="m 118.42361,71.594082 c -0.12094,0.178302 -0.20838,0.384651 -0.36282,0.534855 -0.41566,0.404283 -4.80777,-0.561261 -5.42557,-0.561261 -0.59235,0 -0.95824,-0.05247 -1.4967,-0.187087 -0.99332,-0.248337 -2.3455,0 -3.36761,0 -2.55688,0 -5.11374,0 -7.67062,0 -1.995618,0 -3.991238,0 -5.986858,0 -0.930487,0 -2.076847,0.152744 -2.993416,0 -0.331259,-0.05522 -0.606108,-0.308323 -0.935435,-0.374173 -0.691091,-0.138219 -1.533022,0 -2.245069,0 -1.870868,0 -3.741764,0 -5.612659,0 -0.680111,0 -1.587235,0.164438 -2.245069,0 -1.853538,-0.463392 -3.35661,-0.877677 -5.354637,-0.932207 0.581213,3.618871 -0.413984,7.448829 0.303249,11.034993 0.165038,0.825189 -0.08344,1.620575 0.187089,2.432153 0.274701,0.824102 0,2.617836 0,3.554685 0,2.993418 0,5.986837 0,8.980256 0,1.870886 0,3.741773 0,5.612664 0,0.70628 0.13732,1.55846 0,2.24506 -0.444982,2.22491 -0.187089,4.80065 -0.187089,7.10937 0,1.14068 -0.225786,2.61284 0,3.74177 0.46071,2.30355 0.187089,4.9264 0.187089,7.29646 0,1.26251 0.317255,3.66853 -0.187089,4.67722 -0.322448,0.64489 0.187089,3.81374 0.187089,4.67721 0,0.5151 -0.01972,-0.28569 0.187089,0.74836 0.176109,0.88054 -0.0057,1.84228 0.187088,2.80633 0.226517,1.13258 -0.279703,2.43587 0,3.55468 0.02139,0.0856 0.1592,0.10342 0.187089,0.18709 0.187089,0.56127 -0.187089,1.30962 0,1.87089 0.292252,0.87675 0.187089,1.99812 0.187089,2.99342 0,0.55003 0.01497,2.42041 0,2.43215 -0.0764,0.0599 -0.192408,0.0261 -0.288612,0.0392"
         id="path3271" />
      <path
         style="fill:none;stroke:#000000;stroke-width:0.264583px;stroke-linecap:butt;stroke-linejoin:miter;stroke-opacity:1"
         d="m 117.40598,71.594082 c 0.12851,0.614839 -0.0924,1.223195 0,1.84449 0.17946,1.206817 0.14089,4.764987 0,6.173919 -0.20162,2.016178 0.62573,4.296648 0,6.17392 -0.29226,0.876803 -0.16809,2.340583 0,3.180503 0.21587,1.079368 -0.21587,2.288249 0,3.36759 0.27697,1.38483 0,2.490232 0,3.928878 0,2.577094 -0.25634,5.294418 0,7.857728 0.22637,2.26375 0.37551,4.6691 0,6.92227 -0.37651,2.25906 0.44563,4.6941 0,6.92229 -0.37706,1.88529 0.40594,4.14414 0,6.17392 -0.0939,0.46956 0,1.24328 0,1.68381 0,2.20729 0.42838,4.59317 0,6.73518 -0.22708,1.13538 0.37621,2.23898 0,3.36759 -0.26189,0.78565 0.20143,1.81351 0,2.61924 -0.12321,0.49287 0.1384,1.1302 0,1.68381 -0.21691,0.86767 0.12608,1.92384 0,2.80633 -0.0191,0.13351 -0.13561,3.14603 0,3.1805 0.2914,0.0741 -0.30035,0.028 0,0.042"
         id="path3273"
         sodipodi:nodetypes="csssssssssssssssssc" />
      <g
         id="g3343">
        <path
           style="fill:#090a0f;fill-opacity:1;stroke:none;stroke-width:0.537357px;stroke-linecap:butt;stroke-linejoin:miter;stroke-opacity:1"
           d="m 125.07319,73.303945 h 27.35783 l -0.5701,29.257645 -26.78773,-0.56995 z"
           id="path3237" />
        <path
           style="fill:#252b42;fill-opacity:1;stroke:none;stroke-width:0.264583px;stroke-linecap:butt;stroke-linejoin:miter;stroke-opacity:1"
           d="m 138.52766,73.5543 -12.96458,16.139583 -0.1323,5.55625 16.53646,-21.563541 z"
           id="path3303" />
        <path
           style="fill:#252b42;fill-opacity:1;stroke:none;stroke-width:0.264583px;stroke-linecap:butt;stroke-linejoin:miter;stroke-opacity:1"
           d="m 152.41828,77.126175 c -0.13229,0.661459 -19.71145,25.267705 -19.71145,25.267705 h 1.4552 l 18.52084,-23.28333 z"
           id="path3305" />
      </g>
      <path
         style="fill:none;stroke:#000000;stroke-width:0.264583px;stroke-linecap:butt;stroke-linejoin:miter;stroke-opacity:1"
         d="M 69.471411,-89.825906 70.529744,64.690759"
         id="path3309" />
      <path
         style="fill:none;stroke:#000000;stroke-width:0.264583px;stroke-linecap:butt;stroke-linejoin:miter;stroke-opacity:1"
         d="m 78.996411,-90.884239 0.79375,156.104164"
         id="path3311" />
      <path
         style="fill:none;stroke:#000000;stroke-width:0.264583px;stroke-linecap:butt;stroke-linejoin:miter;stroke-opacity:1"
         d="M 91.431827,-91.148823 89.31516,65.484509"
         id="path3313" />
      <path
         style="fill:none;stroke:#000000;stroke-width:0.264583px;stroke-linecap:butt;stroke-linejoin:miter;stroke-opacity:1"
         d="m 104.39641,-90.355073 -1.5875,154.516665"
         id="path3315" />
      <g
         id="g3333">
        <path
           style="fill:#090a0f;fill-opacity:1;stroke:none;stroke-width:0.537357px;stroke-linecap:butt;stroke-linejoin:miter;stroke-opacity:1"
           d="m 84.606338,32.457242 24.698082,0.759945 0.56989,-40.6567279 -25.647762,-0.1898939 z"
           id="path3239" />
        <path
           style="fill:#252b42;fill-opacity:1;stroke:none;stroke-width:0.264583px;stroke-linecap:butt;stroke-linejoin:miter;stroke-opacity:1"
           d="M 95.984341,-7.5708389 84.384835,0.47397683 84.571922,7.0220703 98.51004,-7.4772946 Z"
           id="path3293"
           sodipodi:nodetypes="ccccc" />
        <path
           style="fill:#252b42;fill-opacity:1;stroke:none;stroke-width:0.264583px;stroke-linecap:butt;stroke-linejoin:miter;stroke-opacity:1"
           d="M 108.37897,-7.3837512 84.478365,16.84425 l 1.6e-5,4.490121 25.350519,-27.5955834 0.0454,-1.1783394 z"
           id="path3295"
           sodipodi:nodetypes="cccccc" />
        <path
           style="fill:#252b42;fill-opacity:1;stroke:none;stroke-width:0.264583px;stroke-linecap:butt;stroke-linejoin:miter;stroke-opacity:1"
           d="m 109.58084,10.810632 -20.029342,21.77077 c 0,0 1.872541,0.165373 3.439424,0.165365 1.10603,-1.707196 16.584228,-20.345883 16.584228,-20.345883 z"
           id="path3297"
           sodipodi:nodetypes="ccccc" />
      </g>
      <path
         style="fill:none;stroke:#000000;stroke-width:0.264583px;stroke-linecap:butt;stroke-linejoin:miter;stroke-opacity:1"
         d="m 114.18599,-90.884239 1.5875,156.104164"
         id="path3317" />
      <path
         style="fill:none;stroke:#000000;stroke-width:0.264583px;stroke-linecap:butt;stroke-linejoin:miter;stroke-opacity:1"
         d="m 127.67974,-90.884239 c -1.5875,10.31875 -1.85208,156.368748 -1.85208,156.368748"
         id="path3319" />
      <path
         style="fill:none;stroke:#000000;stroke-width:0.264583px;stroke-linecap:butt;stroke-linejoin:miter;stroke-opacity:1"
         d="M 139.58599,-90.090489 136.94016,65.749092"
         id="path3321" />
      <path
         style="fill:none;stroke:#000000;stroke-width:0.264583px;stroke-linecap:butt;stroke-linejoin:miter;stroke-opacity:1"
         d="m 150.69849,-90.884239 -1.5875,154.516664"
         id="path3323" />
      <path
         style="fill:none;stroke:#000000;stroke-width:0.264583px;stroke-linecap:butt;stroke-linejoin:miter;stroke-opacity:1"
         d="M 161.28183,-91.148823 160.75266,64.426175"
         id="path3325" />
      <path
         style="fill:#1a1a1a;stroke:none;stroke-width:0.537357px;stroke-linecap:butt;stroke-linejoin:miter;stroke-opacity:1"
         d="M 77.671975,43.476351 H 89.925967 L 90.495854,55.4454 c 0,0 -12.443887,0.379951 -12.538936,-0.47498 -0.09546,-0.854912 -0.284943,-11.494069 -0.284943,-11.494069 z"
         id="path3243" />
      <path
         style="fill:#1a1a1a;stroke:none;stroke-width:0.537357px;stroke-linecap:butt;stroke-linejoin:miter;stroke-opacity:1"
         d="m 104.43337,43.476351 c 1.13977,0 12.25399,0 12.25399,0 l 0.0954,11.589077 -12.34884,0.189894 z"
         id="path3245" />
      <path
         style="fill:#1a1a1a;stroke:none;stroke-width:0.537357px;stroke-linecap:butt;stroke-linejoin:miter;stroke-opacity:1"
         d="m 130.70991,43.381363 12.0639,0.09505 0.0954,11.779052 -12.15895,-0.284983 z"
         id="path3247" />
      <path
         style="fill:#1a1a1a;stroke:none;stroke-width:0.537357px;stroke-linecap:butt;stroke-linejoin:miter;stroke-opacity:1"
         d="m 156.99044,43.666347 11.874,-0.379973 0.0954,11.589058 -12.15894,-0.09505 z"
         id="path3249" />
      <g
         id="g3338">
        <path
           style="fill:#090a0f;fill-opacity:1;stroke:none;stroke-width:0.537357px;stroke-linecap:butt;stroke-linejoin:miter;stroke-opacity:1"
           d="m 135.52227,-7.8195124 26.21784,-0.9499206 0.19092,40.656728 c 0,0 -26.40795,0.569947 -26.21785,-0.189896 0.19091,-0.759924 -0.19091,-39.5168101 -0.19091,-39.5168101 z"
           id="path3241" />
        <path
           style="fill:#252b42;fill-opacity:1;stroke:none;stroke-width:0.264583px;stroke-linecap:butt;stroke-linejoin:miter;stroke-opacity:1"
           d="m 135.61724,8.1360719 c 0.33073,-0.5291666 16.33802,-16.5364581 16.33802,-16.5364581 l 4.96094,-0.1984375 c 0,0 -21.16667,26.0283847 -21.16667,25.7638017 0,-0.264583 -0.13229,-9.0289061 -0.13229,-9.0289061 z"
           id="path3299"
           sodipodi:nodetypes="cccsc" />
        <path
           style="fill:#252b42;fill-opacity:1;stroke:none;stroke-width:0.264583px;stroke-linecap:butt;stroke-linejoin:miter;stroke-opacity:1"
           d="M 161.81099,-3.0425738 137.75637,31.866376 139.6746,31.667939 161.81099,-0.9259071 Z"
           id="path3301"
           sodipodi:nodetypes="ccccc" />
      </g>
      <path
         style="fill:none;stroke:#000000;stroke-width:0.264583px;stroke-linecap:butt;stroke-linejoin:miter;stroke-opacity:1"
         d="M 172.65891,-90.619656 171.86516,65.484509"
         id="path3327" />
      <rect
         style="fill:#666666;fill-opacity:0.330645;stroke:none;stroke-width:3;stroke-linecap:round;stroke-miterlimit:4;stroke-dasharray:none;stroke-opacity:1"
         id="rect3345"
         width="6.614583"
         height="2.3812499"
         x="156.38704"
         y="116.01993" />
      <rect
         style="fill:#666666;fill-opacity:0.330645;stroke:none;stroke-width:3;stroke-linecap:round;stroke-miterlimit:4;stroke-dasharray:none;stroke-opacity:1"
         id="rect3347"
         width="6.614583"
         height="2.3812499"
         x="153.01944"
         y="119.47694" />
      <rect
         style="fill:#666666;fill-opacity:0.330645;stroke:none;stroke-width:3;stroke-linecap:round;stroke-miterlimit:4;stroke-dasharray:none;stroke-opacity:1"
         id="rect3349"
         width="6.614583"
         height="2.3812499"
         x="160.8304"
         y="119.47694" />
      <rect
         style="fill:#666666;fill-opacity:0.330645;stroke:none;stroke-width:3;stroke-linecap:round;stroke-miterlimit:4;stroke-dasharray:none;stroke-opacity:1"
         id="rect3351"
         width="6.614583"
         height="2.3812499"
         x="164.80603"
         y="122.5639" />
      <rect
         style="fill:#666666;fill-opacity:0.330645;stroke:none;stroke-width:3;stroke-linecap:round;stroke-miterlimit:4;stroke-dasharray:none;stroke-opacity:1"
         id="rect3353"
         width="6.614583"
         height="2.3812499"
         x="159.19337"
         y="125.83796" />
      <rect
         style="fill:#666666;fill-opacity:0.330645;stroke:none;stroke-width:3;stroke-linecap:round;stroke-miterlimit:4;stroke-dasharray:none;stroke-opacity:1"
         id="rect3355"
         width="6.614583"
         height="2.3812499"
         x="167.42528"
         y="125.9315" />
      <path
         style="fill:#ececec;fill-opacity:0.108871;stroke:none;stroke-width:0.264583px;stroke-linecap:butt;stroke-linejoin:miter;stroke-opacity:1"
         d="M 61.533911,3.0428428 C 63.650577,0.39700954 161.28183,-99.615489 161.28183,-99.615489 l -101.183469,0.223361 z"
         id="path3357" />
      <path
         style="fill:none;stroke:url(#radialGradient3428);stroke-width:1;stroke-linecap:butt;stroke-linejoin:miter;stroke-miterlimit:4;stroke-dasharray:none;stroke-opacity:1"
         d="m 83.7006,46.032819 c -0.759655,0.02703 -1.405277,-0.02109 -2.011203,0.280643 -0.05921,0.02948 -0.08665,0.101636 -0.140309,0.140309 -0.08485,0.06115 -0.19976,0.074 -0.280643,0.140308 -0.137471,0.112697 -0.246942,0.262441 -0.327396,0.420952 -0.05137,0.101218 -0.05241,0.221635 -0.09356,0.327422 -0.101109,0.259919 -0.32056,0.474657 -0.374173,0.748348 -0.117232,0.598461 -0.01503,1.234397 0.140308,1.824116 0.140348,0.532818 0.319073,1.100124 0.701596,1.496695 0.450195,0.466728 1.10025,0.736302 1.73056,0.888683 0.530397,0.128226 1.097599,0.08233 1.63703,0 0.258355,-0.03943 0.505963,-0.136133 0.748348,-0.233865 0.161666,-0.06518 0.352156,-0.103376 0.46773,-0.233866 0.58753,-0.663355 0.92182,-1.618274 0.892963,-2.503937 -0.02957,-0.907503 -0.488236,-1.812069 -1.080053,-2.500683 -0.09587,-0.111547 -0.249766,-0.155406 -0.374174,-0.233865 -0.171943,-0.108437 -0.319334,-0.270563 -0.514508,-0.327395 -0.02993,-0.0087 -0.06319,0.0072 -0.09353,0 -0.135716,-0.03204 -0.238457,-0.155049 -0.374173,-0.187087 -0.06069,-0.01433 -0.14299,0.0441 -0.187087,0 -0.01103,-0.01103 0.0087,-0.03387 0,-0.04678 -0.04707,-0.06952 -0.149907,-0.09353 -0.233865,-0.09353 -0.08396,0 -0.233863,0.0096 -0.233866,0.09353 0,2e-6 7e-6,2e-6 5e-6,2e-6 z"
         id="path3412"
         sodipodi:nodetypes="saaaaaaaaaaaaaaaaaaaaaas" />
      <path
         style="fill:none;stroke:url(#radialGradient3432);stroke-width:1;stroke-linecap:butt;stroke-linejoin:miter;stroke-miterlimit:4;stroke-dasharray:none;stroke-opacity:1"
         d="m 138.51758,46.219905 c -0.77435,0.05689 -1.56546,-0.07027 -2.3386,0 -0.38663,0.03516 -0.67937,0.243073 -1.02899,0.374174 -0.12038,0.04516 -0.25918,0.03606 -0.37417,0.09356 -0.5012,0.250587 -0.74671,1.02481 -0.93546,1.496695 -0.0882,0.220504 -0.22305,0.424444 -0.28062,0.654817 -0.0378,0.151262 0.022,0.313399 0,0.46773 -0.0899,0.628915 -0.5126,1.406975 -0.18709,2.057983 0.0967,0.193357 0.27239,0.524589 0.46771,0.65479 1.1135,0.742342 4.21912,0.832274 5.0514,0"
         id="path3416" />
      <path
         style="fill:none;stroke:url(#radialGradient3434);stroke-width:1;stroke-linecap:butt;stroke-linejoin:miter;stroke-miterlimit:4;stroke-dasharray:none;stroke-opacity:1"
         d="m 165.17771,45.939288 c -1.3916,-0.0037 -3.10512,-0.113109 -3.92885,1.122522 -0.0542,0.08131 0,0.471831 0,0.56126 0,0.187801 -0.0616,0.499666 0.0935,0.654817 0.022,0.02196 0.0796,-0.02789 0.0936,0 0.0279,0.05577 -0.0279,0.131313 0,0.187087 0.014,0.02789 0.0656,-0.01402 0.0935,0 0.38931,0.194654 -0.1,-0.0063 0.0936,0.187087 0.0441,0.04411 0.12657,-0.01508 0.18708,0 0.22022,0.05506 0.43458,0.132027 0.65482,0.187087 1.05312,0.263287 2.52529,0.37301 2.89986,1.496722 0.0486,0.145811 0.0407,0.585602 0,0.748347 0.0564,0.169307 -0.15153,0.173964 -0.18709,0.280644 -0.0196,0.05916 0.0441,0.14298 0,0.187086 -0.23352,0.233495 -0.82986,0.183066 -1.12252,0.280617 -0.13229,0.04411 -0.24471,0.135308 -0.3742,0.187087 -0.39711,0.158856 -2.22911,0.174176 -2.71277,0.09356 -0.13756,-0.02302 -0.23744,-0.159755 -0.37417,-0.187087 -0.0917,-0.01826 -0.19191,0.02958 -0.28065,0 -0.0296,-0.0098 0.0279,-0.07961 0,-0.09356 -0.18732,-0.09366 -0.40761,-0.01667 -0.56126,-0.09353 -0.11948,-0.05974 -0.094,-0.18751 -0.18709,-0.280643"
         id="path3418" />
      <path
         style="fill:none;stroke:url(#radialGradient3430);stroke-width:1;stroke-linecap:round;stroke-linejoin:miter;stroke-miterlimit:4;stroke-dasharray:none;stroke-opacity:1"
         d="m 107.01666,53.656681 c 0.0784,-0.425783 0.0718,-0.932649 0.0233,-1.332997 -0.0533,-0.231061 -0.11864,-0.439737 -0.14034,-0.678206 -0.0555,-0.611056 -0.0233,-1.234361 -0.0233,-1.847506 0,-0.471938 -0.0381,-0.957104 0,-1.426528 0.0568,-0.700749 0.0808,-0.309113 0.11692,-0.95885 0.007,-0.132318 -0.007,-0.265245 0,-0.397563 0.0228,-0.410765 0.12959,-0.807323 0.16369,-1.216078 0.006,-0.0699 -0.005,-0.140496 0,-0.210476 0.003,-0.03964 0.0153,-0.07795 0.0233,-0.116919 0.36834,-0.263095 -0.0868,0.05129 0.51448,-0.304012 0.0577,-0.03411 0.10526,-0.08405 0.16371,-0.11693 0.28102,-0.158074 0.59509,-0.245735 0.88867,-0.374177 0.0639,-0.02795 0.12054,-0.07275 0.18709,-0.09354 0.06,-0.01875 0.12591,-0.009 0.18709,-0.02339 0.4807,-0.160236 -0.006,-0.02254 0.35079,-0.07016 0.22309,-0.02975 0.1618,-0.05298 0.35079,-0.07016 0.26692,-0.02427 0.55101,0 0.81851,0 0.36596,0 0.82036,-0.06154 1.16931,0.09354 0.14375,0.06389 0.23129,0.187694 0.35079,0.280633 0.0359,0.02791 0.0831,0.03975 0.11693,0.07016 0.10346,0.09312 0.11613,0.162908 0.21047,0.257247 0.0276,0.02756 0.0682,0.04057 0.0935,0.07016 0.0409,0.04772 0.0543,0.114627 0.0935,0.163703 0.24377,0.304716 0.23386,0.674988 0.23386,1.052374 0,0.115436 0.017,0.239622 -0.0234,0.350791 -0.0743,0.204196 -0.23488,0.549629 -0.37417,0.701583 -0.11531,0.125786 -0.24183,0.228139 -0.37418,0.327405 -0.0529,0.03969 -0.0874,0.100629 -0.14032,0.140316 -0.10049,0.07537 -0.22289,0.117414 -0.3274,0.187089 -0.16615,0.110766 -0.33226,0.218263 -0.5145,0.304019 -0.276,0.129886 -0.58256,0.190931 -0.86528,0.304019 -0.27095,0.10838 -0.54959,0.214172 -0.81851,0.327405 -0.10287,0.04331 -0.19913,0.102174 -0.30402,0.140317 -0.24243,0.08815 -0.52006,0.113365 -0.77174,0.163702 -0.11757,2.65e-4 -0.21611,0.07128 -0.32741,0.09354 -0.15304,0.03061 -0.29444,0.02536 -0.44433,0.04677 -0.99009,0.297729 -0.30369,0.362743 0.44443,0.631433 0.91583,0.381596 1.87562,0.680561 2.75956,1.122532 0.0755,0.03774 0.11251,0.09442 0.18709,0.140317 0.15595,0.09597 0.31258,0.18191 0.46772,0.280633 0.087,0.05536 0.19679,0.08043 0.28063,0.140316 0.11469,0.08192 0.24056,0.199979 0.37418,0.257247 0.0295,0.01266 0.0648,0.009 0.0935,0.02339 0.28303,0.141513 -0.0312,0.0097 0.14032,0.11693 0.33876,0.211722 0.008,-0.0079 0.21048,0.09354 0.0954,0.04769 0.17256,0.126601 0.25724,0.187088 0.12397,0.08855 0.1747,0.08735 0.32741,0.163703 l 0.0702,0.04677 c 0,0.0078 -0.006,0.01871 0,0.02339 0.0414,0.03108 0.11901,0.0712 0.1637,0.09354 0.072,0.03598 0.12764,0.163702 0.21047,0.163702"
         id="path3420"
         sodipodi:nodetypes="ccssscccccsssscsssssssscsssssssssscsccssssscssscccsc" />
    </g>
  </g>
</svg>
