<?xml version="1.0" encoding="UTF-8" standalone="no"?>
<svg
   xmlns:dc="http://purl.org/dc/elements/1.1/"
   xmlns:cc="http://creativecommons.org/ns#"
   xmlns:rdf="http://www.w3.org/1999/02/22-rdf-syntax-ns#"
   xmlns:svg="http://www.w3.org/2000/svg"
   xmlns="http://www.w3.org/2000/svg"
   xmlns:xlink="http://www.w3.org/1999/xlink"
   xmlns:sodipodi="http://sodipodi.sourceforge.net/DTD/sodipodi-0.dtd"
   xmlns:inkscape="http://www.inkscape.org/namespaces/inkscape"
   width="210mm"
   height="297mm"
   viewBox="0 0 210 297"
   version="1.1"
   id="svg2022"
   inkscape:version="1.0.1 (0767f8302a, 2020-10-17)"
   sodipodi:docname="tiles.svg">
  <defs
     id="defs2016">
    <linearGradient
       inkscape:collect="always"
       xlink:href="#linearGradient1485"
       id="linearGradient1589"
       gradientUnits="userSpaceOnUse"
       x1="-281.11215"
       y1="354.33878"
       x2="-289.36197"
       y2="361.54004" />
    <linearGradient
       inkscape:collect="always"
       id="linearGradient1485">
      <stop
         style="stop-color:#ffffff;stop-opacity:1;"
         offset="0"
         id="stop1481" />
      <stop
         style="stop-color:#000000;stop-opacity:1"
         offset="1"
         id="stop1483" />
    </linearGradient>
    <linearGradient
       inkscape:collect="always"
       xlink:href="#linearGradient1485"
       id="linearGradient1662"
       gradientUnits="userSpaceOnUse"
       gradientTransform="translate(91.406153,-67.886618)"
       x1="-75.442467"
       y1="319.79749"
       x2="-75.410072"
       y2="322.87109" />
    <linearGradient
       inkscape:collect="always"
       xlink:href="#linearGradient1485"
       id="linearGradient1660"
       gradientUnits="userSpaceOnUse"
       gradientTransform="translate(80.163905,-65.040108)"
       x1="-27.289312"
       y1="295.71176"
       x2="-23.042341"
       y2="300.15298" />
  </defs>
  <sodipodi:namedview
     id="base"
     pagecolor="#ffffff"
     bordercolor="#666666"
     borderopacity="1.0"
     inkscape:pageopacity="0.0"
     inkscape:pageshadow="2"
     inkscape:zoom="1"
     inkscape:cx="275.01125"
     inkscape:cy="355.15741"
     inkscape:document-units="mm"
     inkscape:current-layer="layer1"
     inkscape:document-rotation="0"
     showgrid="false"
     inkscape:window-width="1920"
     inkscape:window-height="978"
     inkscape:window-x="0"
     inkscape:window-y="27"
     inkscape:window-maximized="1" />
  <metadata
     id="metadata2019">
    <rdf:RDF>
      <cc:Work
         rdf:about="">
        <dc:format>image/svg+xml</dc:format>
        <dc:type
           rdf:resource="http://purl.org/dc/dcmitype/StillImage" />
        <dc:title />
      </cc:Work>
    </rdf:RDF>
  </metadata>
  <g
     inkscape:label="Layer 1"
     inkscape:groupmode="layer"
     id="layer1">
    <rect
       style="display:inline;fill:#000000;fill-opacity:1;stroke-width:0.51389;stroke-linecap:round"
       id="rect1573"
       width="33.866665"
       height="33.866665"
       x="70.646225"
       y="131.43285"
       inkscape:export-filename="/home/dtejaswi/repos/python/pyweek31/resources/images/tiles/stage/stage_0.png"
       inkscape:export-xdpi="96"
       inkscape:export-ydpi="96" />
    <g
       id="g1587"
       transform="matrix(0.99986081,0,0,0.99999871,441.95181,-208.16744)"
       style="display:inline"
       inkscape:export-filename="/home/dtejaswi/repos/python/pyweek31/resources/images/tiles/stage/stage_3.png"
       inkscape:export-xdpi="96"
       inkscape:export-ydpi="96">
      <path
         id="path1583"
         style="fill:#000000;fill-opacity:1;stroke:none;stroke-width:0.264583px;stroke-linecap:butt;stroke-linejoin:miter;stroke-opacity:1"
         d="m -264.45562,373.46747 -5e-4,-5.2e-4 -0.0465,-0.0465 c -0.0369,0.006 -0.0746,0.01 -0.0956,-5.1e-4 -0.1378,-0.0689 -0.15304,-0.16851 -0.17465,-0.26975 l -0.19741,-0.19741 c -0.0401,0.008 -0.0796,0.0155 -0.0956,-5.2e-4 -0.0156,-0.0157 0.0159,-0.0514 0,-0.0672 -0.0352,-0.0352 -0.0981,-0.0315 -0.13333,-0.0667 -0.0974,-0.0974 -0.26696,7.4e-4 -0.33435,-0.0667 -0.0334,-0.0334 -0.0333,-0.10044 -0.0667,-0.13383 -0.0157,-0.0157 -0.0565,0.0199 -0.0666,0 -0.0198,-0.0398 0.0199,-0.0934 0,-0.13334 -0.0754,-0.15075 -0.1836,-0.18358 -0.26768,-0.26768 -0.028,-0.028 -0.0463,-0.16001 -0.0667,-0.20051 -0.0259,-0.0517 -0.17992,-0.24388 -0.32401,-0.41857 l -0.35036,-0.35037 c -0.0982,-0.0587 -0.20569,-0.11119 -0.26096,-0.1664 -0.0352,-0.0352 -0.0315,-0.0981 -0.0667,-0.13332 -0.12359,-0.1236 -0.39868,-0.26625 -0.53486,-0.33435 -0.27807,-0.13864 0.0716,0.005 -0.0666,-0.13333 -0.0157,-0.0157 -0.0508,0.0157 -0.0667,0 -0.12433,-0.12432 -0.19997,-0.30652 -0.26768,-0.49609 l -0.82785,-0.82786 c -0.0118,-0.004 -0.0322,-0.008 -0.0403,-0.0124 -0.0175,-0.009 -0.0434,-0.0484 -0.0723,-0.10025 l -1.31257,-1.31258 c -0.0289,-0.0184 -0.0585,-0.036 -0.0853,-0.0574 -0.0656,-0.0525 -0.11063,-0.13415 -0.16796,-0.19586 l -0.0279,-0.0279 c -0.0214,-0.0183 -0.044,-0.0343 -0.0713,-0.0434 -0.5503,-0.18342 0.3165,0.22516 -0.26715,-0.0667 -0.46969,-0.23484 -0.67842,-0.46851 -0.93585,-1.06918 -0.0163,-0.038 -0.028,-0.0842 -0.0383,-0.13333 l -1.52808,-1.52808 c -0.009,-0.002 -0.0362,-0.008 -0.0372,-0.009 -0.006,-0.006 -0.002,-0.0168 0.001,-0.0269 l -0.0646,-0.0646 c -0.0883,-0.0321 -0.0887,7.2e-4 -0.0548,0.0486 -0.044,-0.0478 -0.0824,-0.0911 -0.2155,-0.22428 -0.1601,-0.12006 -0.85945,-0.38258 -0.93536,-0.53434 -0.0199,-0.0398 0.0198,-0.094 0,-0.13383 -0.0422,-0.0845 -0.1415,-0.1267 -0.2005,-0.2005 -0.14946,-0.18683 -0.44021,-0.85475 -0.6015,-0.93535 -0.0399,-0.0199 -0.0967,0.0247 -0.13386,0 -0.0414,-0.0276 -0.0268,-0.10394 -0.0666,-0.13384 -0.1704,-0.1278 -0.26035,0.004 -0.40101,-0.0667 -0.0718,-0.0359 -0.12591,-0.10353 -0.20052,-0.13333 -0.10743,-0.043 -0.29229,-0.0131 -0.40048,-0.0672 -0.0608,-0.0304 -0.63928,-0.68673 -0.66818,-0.73483 -0.0362,-0.0604 -0.0221,-0.1464 -0.0672,-0.2005 -0.0913,-0.10956 -0.27004,-0.13963 -0.33383,-0.26717 -0.0575,-0.11502 0.03,-0.34775 0,-0.46767 -0.0463,-0.18537 -0.0611,0.006 -0.13385,-0.0667 -0.0352,-0.0352 -0.0278,-0.10274 -0.0667,-0.13384 -0.19375,-0.155 -0.45767,-0.11861 -0.6015,-0.33435 -0.12602,-0.18902 -0.20458,-0.40712 -0.33383,-0.601 -0.22161,-0.33243 -0.52816,-0.62529 -0.73485,-0.93534 -0.0122,-0.0184 -0.0219,-0.039 -0.0315,-0.0594 l -2.78535,-2.78536 c -0.0146,-0.008 -0.0449,-0.0208 -0.0563,-0.0284 -0.15449,-0.10302 -0.30049,-0.25075 -0.46768,-0.33435 -0.13554,-0.0678 -0.41021,0.0831 -0.53485,0 -0.0524,-0.0349 -0.0809,-0.0984 -0.13333,-0.13332 -0.037,-0.0247 -0.0967,0.0247 -0.13385,0 -0.27733,-0.18491 -0.74631,-0.9355 -0.802,-1.26969 -0.0103,-0.0619 0.004,-0.1967 0.0176,-0.34468 l -1.04902,-1.04904 c -0.0373,-0.0234 -0.0724,-0.0491 -0.10441,-0.0765 -0.0493,-0.0422 -0.0868,-0.0954 -0.12247,-0.15039 l -0.23202,-0.23202 c -0.16531,-0.0355 -0.40515,-0.0685 -0.44701,-0.0853 -0.18886,-0.0755 -0.39923,-0.66641 -0.60151,-0.86868 -0.13895,-0.13896 -0.44584,-0.24481 -0.60153,-0.40049 -0.1189,-0.11894 -0.1031,-0.31435 -0.33382,-0.46818 -0.0902,-0.0601 -0.41616,-0.097 -0.46765,-0.2 -0.11205,-0.22415 -0.12565,-0.40622 -0.15195,-0.58084 l -0.39428,-0.39429 c -0.0523,-0.007 -0.0995,-0.0145 -0.12195,-0.0274 -0.18018,-0.10296 -0.31364,-0.30242 -0.41238,-0.50695 l -0.69712,-0.69711 c -0.0832,-0.0151 -0.16219,-0.0333 -0.22686,-0.0656 -0.13327,-0.0667 -0.26773,-0.20057 -0.401,-0.26717 -0.16415,-0.082 -0.42971,-0.0646 -0.60153,-0.13331 -0.32298,-0.12919 -0.69842,-0.24923 -1.002,-0.40102 -0.22665,-0.11331 -0.27104,-0.88271 -0.33436,-1.13585 -0.0557,-0.22291 -0.23992,-0.19351 -0.33382,-0.33435 -0.0276,-0.0414 -0.0444,-0.0887 -0.0666,-0.13332 0,-0.0222 0.0124,-0.0487 0,-0.0672 -0.0349,-0.0524 -0.10565,-0.0769 -0.13385,-0.13333 -0.0448,-0.0897 0.032,-0.23824 0,-0.33434 -0.0172,-0.0518 -0.0406,-0.10581 -0.0661,-0.16072 l -1.6955,-1.6955 c -0.0415,0.003 -0.0798,4.3e-4 -0.10957,-0.0145 -0.0446,-0.0223 -0.022,-0.11154 -0.0666,-0.13384 -0.2076,-0.1038 -0.53965,0.0309 -0.73486,-0.0667 -0.31797,-0.15898 -0.31869,-0.52678 -0.6015,-0.66818 -0.0769,-0.0384 -0.21397,-0.0451 -0.26718,-0.13384 -0.0668,-0.11137 -0.15938,-0.21063 -0.2005,-0.33383 -0.027,-0.0809 0.001,-0.38955 0.0114,-0.61805 l -0.77775,-0.77773 c -0.19178,-0.12701 -0.36769,-0.27197 -0.48471,-0.48473 v 33.86667 z m -8.92968,-8.81703 c -0.0122,-0.009 -0.0547,-0.0523 -0.0832,-0.092 0.044,0.0479 0.0924,0.0989 0.0832,0.092 z" />
      <path
         style="fill:none;stroke:url(#linearGradient1589);stroke-width:0.803733;stroke-linecap:round;stroke-linejoin:miter;stroke-miterlimit:4;stroke-dasharray:none;stroke-opacity:1"
         d="m -297.92515,340.00778 c 0.0607,0.18097 0.0949,0.37319 0.18224,0.54292 0.0433,0.084 0.14142,0.12666 0.20045,0.20045 0.16332,0.20415 -0.0865,0.0926 0.0293,0.32411 0.10106,0.20211 0.0159,0.39767 0.0668,0.60134 0.0434,0.17344 0.25632,0.24752 0.30874,0.40479 0.0141,0.0423 -0.0199,0.0938 0,0.13364 0.004,0.008 0.2477,0.22408 0.33409,0.26726 0.0802,0.0401 0.12027,0.16036 0.20045,0.20045 0.1252,0.0626 0.32645,0.15338 0.46772,0.20045 0.10023,0.0334 0.23386,-0.0334 0.33409,0 0.21428,0.0714 0.46315,0.0653 0.66817,0.13364 0.23571,0.0786 0.39911,0.23296 0.60136,0.33409 0.14183,0.0709 0.37842,0.71249 0.53454,0.86862 0.065,0.065 0.52534,0.31568 0.53454,0.33409 0.0411,0.0821 0.0327,0.18201 0.0668,0.26726 0.0234,0.0585 0.10547,0.0773 0.13364,0.13364 0.0677,0.13541 0.007,0.45127 0.0668,0.60137 0.008,0.0206 0.0545,-0.0185 0.0668,0 0.0995,0.14933 0.20933,0.62799 0.26726,0.80179 0.0413,0.12404 0.14212,0.0169 0.20046,0.13365 0.15261,0.30522 1.00861,0.77157 1.33634,0.93543 0.0919,0.0459 0.24411,0.0308 0.33409,0.0668 0.14433,0.0577 0.53291,0.2439 0.66817,0.33409 0.079,0.0526 0.0935,0.16034 0.13364,0.20045 0.0352,0.0352 0.0984,0.0316 0.13363,0.0668 0.15661,0.15661 0.32747,0.46111 0.46773,0.60137 0.13151,0.1315 0.3594,0.29258 0.46772,0.4009 0.0803,0.0803 0.016,0.23251 0.0668,0.33409 0.0825,0.16504 0.27723,0.36396 0.33409,0.53453 0.0141,0.0423 -0.0199,0.0938 0,0.13365 10e-4,0.003 0.38168,0.32255 0.40091,0.33408 0.0393,0.0236 0.29223,0.0918 0.33408,0.13362 0.0352,0.0352 0.0254,0.10602 0.0668,0.13364 0.0371,0.0246 0.0923,-0.0164 0.13364,0 0.23401,0.0936 0.60643,0.3212 0.8018,0.46773 0.0178,0.0135 -0.0157,0.0511 0,0.0668 0.0158,0.0159 0.0446,0 0.0668,0 0.0223,0.0222 0.0494,0.0406 0.0668,0.0668 0.0622,0.0932 0.022,0.20013 0.0668,0.26728 0.0349,0.0524 0.10546,0.0773 0.13363,0.13364 0.0659,0.13184 0.0646,0.33181 0.20045,0.4677 0.26465,0.26466 0.64536,0.41558 1.00226,0.53454 0.0634,0.0212 0.13707,-0.0212 0.20046,0 0.0896,0.0299 0.12485,0.14377 0.20045,0.20047 0.0901,0.0676 0.25493,0.12129 0.33408,0.20045 0.0715,0.0715 -0.0212,0.53766 0,0.60135 0.0768,0.23026 0.0945,0.52311 0.20046,0.73498 0.0803,0.16063 0.18696,0.30713 0.26727,0.46773 0.0315,0.063 0.017,0.15066 0.0668,0.20045 0.31449,0.31449 0.81995,-0.0243 1.1359,0.13364 0.52529,0.26266 0.87035,0.73671 1.26953,1.13589 0.0717,0.0717 0.26559,0.0635 0.33409,0.20047 0.0886,0.17725 0.38075,0.64802 0.53454,0.80179 0.0157,0.0156 0.0511,-0.0159 0.0668,0 0.0848,0.0848 0.0568,0.24197 0.13364,0.33409 0.0514,0.0617 0.14367,0.0769 0.20045,0.13364 0.12759,0.12759 0.16669,0.33362 0.26727,0.46774 0.0423,0.0563 0.16895,0.004 0.20045,0.0668 0.0199,0.0399 -0.0141,0.0914 0,0.13364 0.0199,0.0598 0.0987,0.0812 0.13364,0.13362 0.0553,0.0829 0.0632,0.19685 0.13363,0.26728 0.0649,0.0649 0.35242,0.26136 0.4009,0.33409 0.0553,0.0829 0.0632,0.19682 0.13364,0.26726 0.12102,0.12102 0.29568,0.24307 0.4009,0.40092 0.0676,0.10141 0.0857,0.23823 0.13364,0.33409 0.0282,0.0563 0.11371,0.0739 0.13363,0.13361 0.0141,0.0423 -0.0141,0.0914 0,0.13364 0.0633,0.19 0.40198,0.53563 0.53454,0.66818 0.2117,0.2117 0.79343,0.45096 0.93545,0.73499 0.0758,0.15168 0.21585,0.38031 0.26726,0.53454 0.0141,0.0423 -0.0315,0.10213 0,0.13364 0.0315,0.0315 0.0966,-0.0246 0.13364,0 0.35636,0.23757 -0.245,0.052 0.20045,0.20045 0.55915,0.18637 0.75951,-0.30957 1.40317,0.33408 0.0939,0.0939 0.20055,0.26737 0.26727,0.33409 0.0157,0.0159 0.0545,-0.0185 0.0668,0 0.0626,0.094 0.12337,0.32383 0.20046,0.4009 0.0157,0.0156 0.0445,0 0.0668,0 0.0223,0.0222 0.0494,0.0406 0.0668,0.0668 0.13206,0.1981 0.17377,0.36418 0.4009,0.53454 0.36755,0.27565 0.911,0.66001 1.33635,0.8018 0.0423,0.014 0.0938,-0.0199 0.13364,0 0.0272,0.0138 0.0917,0.45077 0.13363,0.53453 0.13845,0.27692 0.27721,0.5478 0.46773,0.80182 0.12521,0.16696 0.32282,0.38963 0.46772,0.53454 0.13824,0.13825 -0.005,-0.21127 0.13363,0.0668 0.0199,0.0398 -0.0315,0.10215 0,0.13364 0.35247,0.35248 0.92979,0.32843 1.26953,0.66818 0.24991,0.2499 0.27978,0.68066 0.53454,0.93543 0.0157,0.0156 0.0511,-0.0159 0.0668,0 0.0917,0.0917 0.22548,0.33197 0.33408,0.46773 0.3136,0.39201 0.89836,0.71644 1.33635,0.93544 0.10794,0.054 0.26583,0.51035 0.33409,0.60137 0.0299,0.0398 0.0984,0.0316 0.13363,0.0668 0.0524,0.0524 0.12678,0.39404 0.26727,0.53453 0.18209,0.18209 0.38705,0.307 0.60136,0.46773 1.20023,1.09631 0.51101,0.52498 0.81962,0.71661 0.24058,0.14939 0.77598,0.3698 0.78538,0.3258"
         id="path1585"
         sodipodi:nodetypes="cssssssssssssssssccscsssscsssscsscccsccssssssscssssssscssscsssssssscsssscssccsccscccssscsscssssscac" />
    </g>
    <g
       id="g1569"
       transform="matrix(0.98412327,0,0,0.97860594,36.779597,-114.66714)"
       style="display:inline"
       inkscape:export-filename="/home/dtejaswi/repos/python/pyweek31/resources/images/tiles/stage/stage_1.png"
       inkscape:export-xdpi="96"
       inkscape:export-ydpi="96">
      <path
         id="path1565"
         style="fill:#000000;fill-opacity:1;stroke-width:0.520593;stroke-linecap:round"
         d="m -3.9440163e-5,251.88318 v 34.20404 H 34.412994 v -34.20404 c -0.752062,0.055 -0.580943,0.36497 -0.902648,0.47596 -0.620717,0.21421 -0.816192,0.10427 -1.939199,0.35231 -0.312441,0.069 -1.606818,0.89978 -1.833129,0.67484 -0.539679,-0.53685 -0.297103,-0.53966 -1.086435,-0.53966 -2.372496,0 -1.603107,0.26981 -3.971866,0.26981 -0.360848,0 -1.767069,-0.37273 -1.86726,-0.47232 -0.362057,-0.35987 -2.916322,-0.24521 -3.394778,0.0674 0,0 -2.341788,0.71551 -3.122779,0.40499 -0.600238,-0.23859 -0.741807,-0.47393 -1.357911,-0.26981 -0.192038,0.0636 -0.345872,0.22618 -0.543478,0.26981 -0.944181,0.20857 -0.945308,-0.4715 -1.883015,-0.23851 -0.609984,0.15162 -0.919873,0.32664 -1.629388,0.40503 -0.392197,0.0433 -0.787345,-0.50447 -1.4939131,-0.27038 -0.5611797,0.18595 -0.7773548,-0.69953 -1.3610623,-0.58347 -0.069402,0.0139 -0.649339,0.0718 -0.6962842,0.11845 -0.032008,0.0318 -0.1814834,-0.10873 -0.3875246,-0.15447 -0.093687,-0.0208 -0.4777027,0.052 -0.5455803,0.11952 -0.2283657,0.22701 -0.081258,0.19558 -0.565009,0.29176 -0.7447948,0.14806 -0.9455459,-0.66343 -1.4372019,-0.50053 -0.3244106,0.10747 -1.7954664,0.84804 -2.2070003,0.64351 -0.9460401,-0.47014 -1.0742152,-0.95745 -2.187571740163,-1.06417 z" />
      <path
         style="fill:none;stroke:url(#linearGradient1662);stroke-width:0.806432;stroke-linecap:round;stroke-linejoin:miter;stroke-miterlimit:4;stroke-dasharray:none;stroke-opacity:1"
         d="m 0.40309257,251.93378 c 0.111374,0.0729 0.213533,0.1624 0.334123,0.21881 0.115647,0.0541 0.68247643,-0.10091 0.79958443,0.0162 0.03522,0.0352 0.02538,0.106 0.06682,0.13363 0.03706,0.0247 0.09657,-0.0247 0.133635,0 0.04144,0.0276 0.0316,0.0984 0.06682,0.13363 0.09563,0.0956 0.350617,0.18323 0.400905,0.33409 0.05126,0.15378 0.03277,0.18343 0.200452,0.26727 0.186425,0.0932 0.834151,5.3e-4 1.00226,-0.0668 0.12399,-0.0496 0.431734,-0.23128 0.534539,-0.33408 0.01575,-0.0158 -0.01853,-0.0545 0,-0.0668 0.0586,-0.0391 0.137457,-0.0353 0.200453,-0.0668 0.04454,-0.0223 0.02227,-0.11136 0.06682,-0.13363 0.03984,-0.0199 0.09138,-0.0141 0.133635,0 0.05976,0.0199 0.08122,0.0987 0.133634,0.13363 0.407537,0.27169 0.726165,0.53675 1.269531,0.40091 0.160003,-0.04 0.551877,-0.0338 0.601356,-0.0668 0.05242,-0.0349 0.08122,-0.0987 0.133635,-0.13363 0.07942,-0.053 0.247523,0.0433 0.334087,0 0.05634,-0.0282 0.07729,-0.10547 0.133635,-0.13364 0.04698,-0.0235 1.330986,-0.003 1.336347,0 0.01992,0.01 -0.01575,0.0511 0,0.0668 0.0584,0.0584 0.267946,0.0337 0.334087,0.0668 0.472732,0.23636 -0.249568,0.0545 0.334087,0.20045 0.05545,0.0139 0.149835,-0.0253 0.200452,0 0.488296,0.24414 1.690916,0.54612 2.271791,0.4009 0.128841,-0.0322 0.230442,-0.13135 0.334087,-0.20045 0.305536,-0.20369 0.891015,-0.26354 1.26953,-0.20045 0.192151,0.032 0.414698,0.0714 0.601357,0.13363 0.432,0.144 1.671449,-0.1067 2.204973,0 0.21997,0.044 0.450972,0.21297 0.668174,0.26727 0.08643,0.0216 0.187585,-0.0398 0.26727,0 0.214119,0.10706 0.409712,0.20045 0.668174,0.20045 0.378704,0 0.945621,0.0823 1.26953,-0.13363 0.262008,-0.17467 0.549534,-0.45477 0.868626,-0.53454 0.03947,-0.01 0.370618,-0.0365 0.400904,-0.0668 0.03522,-0.0352 0.0316,-0.0984 0.06682,-0.13363 0.0315,-0.0315 0.08909,0 0.133635,0 0.276512,0 0.72193,-0.0701 1.002261,0 0.173567,0.0434 0.408592,0.15226 0.601356,0.20045 0.108038,0.027 0.22844,-0.0352 0.334087,0 0.142449,0.0475 0.267264,0.23386 0.400904,0.26727 0.06482,0.0162 0.133635,0 0.200453,0 0.06682,0.0445 0.125891,0.10381 0.200452,0.13363 0.04136,0.0165 0.08909,0 0.133634,0 0.06682,0 0.138414,-0.0248 0.200453,0 0.05849,0.0234 0.08122,0.0987 0.133634,0.13364 0.09105,0.0607 0.992756,0 1.135896,0 0.160724,0 0.505949,0.0541 0.668174,0 0.190057,-0.0634 0.45284,-0.15739 0.668174,-0.20045 0.06552,-0.0131 0.137063,0.0211 0.200452,0 0.07618,-0.0254 0.125891,-0.10381 0.200452,-0.13364 0.04136,-0.0165 0.09228,0.0165 0.133635,0 0.17342,-0.0694 0.361546,-0.2096 0.534539,-0.26727 0.170857,-0.0569 0.640477,-0.0323 0.801809,0 0.09005,0.018 0.177221,0.0488 0.267269,0.0668 0.05568,0.0111 0.155908,-0.0223 0.200451,0 0.05635,0.0282 0.07729,0.10546 0.133636,0.13363 0.111344,0.0557 1.912966,-0.0569 1.937705,-0.0668 0.07456,-0.0298 0.125891,-0.10381 0.200451,-0.13364 0.192312,-0.0769 0.414935,0.0264 0.601355,-0.0668 0.140507,-0.0703 0.689396,-0.0281 0.801809,0 0.06682,0.0223 0.133636,0.0445 0.200454,0.0668 0,0.0223 -0.01992,0.0569 0,0.0668 0.0844,0.0422 0.578377,0.0449 0.668174,0 0.163917,-0.082 -0.09227,-0.25213 0.07164,-0.33409 0.0405,-0.0202 0.172453,-0.0388 0.200454,-0.0668 0.0315,-0.0315 -0.0315,-0.10213 0,-0.13363 0.03873,-0.0387 0.228542,-0.0949 0.267269,-0.13363 0.02924,-0.0292 0.162787,-0.25125 0.190706,-0.28547"
         id="path1567"
         sodipodi:nodetypes="csssscsscscssccsccsscccscsssssscsscssssssscsssssssscccssssssccccscsssc" />
    </g>
    <g
       id="g1579"
       transform="matrix(0.99999871,0,0,1.0000049,73.292119,-86.585071)"
       style="display:inline"
       inkscape:export-filename="/home/dtejaswi/repos/python/pyweek31/resources/images/tiles/stage/stage_2.png"
       inkscape:export-xdpi="96"
       inkscape:export-ydpi="96">
      <path
         id="path1575"
         style="fill:#000000;fill-opacity:1;stroke:none;stroke-width:0.264583px;stroke-linecap:butt;stroke-linejoin:miter;stroke-opacity:1"
         d="m 67.73338,218.01684 -5.2e-4,5e-4 -0.0465,0.0465 c 0.006,0.0369 0.01,0.0746 -5.1e-4,0.0956 -0.0689,0.1378 -0.16851,0.15304 -0.26975,0.17465 l -0.19741,0.19741 c 0.008,0.0401 0.0155,0.0796 -5.2e-4,0.0956 -0.0157,0.0156 -0.0514,-0.0159 -0.0672,0 -0.0352,0.0352 -0.0315,0.0981 -0.0667,0.13333 -0.0974,0.0974 7.4e-4,0.26696 -0.0667,0.33435 -0.0334,0.0334 -0.10044,0.0333 -0.13384,0.0667 -0.0157,0.0157 0.0199,0.0565 0,0.0666 -0.0398,0.0198 -0.0934,-0.0199 -0.13333,0 -0.15076,0.0754 -0.18358,0.1836 -0.26768,0.26768 -0.028,0.028 -0.16001,0.0463 -0.20051,0.0667 -0.0517,0.0259 -0.24388,0.17992 -0.41857,0.32401 l -0.35037,0.35036 c -0.0587,0.0982 -0.11119,0.20569 -0.1664,0.26096 -0.0352,0.0352 -0.0981,0.0315 -0.13332,0.0667 -0.1236,0.12359 -0.26625,0.39868 -0.33435,0.53486 -0.13864,0.27807 0.005,-0.0716 -0.13333,0.0666 -0.0157,0.0157 0.0157,0.0508 0,0.0667 -0.12432,0.12433 -0.30652,0.19997 -0.49609,0.26768 l -0.82786,0.82785 c -0.004,0.0118 -0.008,0.0322 -0.0124,0.0403 -0.009,0.0175 -0.0484,0.0434 -0.10025,0.0723 l -1.31258,1.31258 c -0.0184,0.0289 -0.036,0.0585 -0.0574,0.0853 -0.0525,0.0656 -0.13415,0.11062 -0.19586,0.16796 l -0.0279,0.0279 c -0.0183,0.0214 -0.0343,0.044 -0.0434,0.0713 -0.18342,0.5503 0.22516,-0.3165 -0.0667,0.26715 -0.23485,0.46969 -0.46851,0.67842 -1.06919,0.93585 -0.038,0.0163 -0.0842,0.028 -0.13332,0.0383 l -1.52808,1.52808 c -0.002,0.009 -0.008,0.0362 -0.009,0.0372 -0.006,0.006 -0.0168,0.002 -0.0269,-0.001 l -0.0646,0.0646 c -0.0321,0.0883 7.2e-4,0.0887 0.0486,0.0548 -0.0478,0.044 -0.0911,0.0824 -0.22427,0.2155 -0.12007,0.1601 -0.38258,0.85945 -0.53434,0.93536 -0.0398,0.0199 -0.094,-0.0198 -0.13384,0 -0.0845,0.0422 -0.1267,0.1415 -0.2005,0.2005 -0.18682,0.14946 -0.85475,0.44021 -0.93535,0.6015 -0.0199,0.0399 0.0247,0.0967 0,0.13386 -0.0276,0.0414 -0.10394,0.0268 -0.13384,0.0666 -0.1278,0.1704 0.004,0.26035 -0.0667,0.40101 -0.0359,0.0718 -0.10353,0.12591 -0.13333,0.20052 -0.043,0.10743 -0.0131,0.29229 -0.0672,0.40048 -0.0304,0.0608 -0.68674,0.63928 -0.73484,0.66818 -0.0604,0.0362 -0.1464,0.0221 -0.2005,0.0672 -0.10956,0.0913 -0.13962,0.27004 -0.26717,0.33383 -0.11502,0.0575 -0.34775,-0.03 -0.46767,0 -0.18537,0.0463 0.006,0.0611 -0.0667,0.13385 -0.0352,0.0352 -0.10274,0.0278 -0.13384,0.0667 -0.155,0.19375 -0.11861,0.45767 -0.33435,0.6015 -0.18902,0.12602 -0.40712,0.20458 -0.601,0.33383 -0.33243,0.22161 -0.62529,0.52816 -0.93534,0.73485 -0.0184,0.0122 -0.039,0.0219 -0.0594,0.0315 l -2.78536,2.78535 c -0.008,0.0146 -0.0208,0.0449 -0.0284,0.0563 -0.10301,0.15449 -0.25075,0.30049 -0.33435,0.46768 -0.0678,0.13554 0.0831,0.41021 0,0.53485 -0.0349,0.0524 -0.0984,0.0809 -0.13332,0.13333 -0.0247,0.037 0.0247,0.0967 0,0.13385 -0.18491,0.27733 -0.9355,0.74631 -1.26969,0.802 -0.0619,0.0103 -0.1967,-0.004 -0.34468,-0.0176 l -1.04904,1.04902 c -0.0234,0.0373 -0.0491,0.0724 -0.0765,0.10441 -0.0422,0.0493 -0.0954,0.0868 -0.15038,0.12247 l -0.23202,0.23202 c -0.0355,0.16531 -0.0685,0.40515 -0.0853,0.44701 -0.0755,0.18886 -0.66641,0.39923 -0.86868,0.60151 -0.13896,0.13895 -0.24481,0.44584 -0.40049,0.60153 -0.11894,0.1189 -0.31436,0.1031 -0.46819,0.33382 -0.0601,0.0902 -0.097,0.41616 -0.19999,0.46765 -0.22415,0.11205 -0.40622,0.12565 -0.58084,0.15195 l -0.39429,0.39428 c -0.007,0.0523 -0.0145,0.0995 -0.0274,0.12195 -0.10296,0.18018 -0.30242,0.31364 -0.50695,0.41238 l -0.69711,0.69712 c -0.0151,0.0832 -0.0333,0.16219 -0.0656,0.22686 -0.0667,0.13327 -0.20057,0.26773 -0.26717,0.401 -0.082,0.16415 -0.0646,0.42971 -0.13332,0.60153 -0.12919,0.32298 -0.24922,0.69842 -0.40101,1.002 -0.11332,0.22665 -0.88271,0.27104 -1.13585,0.33436 -0.22291,0.0557 -0.19351,0.23992 -0.33435,0.33382 -0.0414,0.0276 -0.0887,0.0444 -0.13332,0.0666 -0.0222,0 -0.0487,-0.0124 -0.0672,0 -0.0524,0.0349 -0.0769,0.10565 -0.13333,0.13385 -0.0897,0.0448 -0.23824,-0.032 -0.33434,0 -0.0518,0.0172 -0.10581,0.0406 -0.16072,0.0661 l -1.6955,1.6955 c 0.003,0.0415 4.3e-4,0.0798 -0.0145,0.10957 -0.0223,0.0446 -0.11154,0.022 -0.13384,0.0666 -0.1038,0.2076 0.0309,0.53965 -0.0667,0.73486 -0.15898,0.31797 -0.52678,0.31869 -0.66818,0.6015 -0.0384,0.0769 -0.0451,0.21397 -0.13384,0.26718 -0.11137,0.0668 -0.21063,0.15938 -0.33383,0.2005 -0.0809,0.027 -0.38955,-0.001 -0.61805,-0.0114 l -0.77773,0.77775 c -0.12701,0.19177 -0.27197,0.36769 -0.48473,0.48471 h 33.86667 z m -8.81703,8.92968 c -0.009,0.0122 -0.0523,0.0547 -0.092,0.0832 0.0479,-0.044 0.0989,-0.0924 0.092,-0.0832 z" />
      <path
         style="display:inline;fill:none;stroke:url(#linearGradient1660);stroke-width:0.803426;stroke-linecap:round;stroke-linejoin:miter;stroke-miterlimit:4;stroke-dasharray:none;stroke-opacity:1"
         d="m 34.270152,251.4763 c 0.002,0.059 0.243464,-0.38982 0.543714,-0.53994 0.0282,-0.0141 0.063,0 0.0945,0 0.063,-0.063 0.11486,-0.13957 0.18899,-0.18899 0.1307,-0.0871 0.60624,-0.0446 0.75595,-0.0945 0.14167,-0.0472 0.25137,-0.19907 0.37797,-0.28348 0.0693,-0.0462 0.32409,-0.0406 0.37798,-0.0945 0.19469,-0.19468 0.207839,-0.52904 0.28348,-0.75595 0.0439,-0.13178 0.22483,-0.35517 0.283479,-0.47247 0.0856,-0.17126 0.0578,-0.49753 0.188991,-0.66146 0.12462,-0.15577 0.92111,-0.64954 1.13393,-0.75595 0.0969,-0.0485 0.28108,-0.046 0.37798,-0.0945 0.31867,-0.15933 0.3539,-0.50768 0.66145,-0.66144 0.3772,-0.1886 1.751,-0.33932 1.88989,-0.75596 0.0884,-0.26513 -0.0238,-0.80283 0.0945,-1.03943 0.0398,-0.0797 0.13957,-0.11487 0.18899,-0.18899 0.0591,-0.0886 -0.0485,-0.28093 0,-0.37797 0.13383,-0.26768 0.28114,-0.55995 0.37797,-0.85046 0.0204,-0.0611 0.42783,-0.33333 0.47247,-0.37798 0.0223,-0.0223 0,-0.063 0,-0.0945 0.0315,-0.0315 0.0574,-0.0698 0.0945,-0.0945 0.0476,-0.20818 0.19439,-0.0499 0.28348,-0.0945 0.39326,-0.19662 -0.10101,0.007 0.0945,-0.18899 0.0182,-0.0182 1.02305,-0.93674 1.03943,-0.94493 0.159138,-0.0796 0.326331,-0.21042 0.472474,-0.28349 0.05635,-0.0282 0.144444,0.0445 0.188989,0 0.02228,-0.0223 -0.02228,-0.0722 0,-0.0945 0.06682,-0.0668 0.193836,0.0299 0.283482,0 0.09727,-0.0324 0.747993,-0.40417 0.850445,-0.47247 0.05242,-0.0349 -0.02817,-0.13265 0,-0.18899 0.107376,-0.21475 0.163002,-0.4205 0.283483,-0.66146 0.161409,-0.32282 0.550926,-0.7203 0.850447,-0.94494 0.112689,-0.0845 0.278371,-0.0894 0.377976,-0.18899 0.151934,-0.15193 0.05945,-0.36046 0.283483,-0.47247 0.611883,-0.30594 1.881362,-0.27071 2.267857,-0.85045 0.06511,-0.0977 0.23127,-0.27355 0.28348,-0.37797 0.127077,-0.25415 -0.157694,-0.80289 0,-1.03944 0.204592,-0.30688 0.530537,-0.48545 0.755954,-0.75595 0.108588,-0.13031 0.0949,-0.33134 0.188987,-0.47247 0.184729,-0.2771 0.514577,-0.46219 0.661458,-0.75595 0.01408,-0.0282 0,-0.063 0,-0.0945 0.0315,-0.063 0.05224,-0.13265 0.0945,-0.18899 0.32589,-0.43452 0.788175,-0.49825 1.228421,-0.85045 0.055,-0.044 0.03815,-0.14673 0.0945,-0.18899 0.07968,-0.0598 0.188986,-0.063 0.28348,-0.0945 0.0945,-0.063 0.194802,-0.11805 0.283482,-0.18899 0.102455,-0.082 0.249657,-0.31382 0.377977,-0.37798 0.232734,-0.11636 -0.0853,0.27429 0.283482,-0.0945 0.195512,-0.19551 -0.298768,0.008 0.0945,-0.18899 0.08572,-0.0429 0.3163,-0.12731 0.377976,-0.18899 0.02228,-0.0223 -0.02228,-0.0722 0,-0.0945 0.130972,-0.13097 0.377694,-0.18842 0.472469,-0.37798 0.10595,-0.2119 0.136401,-0.41988 0.283483,-0.56696 0.227565,-0.22757 0.853077,-0.57223 1.039435,-0.94494 0.0378,-0.0756 -0.0378,-0.20789 0,-0.28348 0.0894,-0.17881 0.201398,-0.36176 0.283482,-0.56697 0.02339,-0.0585 -0.03494,-0.13657 0,-0.18899 0.03907,-0.0586 0.130384,-0.0554 0.18899,-0.0945 0.150241,-0.10016 0.02698,-0.20248 0.188985,-0.28348 0.08452,-0.0423 0.198964,0.0423 0.283483,0 0.02817,-0.0141 -0.02817,-0.0804 0,-0.0945 0.08452,-0.0423 0.204859,0.0524 0.283482,0 0.127432,-0.0849 0.592718,-0.33498 0.66146,-0.47247 0.263734,-0.52746 0.346788,-1.77979 0.94494,-2.07887 0.05635,-0.0282 0.127874,0.0153 0.188986,0 0.256077,-0.064 1.717013,-1.05555 1.889882,-1.22842 0.234262,-0.23426 0.13435,-0.24877 0.283485,-0.47247 0.09559,-0.14339 0.28348,-0.19165 0.28348,-0.37797 0,-0.37059 0.456139,-0.55063 0.661461,-0.75596 0.02228,-0.0223 -0.02988,-0.0845 0,-0.0945 0.130778,-0.0436 0.442692,-0.0116 0.566962,-0.0945 0.148257,-0.0988 0.229722,-0.27914 0.377978,-0.37797 0.05241,-0.0349 0.144442,0.0445 0.188984,0 0.07869,-0.0787 0.222047,-0.31654 0.283486,-0.37798 0.05407,-0.0541 0.23881,-0.055 0.283479,-0.18899 0.01992,-0.0598 -0.01992,-0.12922 0,-0.18898 0.01556,-0.0467 0.444699,-0.64758 0.47247,-0.66146 0.272198,-0.1361 0.479253,-0.42862 0.755956,-0.56697 0.438426,-0.21921 0.95999,-0.32898 1.210621,-0.83023 0.07679,-0.15359 0.163916,-0.38951 0.188987,-0.56697 0.03616,-0.25591 -0.06644,-0.28719 0.123111,-0.59539"
         id="path1577"
         sodipodi:nodetypes="cscsssssssscssssssscccsssssssssssssssssscssscssssscssssssssssssscssssccsssssssssc" />
    </g>
    <rect
       style="display:inline;fill:#cccccc;fill-opacity:1;stroke-width:0.51389;stroke-linecap:round"
       id="rect1573-3"
       width="33.866665"
       height="33.866665"
       x="36.661186"
       y="167.42566"
       inkscape:export-filename="/home/dtejaswi/repos/python/pyweek31/resources/images/tiles/sky/cloud.png"
       inkscape:export-xdpi="96"
       inkscape:export-ydpi="96"
       inkscape:transform-center-x="-29.619951"
       inkscape:transform-center-y="-37.67301" />
    <rect
       style="display:inline;fill:#ffeeaa;fill-opacity:1;stroke-width:0.51389;stroke-linecap:round"
       id="rect38"
       width="33.866665"
       height="33.866665"
       x="72.866524"
       y="167.44771"
       inkscape:export-filename="/home/dtejaswi/repos/python/pyweek31/resources/images/tiles/sky/moon.png"
       inkscape:export-xdpi="96"
       inkscape:export-ydpi="96"
       inkscape:transform-center-x="-29.619951"
       inkscape:transform-center-y="-37.67301" />
    <rect
       style="display:inline;fill:#f9f9f9;fill-opacity:1;stroke-width:0.51389;stroke-linecap:round"
       id="rect40"
       width="33.866665"
       height="33.866665"
       x="109.379"
       y="167.44771"
       inkscape:export-filename="/home/dtejaswi/repos/python/pyweek31/resources/images/tiles/sky/cloud.png"
       inkscape:export-xdpi="96"
       inkscape:export-ydpi="96"
       inkscape:transform-center-x="-29.619951"
       inkscape:transform-center-y="-37.67301" />
    <rect
       style="display:inline;fill:#000000;fill-opacity:1;stroke-width:0.626098;stroke-linecap:round"
       id="rect1573-6"
       width="50.270832"
       height="33.866665"
       x="145.99741"
       y="167.33626"
       inkscape:export-filename="/home/dtejaswi/repos/python/pyweek31/resources/images/tiles/stage/stage_test.png"
       inkscape:export-xdpi="96"
       inkscape:export-ydpi="96" />
    <rect
       style="display:inline;fill:#ffaaaa;fill-opacity:1;stroke-width:0.51389;stroke-linecap:round"
       id="rect1573-7"
       width="33.866665"
       height="33.866665"
       x="30.899347"
       y="29.481836"
       inkscape:export-filename="/home/dtejaswi/repos/python/pyweek31/resources/images/tiles/stage/stage_0.png"
       inkscape:export-xdpi="96"
       inkscape:export-ydpi="96" />
    <rect
       style="display:inline;fill:#ff5555;fill-opacity:1;stroke-width:0.51389;stroke-linecap:round"
       id="rect72"
       width="33.866665"
       height="33.866665"
       x="71.558228"
       y="29.172472"
       inkscape:export-filename="/home/dtejaswi/repos/python/pyweek31/resources/images/tiles/stage/stage_0.png"
       inkscape:export-xdpi="96"
       inkscape:export-ydpi="96" />
    <rect
       style="display:inline;fill:#ff0000;fill-opacity:1;stroke-width:0.51389;stroke-linecap:round"
       id="rect74"
       width="33.866665"
       height="33.866665"
       x="111.2166"
       y="29.088486"
       inkscape:export-filename="/home/dtejaswi/repos/python/pyweek31/resources/images/tiles/stage/stage_0.png"
       inkscape:export-xdpi="96"
       inkscape:export-ydpi="96" />
    <rect
       style="display:inline;fill:#aa0000;fill-opacity:1;stroke-width:0.101566;stroke-linecap:round"
       id="rect76"
       width="1.3229166"
       height="33.866665"
       x="151.0117"
       y="28.89566"
       inkscape:export-filename="/home/dtejaswi/repos/python/pyweek31/resources/images/tiles/stage/stage_end.png"
       inkscape:export-xdpi="96"
       inkscape:export-ydpi="96" />
    <rect
       style="display:inline;fill:#d5e5ff;fill-opacity:1;stroke-width:0.200738;stroke-linecap:round"
       id="rect78"
       width="13.229167"
       height="13.229167"
       x="32.92342"
       y="232.83978"
       inkscape:export-filename="/home/dtejaswi/repos/python/pyweek31/resources/images/tiles/stage/stage_0.png"
       inkscape:export-xdpi="96"
       inkscape:export-ydpi="96" />
    <rect
       style="display:inline;fill:#80b3ff;fill-opacity:1;stroke-width:0.283887;stroke-linecap:round"
       id="rect80"
       width="13.229167"
       height="26.458334"
       x="52.333595"
       y="218.63785"
       inkscape:export-filename="/home/dtejaswi/repos/python/pyweek31/resources/images/tiles/stage/stage_0.png"
       inkscape:export-xdpi="96"
       inkscape:export-ydpi="96" />
    <rect
       style="display:inline;fill:#0066ff;fill-opacity:1;stroke-width:0.283886;stroke-linecap:round"
       id="rect82"
       width="13.229167"
       height="26.458334"
       x="70.847908"
       y="218.31268"
       inkscape:export-filename="/home/dtejaswi/repos/python/pyweek31/resources/images/tiles/stage/stage_0.png"
       inkscape:export-xdpi="96"
       inkscape:export-ydpi="96" />
    <rect
       style="display:inline;fill:#002255;fill-opacity:1;stroke-width:0.200739;stroke-linecap:round"
       id="rect84"
       width="13.229167"
       height="13.229167"
       x="90.294342"
       y="231.45941"
       inkscape:export-filename="/home/dtejaswi/repos/python/pyweek31/resources/images/tiles/stage/stage_0.png"
       inkscape:export-xdpi="96"
       inkscape:export-ydpi="96" />
    <rect
       style="display:inline;fill:#c6e9af;fill-opacity:1;stroke-width:0.51389;stroke-linecap:round"
       id="rect86"
       width="33.866665"
       height="33.866665"
       x="12.426086"
       y="259.06992"
       inkscape:export-filename="/home/dtejaswi/repos/python/pyweek31/resources/images/tiles/stage/stage_0.png"
       inkscape:export-xdpi="96"
       inkscape:export-ydpi="96" />
    <rect
       style="display:inline;fill:#8dd35f;fill-opacity:1;stroke-width:0.51389;stroke-linecap:round"
       id="rect88"
       width="33.866665"
       height="33.866665"
       x="53.084965"
       y="258.76053"
       inkscape:export-filename="/home/dtejaswi/repos/python/pyweek31/resources/images/tiles/stage/stage_0.png"
       inkscape:export-xdpi="96"
       inkscape:export-ydpi="96" />
    <rect
       style="display:inline;fill:#5aa02c;fill-opacity:1;stroke-width:0.51389;stroke-linecap:round"
       id="rect90"
       width="33.866665"
       height="33.866665"
       x="92.743332"
       y="258.67654"
       inkscape:export-filename="/home/dtejaswi/repos/python/pyweek31/resources/images/tiles/stage/stage_0.png"
       inkscape:export-xdpi="96"
       inkscape:export-ydpi="96" />
    <rect
       style="display:inline;fill:#2d5016;fill-opacity:1;stroke-width:0.51389;stroke-linecap:round"
       id="rect92"
       width="33.866665"
       height="33.866665"
       x="132.53845"
       y="258.48373"
       inkscape:export-filename="/home/dtejaswi/repos/python/pyweek31/resources/images/tiles/stage/stage_0.png"
       inkscape:export-xdpi="96"
       inkscape:export-ydpi="96" />
    <rect
       style="display:inline;fill:#ff5555;fill-opacity:1;stroke-width:0.283887;stroke-linecap:round"
       id="rect110"
       width="26.458334"
       height="13.229167"
       x="71.790062"
       y="69.952057"
       inkscape:export-filename="/home/dtejaswi/repos/python/pyweek31/resources/images/tiles/obstacles/brick.png"
       inkscape:export-xdpi="96"
       inkscape:export-ydpi="96" />
  </g>
</svg>
